<?xml version="1.0" encoding="UTF-8"?>
<svg id="Layer_1" data-name="Layer 1" xmlns="http://www.w3.org/2000/svg" version="1.1" viewBox="0 0 1920 645">
  <defs>
    <style>
      .cls-1 {
        stroke: #597b73;
        stroke-width: 6px;
      }

      .cls-1, .cls-2 {
        fill: #597b73;
      }

      .cls-3 {
        fill: #f4dcdc;
      }

      .cls-3, .cls-4, .cls-5, .cls-6, .cls-2, .cls-7, .cls-8, .cls-9 {
        stroke-width: 0px;
      }

      .cls-4 {
        fill: #f5efe9;
      }

      .cls-5, .cls-8 {
        fill: #000;
      }

      .cls-6 {
        fill: #563617;
      }

      .cls-7, .cls-8, .cls-10 {
        display: none;
      }

      .cls-7, .cls-9 {
        fill: #ffc754;
      }
    </style>
  </defs>
  <g>
    <path class="cls-3" d="M100,644.8l1820.1.9v-193c-41.6-3.6-71.6,4.6-120.6-12.3-7.8-4.4-18.1-13.3-19.4-13.3-14.2-11.1-24.5-13.3-24.5-46.6s-1.3-64.3-2.6-95.4c0-8.8-2.6-17.7-5.2-26.6-1.3-6.7-6.5-13.3-6.5-20-2.6-33.3-2.6-64.3-2.6-95.4-1.3-17.8-15.5-15.6-25.8-17.8-1.3,0-7.8,11.1-7.8,17.8-2.6,55.4-3.9,110.9-6.5,166.4-1.2,8.8-5.1,15.5-9,26.6V83.1c0-6.7,0-13.3-2.6-20-3.9-6.7-7.7-13.3-12.9-20-1.3-2.2-6.5-4.4-6.5-4.4-9-28.8-34.8-22.2-54.2-24.4-6.5,0-14.2,8.9-20.7,11.1-10.4,4.4-20.7,11.1-32.3,13.3-10.3,2.3-16.8,6.7-19.4,17.8-1.3,4.5,0,8.9-10.3,8.9s-12.9,6.6-12.9,15.5c-1.3,37.8,2.5,77.7-7.8,113.2-12.9,44.3-9,90.9-23.2,133.1-3.9,13.3-1.3,26.6-5.2,39.9-5.2,17.7-12.9,33.3-20.7,48.8-1.3,4.4-24.5,38-29.7,40.2-7.7,4.4-28.2,22.6-36,27-18,18-27,18-54,27-3.8,2-7.3,3.7-10.5,5.3-4.1-5.4-7.1-12.9-9.5-22.9-1.3-6.6-2.6-11.1-3.9-15.5,1.3-2.2,1.3-4.4,1.3-4.4v-11.1c-14.2-15.6-11.6-37.7-19.4-55.5-2.6-4.5-2.6-11.2-2.6-17.8-1.3-24.4,0-24.4-24.5-31.1-1.3,2.2-1.3,6.7-1.3,8.9-3.9,40-7.7,82.1-11.6,124.3-1.2,6.7-6.4,15.5-9,22.2-15.5,8.8-31,17.7-46.5,26.6-18.1,11.1-36.1,24.4-55.5,33.3-1,.5-2.1.8-3.2.8h-37.8c-54,0,0-1-63,0l-81,9c-72,9-45,9-72,9-16.3,0-93-36.6-106.7-53.2-14.2-17.8-29.7-24.5-51.6-28.9-45.2-8.9-42.6-4.5-47.8-57.7,0-8.9-3.9-20-6.5-28.9-1.3-4.5-5.2-6.7-7.8-6.7s-6.5,4.5-6.5,6.7c-2.5,13.3-6.4,26.6-9,39.9-1.3,4.4-3.8,8.9-9,13.3-1.3-4.5-2.6-11.1-2.6-17.8-2.5-26.6-5.1-53.3-7.7-79.9,0-8.9-3.9-13.3-14.2-13.3-31-4.5-41.3,11.1-41.3,39.9-1.3,28.9-2.6,57.7-18.1,82.1-2.6,4.4-3.9,11.1-7.8,11.1-27.1,8.8-55.5,17.7-83.9,26.6-.4.2-1,.2-1.5.2v.8c-14.9,0-103.8,1.5-134.1-10.4-18.7-4.4-20.5-7.5-29.5-7.5-17-9.6-18.3-12.5-32.5-16.9-15.5-4.5-23.2-15.5-23.2-33.3,1.3-17.7,1.3-33.2,0-51-1.3-15.5-5.2-31.1-7.8-46.6,0-8.9,1.3-20,0-28.9,0-8.9-5.1-15.5-10.3-22.2-11.7,20-3.9,39.9-7.8,57.7-18-2.2-23.2-11.1-25.8-33.3-2.5-24.4-6.4-48.8-9-73.2-1.3-8.8-2.6-19.9,0-28.8,5.1-15.5-1.3-31.1-3.9-46.6,0-4.5-7.7-8.9-12.9-8.9-7.7-2.2-25.8,17.7-23.2,26.6,3.9,15.5,7.7,31,12.9,48.8-1.3,2.2-6.5,6.7-6.5,11.1-7.8,37.7-25.9,75.5-19.4,115.4,5.1,33.3-9.1,64.3-19.4,95.4-1.3,2.2-5.2,8.9-7.8,8.9-24.6,11.1-49.1,22.2-73.6,33.3-11.6,4.4-24.5,6.7-36.1,11.1l.7,118.9h107.9v.8s1812.2.8,1812.2.8h0s-1811.6-.9-1811.6-.9l1811.6.9v-.9s-1820.1-.9-1820.1-.9Z"/>
    <rect class="cls-3" x="1920.1" y="646.6" width=".2" height="0"/>
    <rect class="cls-3" x="1920.1" y="645.7" width=".2" height=".9"/>
    <g id="BUTTES" class="cls-10">
      <path class="cls-5" d="M1203.1,424h0Z"/>
      <path class="cls-3" d="M.8,639.2v8.6l465-.2c-.2-1.9,64.2.6,64.2-1.3v.3h577.1v.2h812.6l1.1-.4v-4.9L.8,639.2ZM529.9,646.4c0-1.2-.3-2.4-.4-3.6.2.8.4,1.6.4,2.4v1.2h0Z"/>
      <path class="cls-3" d="M1921.5,515.6v-99.7c-2.1-.2-13.3-2.7-15.5-2.9-13.3-3.4-13.4-3.1-16.2-3.6-27.6-7.2-45.5-17.2-46.5-31-1.5-21.1-3-42.3-5.9-63.4-.7-5.9-5.7-11.9-9.8-17.7-3.2-4.5-11.6-8.7-12.1-13.1-2.2-21.2-2.5-42.5-3.7-63.6-.5-11.9-29.3-9.5-48-11.4-2.5,0-14.5,7.3-15,11.2-4.7,37.2-7.4,74.7-12.1,112-.7,5.5-9.8,10.9-16.7,18.1v-170c-2-4.6-1.5-9.5-6.2-13.8-5.7-4.9-15.3-9.2-23.9-13.6-2.5-1.3-10.1-1.8-11.3-3.1-18-19.2-65.5-14.8-103.6-16.7-12.1-.5-25.6,4.8-38.9,6.9-20.4,3.4-40.9,7.4-62.5,9.2-19.9,1.6-31,4.8-37.2,11.7-2.5,2.7-11.6,5.8-18.7,6.3-18.7,1.1-24.4,4.9-24.4,10.9-3.9,25.7,4.7,52.9-15.3,76.8-24.6,29.5-17,60.3-43.8,89.2-7.6,8.4-3.2,18.2-10.3,26.5-9.8,11.4-24.1,22.4-39.1,33-3.9,2.8-8.6,2.1-18.2,3.7-14.8,2.5-12.4-2.8-53.9,8.7-49.1,13.6-71.7,20.3-83.6,23.9,6-1.4,12-2.8,18-4.2,18.4-4.2,37-8.1,55.8-12h.2-.2c-18.7,3.9-37.3,7.7-55.6,12h0c-6,1.3-11.9,2.8-17.9,4.2-7.3,1.7-14.6,3.5-21.8,5.3,0,.1-.2.1-.4.1-22,5.4-43.9,11-66,16.3-7.4,1.8-15.8,2.9-23.9,3.4-38.2,2.1-70.2,12.3-104.8,19.4-13,2.7-31.5.6-46.3-1.6-28.1-4.3-55.2-10.2-83-15.5-5.3-.9-10.9-1.6-16.4-1.6-34.5-.3-49.6-6.6-57.7-24-1.4-3.4-3.5-6.6-5.5-9.9.7-1.1,1.6-2.1,2.3-3.1-.5-2.4-.9-4.6-1.4-7-20.1-10.5-16-25.7-27.3-37.9-3.3-3.4-3.3-7.7-3.3-11.7-.5-15.7-.4-15.7-33.1-20.9-.9,2.1-2.1,4.1-2.5,6.2-5.1,28.1-9.7,56.2-15.5,84.1-1.1,5.1-8.1,10-12.3,14.8-20.9,6.2-42,12.3-63,18.4-9.3,2.7-18.6,5.5-28,8.3v1.1h0v-.2c-16.8,2.3-133.9,1.9-150.8,4.1-11.3,1.5-38.9-9.5-43.5-18-3.8-6.8-11.7-7.8-25.3-8.6-22.1-1.4-44.2-3.9-65.7-6.9-22.7-3.1-34.4-10-33.4-21.2.8-10.9.8-21.8-1.7-32.5-2.1-9.8-8.5-19.3-11.5-29.1-1.7-5.9,1.5-12.2-.8-18-1.7-4.8-8.1-9.2-15.9-13.5-17.4,11.5-6.6,24.3-12.1,36-27-2.7-34-7.1-38.2-21.8-4.3-15.7-10-31.3-14-46.9-1.5-6.2-3.4-13.1.8-18.8,7.9-10.7-1.7-20.1-5.9-29.7-.9-2.3-11.9-4.8-19.1-5.3-12.7-1-37.6,11.8-34.6,17.6,5.3,10.2,12.3,20.3,19.1,31.1-2.3,1.8-7.6,4.5-9.1,7.6-11.5,24.2-37.8,47.3-28.9,73.1,7.4,21.8-14.1,41.1-28.8,60.8-.1,4.4,0,7.2,0,8.3l.7,186.7,1920,2.4c.6-84.4,1.4-80.9.8-126h-.1Z"/>
      <path class="cls-5" d="M1203.1,424h0Z"/>
    </g>
    <g id="GREENS">
      <path class="cls-5" d="M1657.9,526.9c-11.4.9-25,.3-36.8.3s-13.8,0-18.4-1.2h19.9c11.4,0,22.8.3,34.1,0,.3.2.7.5,1,.8h.2Z"/>
      <path class="cls-2" d="M1186.8,594.6c1.3-7.6-.5-15.7,2.9-23.1,1.5-2.2,5.3-3.4,8.9-4.4,24.6-6.1,31.8-22.5,36.9-38,2.7-7.8,5.1-15.4,6.7-23.4,0-6.8,9.8-21.5.4-26.1-6.2-2.4-12.5,1.4-13.1,5-2.6,7.1-6.1,19.8-11,32.3-3,7.8-6.6,15.5-10.8,21.8-3.4,6.5-19.2,20.5-20.8,9.5-1-48.3,1-97.2-7.3-145-.9-2.2-3.4-4.8-7.6-4.9-17.8,0-5.8,75-13.6,83.2-16.1,0-17.6-23.9-28.2-29-21.6-7.4-.4,31.4,5.9,34.3,5.5,5.9,21.3,7.4,21.8,14.7-1,14.1-.8,28.3-2.4,42.3,0,2.4-1.8,5.3-6.7,3.9-22.9-7-22.6-26-36-37.8-8.6-5.1-11.9,2-10.4,6.9,4,14.1,8.9,29.5,27,39.5,6.2,3.6,17.5,3.1,22.3,7.6,2.5,4.6,2.1,10.7,3.4,15.7v18.8c4.7,3.2,26.1,6.1,32.1,8.2-.4-12.1-.6-7.6-.4-12.1h0Z"/>
      <path class="cls-2" d="M554.1,525.9c.3,19.4-16,54.5-47.4,63.9-6.9,2.5-17.3,2.2-21.9,6.4-4.7,5.4-.9,12.4-.2,19.3h0v2.6l-4.4-.4-1.5-.5c-11.9,7.6-42.9,7.4-59,10-11.4,1.8-8.6,1.9-5.4-7.8,11.3-88.9,13.5-177.6,24.3-266.3,2.2-7.8,1.8-18,13.2-23.2,9.1-3.7,18.9.7,21.7,6.4,11,24.6,7.8,50.6,12.1,75.7,2.9,52.1-3.5,105.3,1.4,157.1,6.9,4.1,16.1-3.1,20.9-5.9,9.2-5.9,15.8-13.5,19.6-21.4,4.1-6.4,4.9-14.4,12.8-19.6,6.1-3.4,13-.9,13.7,3.7h0Z"/>
      <path class="cls-2" d="M419.9,625.1h0c-7.9,6.4-37.3,9.5-50.8,11.9-4.5.5-11,1.5-15,1.2-1.4-.4-.5-1.6.7-4,4.6-11.9-.4-24.7.3-36.8-1.1-22.6-1.6-45.3-1.8-67.9,0-2.9-.4-6.4-2.6-8.8-3-3.7-10.2-5.5-16.8-7-43.9-9.1-60.3-39.1-67.3-64.1-2.9-10.2-6.9-21.6-1.8-31.7,5.8-9.9,22.9-6.1,27.8,2,12.6,21.8,16.9,46.9,43,64.7,10.9,8,16.7,6.1,16-3.9-1.1-44.2,2.2-88.2,2-132.4-.1-10.2,2.2-20.4,2-30.6.5-12.8-.1-26.5,6.8-38.5,3.3-4.6,10.1-7.3,16.5-4.2,11.3,7,9.9,20.7,11.8,30,4,23.1,4.7,46.3,6.5,69.5,10.1,83.3,13.8,167.8,22.7,250.6h0Z"/>
      <path class="cls-5" d="M648.5,594.3c.5.4,1,.8,1.4,1.2l-1.4-1.2Z"/>
      <path class="cls-5" d="M660,589.2c.5.4,1,.7,1.6,1.1-.5-.4-1-.7-1.6-1.1Z"/>
      <path class="cls-2" d="M1622.7,526.1c-6.6,0-13.3-.2-19.9,0-.3,0-.5,0-.7-.2-7.6-2.4-9.2-8.2-17.6-10.2-19.9-3.9-35.5-3.7-49-15.1-12.6-10.7-19.1-23.8-20.9-36.7-1.3-6.4,6.8-12.9,15.1-6.1,7.2,7.7,9.7,17.2,18,25,1.8,3.1,21.6,17.2,20,7.8-4.2-9.1-6.9-18.2-6.9-27.8.2-8.2-.7-16.6.7-24.8.6-4.9,8.3-9.7,14.7-4.5,5,4.2,4.8,10.1,6.1,15.1,1.5,7.1,3.3,13.4,5.8,20.7,10.3,26.5,20.8,25.1,26.7-1.1,7.2-21.1,8.1-42.4,8.5-64,0-9.9,2.2-19.8,1.9-29.8.9-6.8-2.7-33.4,14.4-32.1,3.9.8,5.9,3.1,7.2,6.1,4.8,42.9-.6,86.2,2.2,129.2.5,12,.3,24,.3,36-.3,6.4,2.4,8.7,7.6,12.5-11.4.3-22.8,0-34.2,0h0Z"/>
      <path class="cls-2" d="M1921.8,521.4l-1.1.5h0c-17.5,4.4-29.5,5.9-48.5,6.5,4.2-4.9,8.4-9.9,12.6-14.8-7.2,2.1-14.4,4.1-21.6,6.1-.5-4.1-1-8.1-1.5-12.1-5.8,3.5-11.6,7.1-17.5,10.6-2.2-3.7-4.4-7.5-6.7-11.2-2.9,4.1-5.8,8.3-8.7,12.4-5.3-4-10.7-8-16-12-2.1,4.5-4.1,8.9-6.2,13.4-7.1-3.1-14.1-6.2-21.2-9.4,3.7,7.9,7.5,15.8,11.2,23.8-10.4-2-20.8-4-31.3-6l26,18.9c-69-27-158.9-30.5-239.2-18.5-80.2,12.1-152.3,38.3-218.7,67.3-21.1,9.2-43.2,19.2-69.4,20.8-31.5,2-60.9-8.4-89.7-16.1-73.5-19.6-158.9-23.1-236.3-9.8-67.7,11.7-131.5,36-202,34.2-34.6-.9-67.9-8.1-102.4-9.8s-73.9,3.8-91.4,21.4c-20.5-18-62-22.4-98.8-22.4s-75.5,2.9-108.8-6.4c-23.4-6.5-41.2-18.2-60.8-28.1-31.4-15.9-68.6-27.8-108.3-34.7s-20.2-3.2-30.5-4.3c-11.6-1.2-18.3-.6-29.5.9-24,3.4-48.1,6.7-72.1,10.1L.1,556.8v91h1921.8c0-44.2.3-100.6,0-126.5h0Z"/>
      <path class="cls-2" d="M732.9,557.8c-1.5-5-8.9-4.5-11.8-.3-3.6,4.8-4.6,11.2-8.7,15.7-5.3,6.1-9,2.9-8.6-2.2-1.7-12.1,11.6-71.1-16.7-69.9-8.2.7-12,5.9-13.2,10.3-4.1,23-2,46.3-2.5,69.5-.7,3.5,1.8,9.4-3.2,11.8-5.4.6-9.2-3.6-11.3-6.1-5.2-3.8-6.5-26.3-16-23.7-5.3,3.4-1.7,9.7-1.1,13.8,2.5,11.1,5.3,19.4,24.6,23.8,15.2,4,9,17.7,9.1,20.7.2,5.1,27.9,9.2,29.2,3.3l1.5-9.8h0c2.4-7.2-1.4-16.1,3.1-23,3.4-4.1,11.2-6.1,15.3-10,7.1-6.9,11.5-15.9,10.3-24h0Z"/>
    </g>
    <path id="COG" class="cls-8" d="M873.5,1.5c9.4,3.9,10.1,13.6,20.2,17.5,9,3.9,18.8-.4,24.1-6.3,4.1-4.3,7.9-9.9,15.7-10.4,4-.3,8.3.6,12.3,1.4,15.4,3.6,25.9,5.8,24.5,19.5-.3,5.5,1,11.7,7.2,15.1,4.8,2.8,11.9,2.8,17.5,1.2,2.9-.7,5.7-1.8,8.6-2.8,10.3-3.6,18.1-1.5,25.7,4.6,4.4,3.6,9.4,7.2,11.7,11.7,1.5,3,1.2,6.2-.3,9.1-1.7,3.4-5.4,6.9-7.2,10.4-1.8,3.4-2.3,7.3-.3,10.7,2.9,5.1,10.7,7.5,18,8,12.8.6,20.2,1.1,24,11.8,2.1,7.1,6.9,17.1-1.1,22.9-5.1,3.8-13.4,5.4-18.2,9.5-6.4,4.9-6.3,11.7-.4,16.8,5.8,5.3,18.2,7.9,19.5,15.4,1,5.4-2.1,10.7-4.2,15.8-5,10.7-11.5,12.2-26.3,11.7-7,0-14.7,1.6-18.4,6-10.8,14.6,18.9,22.5-3.6,37.8-5.1,3.5-10.2,7.4-17,8.9-10.4,2.3-18.1-4.7-27.4-6.5-8.7-1.9-17,.9-20.4,7.2-1.7,2.8-2.1,6.2-2.4,9.4-.9,12.9-12,14.7-26.6,16.8-15.5,2.2-20.5-1.7-27.4-11.5-5.1-6.7-15-11-24.6-6.7-9.2,3.6-11.6,13-21.8,15.5-7.3,1.7-15.1-.6-22.1-2.2-29.4-7-7.8-21.8-23.7-32.8-5.9-3.6-14.3-3-21.1-.7-11.2,4.1-18.5,6.3-28.5-.8-5.2-3.9-10.8-7.9-14.2-12.8-4.1-6,.9-11.4,5.3-16.8,3.6-4.6,5.4-10.5,1.6-15.1-3.4-4.3-10.5-6.2-17.1-6.7-4.1-.3-8.4-.4-12.3-1.4-9.1-2.3-11.6-9.2-13.4-15.9-2.4-7.6-3.3-14.9,7-19.6,4.6-2.2,10.3-4,14-7,6.6-4.9,6.7-11.8.6-17-3.4-3.1-8.8-5.1-12.9-7.8-7.6-4.6-7.7-10.9-5.1-17.3,1.7-4,3.2-8.3,6.3-11.8,3.1-3.6,8-5.7,14.1-5.9,5.3-.3,11.3.4,16.5-.8,4.3-.9,8.2-2.6,10.5-5.3,3.8-4.3,2.7-9.9,0-14.6-1.2-2-2.6-4.1-3.6-6.1-3.7-7,.4-12.5,7.2-17.1,8.4-5.9,17.4-12.4,29.7-7.8,4.9,1.7,9.8,4.6,15.2,5.5,8.6,1.7,16.6-1.2,19.9-7.3,3.2-5.1,1.4-11.7,4.6-16.8,4.1-6.5,13.7-7.8,22.9-9.2,5.4-.9,11.9-1.6,17.3.6h0ZM1003.5,137.8c.4-41.6-43.2-77.7-99.5-81.5-62.3-5.3-119.2,31.8-121.4,77.5-2.8,33.6,24.8,66.6,66.7,79.6,72.7,23,154.2-16.5,154.2-75.4h0v-.2Z"/>
    <path id="CLOUD" class="cls-4" d="M1135,77.4c-.5-1.8,1-2.1,2.5-2.2,9.8-1.4,19.6-3.3,29.6-4.6,15.8-3.2,39.9-4,46.1-14.7,9-18.8,38.5-31.8,69.4-36.9,36.3-7,73.8,5.7,91.6,24.5,2,3.2,4.2,7.9,7.8,1.8,3.1-4.5,13.8-1.3,18.7.3,6.8,2.7,12.6-.8,19.2-2,17.6-.8,37.5,7.7,41.8,17.8,2.8,18.2-42.1,15.2-63,15.8h-263.7v.2Z"/>
    <path id="SUN" class="cls-7" d="M971.8-178.3c101.1,2.8,202.9,85.3,177.1,192.3-27.2,102.2-151.7,143.9-246.2,115.4-86.5-23.7-154.7-107.8-120.7-198.4,27.8-73.2,112.9-113.5,189.6-109.2h.2Z"/>
  </g>
  <g id="SUN-2" class="cls-10">
    <path class="cls-9" d="M971.8-178.3c101.1,2.8,202.9,85.3,177.1,192.3-27.2,102.2-151.7,143.9-246.2,115.4-86.5-23.7-154.7-107.8-120.7-198.4,27.8-73.2,112.9-113.5,189.6-109.2h.2Z"/>
  </g>
  <g id="daguaro" class="cls-10">
    <path class="cls-1" d="M927.6,411.9v71.7c0,4.6,3.7,8.3,8.3,8.3h6.7c4.1,0,7.5-3.4,7.5-7.5v-138c0-9.7,7.8-17.5,17.5-17.5s20,9,20,20v166.5c0,3.9,3.1,7,7,7h6.5c5.5,0,10-4.5,10-10v-121c0-7.7,6.3-14,14-14s12.5,5.6,12.5,12.5v124.8c0,15.7-11.6,29-27.2,31.1l-14.1,1.9c-5,.7-8.7,4.9-8.7,9.9v49.3h-37.5v-81c0-5.5-4.5-10-10-10h-8.1c-7.9,0-15.5-3.2-21.1-8.9-4.7-4.9-7.4-11.4-7.4-18.2v-75.9c0-6.9,5.6-12.5,12.5-12.5s11.5,5.1,11.5,11.5h0Z"/>
    <path class="cls-6" d="M1023.9,332.7c-1.8,9.8-14.8,20.3-26.1,22.8-8,1.7-10.7-7.6-17.1-11.1-4.1-2.5-10-1.7-12.7-4.2-2.5,2.9-8.8,1.8-13.2,4.2-6.5,3.3-9.6,12.5-17.5,10.6-11.1-2.8-23.8-13.6-25.3-23.4-.8-5,0-13.9,1.2-18.8,2.2-9.1,6.5-23.3,17-14.3,5.8,4.8,10.5,13,9.8,5.3-1.3-14.7,7.7-54,25.1-35.9l.7,3.5c1.4,1.8,2.2,1,2.9,2.6.8-1.7,1.9-1,3.4-2.9l.9-3.4c18-17.6,25.7,21.9,23.9,36.6-.9,7.7,4-.5,10-5,10.7-8.7,14.6,5.6,16.5,14.7,1,4.9,1.5,13.8.6,18.8h-.1Z"/>
  </g>
</svg>