<svg width="619" height="516" viewBox="0 0 619 516" fill="none" xmlns="http://www.w3.org/2000/svg">
<path d="M16.3015 361.499V399.634C16.3015 402.078 18.2779 404.059 20.7159 404.059H24.2619C26.4601 404.059 28.2421 402.273 28.2421 400.069V326.652C28.2421 321.511 32.4001 317.342 37.5292 317.342C43.3911 317.342 48.1431 322.106 48.1431 327.982V416.562C48.1431 418.618 49.8063 420.286 51.8579 420.286H55.3074C58.2383 420.286 60.6143 417.904 60.6143 414.965V350.593C60.6143 346.479 63.9407 343.145 68.044 343.145C71.7077 343.145 74.6777 346.122 74.6777 349.795V416.187C74.6777 423.267 70.2278 429.58 63.5702 431.943C62.487 432.328 61.367 432.599 60.2282 432.753L52.742 433.763C50.1084 434.119 48.1431 436.372 48.1431 439.036V462.58C48.1431 464.049 46.9551 465.24 45.4896 465.24H30.8955C29.4301 465.24 28.2421 464.049 28.2421 462.58V422.148C28.2421 419.209 25.8661 416.828 22.9352 416.828H18.6454C14.4333 416.828 8.53324 417.716 5.60102 414.685C3.09731 412.096 3.56492 406.033 3.56492 402.428V362.031C3.56492 358.358 6.5349 355.381 10.1986 355.381C13.5691 355.381 16.3015 358.12 16.3015 361.499Z" fill="#597B73"/>
<path d="M10.1986 355.381V355.381C6.5349 355.381 3.56492 358.351 3.56492 362.014V408.049L3.56492 408.336C3.56492 413.026 7.3665 416.828 12.056 416.828V416.828M10.1986 355.381C6.5349 355.381 3.56492 358.358 3.56492 362.031V402.428C3.56492 406.033 3.09731 412.096 5.60102 414.685C8.53324 417.716 14.4333 416.828 18.6454 416.828H22.9352C25.8661 416.828 28.2421 419.209 28.2421 422.148V462.58C28.2421 464.049 29.4301 465.24 30.8955 465.24H45.4896C46.9551 465.24 48.1431 464.049 48.1431 462.58V439.036C48.1431 436.372 50.1084 434.119 52.742 433.763L60.2282 432.753C61.367 432.599 62.487 432.328 63.5702 431.943C70.2278 429.58 74.6777 423.267 74.6777 416.187V349.795C74.6777 346.122 71.7077 343.145 68.044 343.145M10.1986 355.381C13.5691 355.381 16.3015 358.12 16.3015 361.499V399.634C16.3015 402.078 18.2779 404.059 20.7159 404.059H24.2619C26.4601 404.059 28.2421 402.273 28.2421 400.069V326.652C28.2421 321.511 32.4001 317.342 37.5292 317.342C43.3911 317.342 48.1431 322.106 48.1431 327.982V416.562C48.1431 418.618 49.8063 420.286 51.8579 420.286H55.3074C58.2383 420.286 60.6143 417.904 60.6143 414.965V350.593C60.6143 346.479 63.9407 343.145 68.044 343.145M68.044 343.145V343.145C71.7077 343.145 74.6777 346.115 74.6777 349.778V414.484C74.6777 422.586 69.5763 429.811 61.9411 432.522V432.522" stroke="black" stroke-width="6"/>
<path d="M24.0343 338.19L6.19435 333.751C4.92318 333.434 3.98197 332.357 3.83465 331.049L3.00939 323.725C2.912 322.861 3.5849 322.104 4.45054 322.104C5.10897 322.104 5.68478 322.549 5.85285 323.189L7.28739 328.649L23.6582 331.94L24.3195 320.613C24.2563 319.217 24.8115 317.865 25.8357 316.92L27.0833 315.769C27.5618 315.328 27.944 314.791 28.2058 314.194L31.4634 306.761C31.8597 305.857 33.0848 305.73 33.6564 306.534C33.8774 306.844 34.5453 306.96 35.3144 307.026C35.5348 307.045 35.7437 307.06 35.941 307.071C37.507 307.159 39.0989 307.156 40.6654 307.076C40.8916 307.064 41.1322 307.048 41.3864 307.026C42.1555 306.96 42.8234 306.844 43.0444 306.534C43.616 305.73 44.8411 305.857 45.2374 306.761L48.495 314.194C48.7568 314.791 49.139 315.328 49.6175 315.769L50.8651 316.92C51.8893 317.865 52.4445 319.217 52.3813 320.613L53.0426 331.94L69.4134 328.649L70.8479 323.189C71.016 322.549 71.5918 322.104 72.2503 322.104C73.1159 322.104 73.7888 322.861 73.6914 323.725L72.8661 331.049C72.7188 332.357 71.7776 333.434 70.5065 333.751L52.6665 338.19C52.5434 338.221 52.4169 338.236 52.29 338.236H24.4108C24.2839 338.236 24.1574 338.221 24.0343 338.19Z" fill="#A35030"/>
<path d="M7.28739 328.649L5.85285 323.189C5.68478 322.549 5.10897 322.104 4.45054 322.104C3.5849 322.104 2.912 322.861 3.00939 323.725L3.83465 331.049C3.98197 332.357 4.92318 333.434 6.19435 333.751L24.0343 338.19C24.1574 338.221 24.2839 338.236 24.4108 338.236H52.29C52.4169 338.236 52.5434 338.221 52.6665 338.19L70.5065 333.751C71.7776 333.434 72.7188 332.357 72.8661 331.049L73.6914 323.725C73.7888 322.861 73.1159 322.104 72.2503 322.104C71.5918 322.104 71.016 322.549 70.8479 323.189L69.4134 328.649M7.28739 328.649L6.92847 328.663L6.85 328.635L7.28739 328.649ZM7.28739 328.649L23.6582 331.94L24.3195 320.613C24.2563 319.217 24.8115 317.865 25.8357 316.92L27.0833 315.769C27.5618 315.328 27.944 314.791 28.2058 314.194L31.4634 306.761C31.8597 305.857 33.0848 305.73 33.6564 306.534C33.8774 306.844 34.5453 306.96 35.3144 307.026C35.5348 307.045 35.7437 307.06 35.941 307.071C37.507 307.159 39.0989 307.156 40.6654 307.076C40.8916 307.064 41.1322 307.048 41.3864 307.026C42.1555 306.96 42.8234 306.844 43.0444 306.534C43.616 305.73 44.8411 305.857 45.2374 306.761L48.495 314.194C48.7568 314.791 49.139 315.328 49.6175 315.769L50.8651 316.92C51.8893 317.865 52.4445 319.217 52.3813 320.613L53.0426 331.94L69.4134 328.649M69.4134 328.649L69.0469 328.663L69.1254 328.635L69.4134 328.649Z" stroke="black" stroke-width="6"/>
<path d="M25.7712 150.157V188.292C25.7712 190.736 27.7476 192.717 30.1856 192.717H33.7316C35.9298 192.717 37.7118 190.931 37.7118 188.727V115.31C37.7118 110.168 41.8697 106 46.9989 106C52.8607 106 57.6127 110.764 57.6127 116.64V205.219C57.6127 207.276 59.2759 208.943 61.3276 208.943H64.7771C67.708 208.943 70.084 206.561 70.084 203.623V139.25C70.084 135.137 73.4104 131.802 77.5137 131.802C81.1773 131.802 84.1473 134.78 84.1473 138.452V204.845C84.1473 211.925 79.6975 218.237 73.0399 220.601C71.9567 220.986 70.8367 221.257 69.6978 221.411L62.2116 222.421C59.5781 222.776 57.6127 225.029 57.6127 227.693V251.238C57.6127 252.707 56.4247 253.898 54.9593 253.898H40.3652C38.8997 253.898 37.7118 252.707 37.7118 251.238V210.805C37.7118 207.867 35.3358 205.485 32.4048 205.485H28.1151C23.903 205.485 18.0029 206.374 15.0707 203.343C12.567 200.754 13.0346 194.691 13.0346 191.085V150.689C13.0346 147.016 16.0046 144.038 19.6682 144.038C23.0388 144.038 25.7712 146.778 25.7712 150.157Z" fill="black"/>
<path d="M19.6682 144.038V144.038C16.0046 144.038 13.0346 147.008 13.0346 150.672V196.707L13.0346 196.994C13.0346 201.684 16.8362 205.485 21.5257 205.485V205.485M19.6682 144.038C16.0046 144.038 13.0346 147.016 13.0346 150.689V191.085C13.0346 194.691 12.567 200.754 15.0707 203.343C18.0029 206.374 23.903 205.485 28.1151 205.485H32.4048C35.3358 205.485 37.7118 207.867 37.7118 210.805V251.238C37.7118 252.707 38.8998 253.898 40.3652 253.898H54.9593C56.4247 253.898 57.6127 252.707 57.6127 251.238V227.693C57.6127 225.029 59.5781 222.776 62.2116 222.421L69.6978 221.411C70.8367 221.257 71.9567 220.986 73.0399 220.601C79.6975 218.237 84.1473 211.925 84.1473 204.845V138.452C84.1473 134.78 81.1773 131.802 77.5137 131.802M19.6682 144.038C23.0388 144.038 25.7712 146.778 25.7712 150.157V188.292C25.7712 190.736 27.7476 192.717 30.1856 192.717H33.7316C35.9298 192.717 37.7118 190.931 37.7118 188.727V115.31C37.7118 110.168 41.8697 106 46.9989 106C52.8607 106 57.6127 110.764 57.6127 116.64V205.219C57.6127 207.276 59.2759 208.943 61.3276 208.943H64.7771C67.708 208.943 70.084 206.561 70.084 203.623V139.25C70.084 135.137 73.4104 131.802 77.5137 131.802M77.5137 131.802V131.802C81.1773 131.802 84.1473 134.772 84.1473 138.436V203.142C84.1473 211.244 79.046 218.469 71.4107 221.179V221.179" stroke="black" stroke-width="6"/>
<path fill-rule="evenodd" clip-rule="evenodd" d="M356.875 81.154L309 81.5061V234.8V388.094L342.814 388.299C361.412 388.413 399.226 388.635 426.846 388.793C454.466 388.951 508.55 388.768 547.035 388.385L617.006 387.69V234.581V81.4726L567.122 81.4579C539.686 81.4512 491.929 81.2999 460.994 81.1232C430.06 80.9478 383.205 80.9612 356.875 81.154ZM410.002 83.9805C410.398 84.6232 409.729 92.7226 408.513 101.979C406.698 115.786 406.611 119.182 408.033 120.894C410.326 123.657 412.495 123.525 417.774 120.308C423.28 116.951 427.685 116.922 433.069 120.203C441.989 125.642 442.026 140.38 433.134 145.802C427.687 149.122 423.297 149.105 417.774 145.737C412.499 142.523 410.326 142.389 408.039 145.143C406.378 147.145 406.971 156.041 410.231 178.026L410.949 182.861L398.474 184.443C391.614 185.312 383.892 186.321 381.314 186.684C374.083 187.702 372.511 185.898 375.855 180.415C380.223 173.25 379.608 165.51 374.201 159.61C363.392 147.818 343.893 155.252 343.842 171.183C343.834 173.76 345.071 177.909 346.59 180.4C348.34 183.27 348.885 185.397 348.077 186.206C347.269 187.013 340.367 186.632 329.24 185.162L311.678 182.841V132.826V82.8116H360.478C387.319 82.8116 409.604 83.3378 410.002 83.9805ZM512.905 84.4853C514.228 87.9479 517.022 118.957 516.094 119.886C515.561 120.419 512.96 119.689 510.317 118.266C497.637 111.439 483.983 119.089 483.983 133.023C483.983 146.956 497.637 154.607 510.317 147.779C512.96 146.356 515.561 145.626 516.094 146.159C517.332 147.399 513.997 179.479 512.458 181.113C511.76 181.854 506.118 181.684 498.201 180.684C480.325 178.425 476.577 178.46 474.127 180.909C472.214 182.823 472.282 183.433 474.879 187.633C481.805 198.839 475.54 211.352 463.003 211.352C450.509 211.352 444.201 198.839 451.083 187.706C456.369 179.155 450.811 177.582 426.678 180.794C420.159 181.663 414.422 181.971 413.931 181.48C412.835 180.384 409.549 157.682 409.484 150.764C409.433 145.324 411.036 144.475 415.499 147.58C424.952 154.155 438.44 149.118 441.551 137.851C443.343 131.362 441.165 123.999 436.226 119.845C430.274 114.837 425.508 114.296 417.537 117.724C413.774 119.342 410.307 120.281 409.836 119.808C409.016 118.99 411.543 92.1602 413.035 85.8243L413.745 82.8116H463.004C501.18 82.8116 512.41 83.1879 512.905 84.4853ZM614.328 132.847V182.883L601.94 184.453C595.127 185.317 587.444 186.321 584.866 186.684C577.635 187.702 576.062 185.898 579.406 180.415C583.068 174.41 583.061 165.96 579.392 161.295C573.245 153.483 563.055 151.595 555.287 156.829C547.08 162.359 544.991 171.953 550.151 180.415C553.495 185.898 551.923 187.702 544.691 186.684C542.114 186.321 534.379 185.31 527.503 184.439L515.004 182.855L515.729 178.692C516.13 176.404 517.204 168.346 518.119 160.786C519.624 148.344 519.569 146.829 517.539 144.799C515.442 142.702 514.915 142.747 509.425 145.488C502.215 149.09 498.398 149.17 492.937 145.842C484.024 140.407 483.986 125.743 492.871 120.169C497.806 117.073 505.932 117.406 509.747 120.858C512.736 123.563 515.76 123.56 518.007 120.851C519.475 119.085 519.409 115.844 517.624 101.781C516.442 92.4628 515.756 84.3822 516.1 83.8252C516.446 83.2682 538.687 82.8116 565.527 82.8116H614.328V132.847ZM369.289 158.476C371.439 159.589 373.82 161.658 374.578 163.076C376.775 167.178 376.185 174.789 373.25 180.226L370.541 185.242L373.436 187.616C375.028 188.922 377.302 189.718 378.487 189.385C383.993 187.84 409.802 185.749 410.761 186.772C412.207 188.315 415.533 220.431 414.366 221.597C413.86 222.104 410.515 221.145 406.932 219.467C399.295 215.891 394.102 216.475 388.017 221.593C380.108 228.248 380.136 241.343 388.074 248.022C394.111 253.101 400.026 253.734 407.338 250.082C410.691 248.409 413.852 247.455 414.361 247.964C415.537 249.14 412.209 281.251 410.75 282.805C409.78 283.84 386.39 281.861 379.221 280.138C377.64 279.758 375.106 280.569 373.297 282.034L370.135 284.593L373.046 289.303C376.149 294.324 376.855 302.239 374.578 306.492C371.567 312.121 360.507 314.889 354.108 311.617C346.409 307.681 344.089 297.36 349.175 289.681C352.529 284.616 352.509 284.146 348.84 281.756C346.206 280.039 344.145 280.032 332.435 281.698C325.07 282.746 317.386 283.615 315.361 283.63L311.678 283.656V234.784V185.912L314.691 185.954C316.349 185.977 324.032 186.846 331.766 187.885C344.047 189.535 346.208 189.525 348.84 187.811C352.509 185.421 352.529 184.951 349.175 179.886C344.166 172.326 346.349 162.14 353.862 158.009C357.685 155.907 364.73 156.12 369.289 158.476ZM572.84 158.476C574.991 159.589 577.372 161.658 578.13 163.076C580.354 167.229 579.712 175.537 576.831 179.886C573.477 184.951 573.497 185.421 577.166 187.811C579.797 189.525 581.959 189.535 594.24 187.885C601.974 186.846 609.657 185.977 611.314 185.954L614.328 185.912V234.784V283.656L611.314 283.607C609.657 283.581 602.275 282.757 594.91 281.778C576.443 279.321 571.683 281.353 576.737 289.528C583.581 300.6 577.237 313.113 564.779 313.113C552.188 313.113 545.977 300.6 552.959 289.303L555.871 284.593L552.709 282.034C550.901 280.569 548.365 279.758 546.785 280.137C545.265 280.502 537.792 281.543 530.176 282.449C519.139 283.764 516.122 283.76 515.3 282.43C513.863 280.105 510.609 249.001 511.689 247.92C512.174 247.435 515.314 248.409 518.668 250.082C525.957 253.723 531.892 253.102 537.867 248.075C553.401 235.007 537.488 210.081 519.475 219.269C512.028 223.068 511.206 222.845 511.259 217.042C511.322 210.417 514.591 187.443 515.618 186.416C516.383 185.652 540.948 188.026 546.785 189.429C548.366 189.809 550.9 188.998 552.709 187.533L555.871 184.974L552.959 180.264C543.96 165.705 557.7 150.649 572.84 158.476ZM449.469 181.779C451.016 182.758 450.843 183.76 448.465 187.607C443.205 196.117 445.251 205.389 453.649 211.096C457.455 213.683 459.536 214.154 464.929 213.652C478.08 212.426 484.634 198.877 477.631 187.391C474.372 182.049 475.861 180.102 482.421 181.126C484.63 181.47 492.379 182.469 499.641 183.346L512.842 184.939L512.082 189.626C509.05 208.306 508.206 220.724 509.836 222.687C512.1 225.416 514.286 225.277 519.55 222.069C524.802 218.866 528.746 218.689 534.022 221.417C544.366 226.765 544.366 242.803 534.022 248.15C528.746 250.878 524.802 250.701 519.55 247.498C514.286 244.29 512.1 244.151 509.836 246.88C508.207 248.841 509.05 261.261 512.078 279.916L512.834 284.575L500.305 286.176C493.415 287.055 485.668 288.061 483.09 288.408C475.831 289.386 474.299 287.639 477.631 282.176C481.999 275.011 481.384 267.271 475.977 261.371C472.295 257.354 470.416 256.426 464.929 255.915C449.986 254.522 440.643 269.305 448.465 281.96C451.841 287.421 450.285 289.487 443.585 288.441C441.376 288.097 433.641 287.099 426.396 286.225L413.224 284.634L413.948 280.464C414.347 278.169 415.4 270.084 416.288 262.496C417.734 250.143 417.674 248.472 415.712 246.509C413.683 244.48 413.086 244.535 407.649 247.249C400.772 250.684 397.308 250.903 392.141 248.232C388.403 246.299 383.993 239.07 383.993 234.873C383.993 230.254 387.961 223.496 391.856 221.482C397.313 218.661 400.684 218.839 407.649 222.318C413.105 225.041 413.676 225.092 415.729 223.041C417.781 220.988 417.782 219.57 415.737 203.106C414.527 193.359 413.67 185.254 413.83 185.097C414.128 184.81 441.887 180.999 445.594 180.738C446.699 180.66 448.442 181.129 449.469 181.779ZM471.065 260.237C473.215 261.35 475.596 263.419 476.354 264.837C478.613 269.057 477.928 277 474.879 281.934C472.282 286.134 472.214 286.745 474.127 288.658C476.577 291.107 480.325 291.142 498.201 288.883C506.118 287.883 511.76 287.713 512.458 288.454C513.997 290.088 517.332 322.168 516.094 323.408C515.561 323.941 513.189 323.389 510.826 322.184C503.996 318.702 500.77 318.171 495.988 319.75C483.055 324.017 479.559 341.125 489.85 349.783C495.887 354.861 501.802 355.495 509.114 351.843C512.467 350.17 515.628 349.216 516.137 349.725C517.035 350.622 514.192 381.713 512.905 385.082C512.41 386.379 501.162 386.755 462.92 386.755H413.576L412.881 382.404C410.736 368.981 409.437 358.216 409.437 353.873C409.437 348.43 409.001 348.476 420.229 352.757C426.108 354.998 426.528 354.989 431.526 352.51C438.827 348.887 442.274 343.687 442.12 336.528C441.816 322.487 428.344 314.974 415.689 321.788C413.046 323.211 410.465 323.96 409.956 323.451C408.835 322.331 412.059 291.269 413.544 288.865C414.388 287.501 416.971 287.48 426.564 288.757C450.819 291.987 456.375 290.424 451.083 281.861C442.223 267.529 456.108 252.505 471.065 260.237ZM348.52 283.68C348.983 284.43 348.115 287.062 346.59 289.528C338.668 302.346 348.468 317.124 363.746 315.402C376.389 313.978 382.678 300.343 375.855 289.152C372.597 283.81 374.086 281.863 380.645 282.887C382.854 283.231 390.601 284.23 397.861 285.107L411.06 286.7L410.337 291.538C406.946 314.203 406.373 322.416 408.039 324.424C410.326 327.178 412.499 327.045 417.774 323.83C423.28 320.473 427.685 320.443 433.069 323.725C441.989 329.164 442.026 343.902 433.134 349.324C427.618 352.686 424.291 352.619 416.825 348.991C411.178 346.248 410.592 346.196 408.538 348.25C406.492 350.296 406.487 351.726 408.456 367.552C409.626 376.953 410.29 385.119 409.931 385.7C409.572 386.28 387.319 386.755 360.478 386.755H311.678V336.694V286.635L325.405 285.045C332.955 284.171 339.734 283.247 340.47 282.991C343.323 282.005 347.716 282.38 348.52 283.68ZM551.245 283.54C552.792 284.519 552.619 285.521 550.241 289.368C544.981 297.878 547.027 307.15 555.425 312.857C559.231 315.444 561.312 315.915 566.704 315.413C579.856 314.187 586.41 300.638 579.406 289.152C576.148 283.81 577.637 281.863 584.197 282.887C586.406 283.231 594.089 284.222 601.271 285.088L614.328 286.664V336.709V386.755H565.527C538.687 386.755 516.446 386.299 516.1 385.742C515.756 385.185 516.449 377.047 517.64 367.659C519.664 351.719 519.659 350.44 517.552 348.334C515.438 346.22 514.929 346.263 509.425 349.01C502.46 352.489 499.089 352.667 493.632 349.846C489.736 347.832 485.769 341.074 485.769 336.455C485.769 332.258 490.178 325.029 493.917 323.096C499.084 320.425 502.548 320.644 509.425 324.079C514.934 326.829 515.436 326.871 517.556 324.751C519.676 322.63 519.676 321.398 517.559 304.823C516.317 295.106 515.436 287.024 515.601 286.864C515.901 286.572 543.619 282.764 547.37 282.499C548.475 282.421 550.218 282.89 551.245 283.54Z" fill="black" stroke="black" stroke-width="3"/>
<path fill-rule="evenodd" clip-rule="evenodd" d="M166.507 380.621C167.625 382.07 167.12 382.952 163.57 385.753C155.715 391.952 154.466 401.365 160.406 409.599C163.097 413.331 164.892 414.486 170.131 415.858C182.909 419.203 192.628 407.999 189.975 394.811C188.741 388.677 191.881 388.07 197.694 391.275C199.653 392.354 206.592 395.943 213.117 399.25L226.895 403.86L222.659 409.406C213.42 425.922 208.379 437.304 209.239 439.705C210.434 443.044 212.535 443.661 218.579 442.446C224.61 441.233 228.377 442.415 232.402 446.782C240.292 455.345 234.806 470.416 223.257 471.904C217.366 472.663 213.72 471.148 209.881 466.342C206.031 461.527 205.411 462.26 202.349 464.05C200.148 465.337 198.598 475.435 195.062 494L193.436 500.5L178.566 496.106C171.79 494.576 164.167 492.872 161.626 492.316C154.469 490.753 151.67 486.965 156.67 482.971C163.226 477.732 167.253 471.87 164.189 464.478C162.104 459.444 160.656 457.93 155.674 455.572C142.109 449.154 128.273 459.849 131.294 474.417C132.599 480.702 130.43 482.112 124.492 478.838C122.533 477.759 115.606 474.176 109.097 470.877L95.5648 466.223L99.3709 461.207C100.531 459.186 104.286 451.949 107.715 445.123C113.3 434.009 113.815 432.418 112.643 429.903C111.431 427.303 110.85 427.15 104.813 427.841C97.1763 428.717 93.8457 427.739 89.9046 423.462C87.0525 420.366 85.3815 412.065 86.817 408.122C88.3971 403.781 94.4373 398.788 98.7869 398.228C104.88 397.443 107.986 398.763 113.341 404.413C117.536 408.838 118.056 409.082 120.687 407.856C123.317 406.629 122.79 404.406 126.5 388.236C128.697 378.662 131.248 368.278 131.452 368.186C131.83 368.017 159.649 377.295 163.221 378.317C164.286 378.622 165.764 379.658 166.507 380.621Z" fill="white"/>
<path d="M137.115 369.778L131.452 367.717C128.764 365.314 121.395 405.336 119.9 406.034C119.251 406.336 116.435 404.291 113.643 401.49C107.69 395.517 102.61 394.29 95.141 397.019C85.4326 400.568 80.9796 412.883 86.1548 421.873C90.0904 428.71 95.432 431.328 103.552 430.397C107.275 429.971 110.571 430.156 110.876 430.808C111.578 432.315 96.1465 460.79 95.5648 462.314L93.4562 466.223C92.2272 466.968 99.8111 468.833 108.389 473.314C130.077 484.644 135.832 485.075 133.788 475.219C130.365 458.721 148.552 449.351 159.962 461.732C161.602 463.513 163.132 466.271 163.359 467.863C164.038 472.601 160.677 479.831 156.124 483.424C152.247 486.483 151.974 487.034 153.118 489.486C154.581 492.625 158.092 493.94 175.663 497.93C183.445 499.698 191.763 502.634 192.165 503.569C193.441 504.746 200.964 464.696 202.349 464.05M133.214 368.186C133.508 368.816 139.004 370.488 145.427 371.901C169.203 377.135 173.888 380.514 165.996 386.742C155.721 394.85 157.367 408.765 169.108 413.038C180.889 417.325 191.056 407.71 188.381 394.811C187.378 389.976 187.522 389.379 189.975 388.236C193.115 386.772 196.649 388.021 212.674 396.257C219.772 399.904 230.711 404.318 229.453 403.86C228.137 404.474 214.833 428.684 212.508 434.888C210.473 440.322 211.169 440.812 219.466 439.79C239.536 437.316 245.963 466.18 226.895 473.148C219.561 475.828 213.771 474.382 208.167 468.469C205.589 465.749 202.971 463.761 202.349 464.05M202.349 464.05C205.411 462.26 206.031 461.527 209.881 466.342C213.72 471.148 217.366 472.663 223.257 471.904C234.806 470.416 240.292 455.345 232.402 446.782C228.377 442.415 224.61 441.233 218.579 442.446C212.535 443.661 210.434 443.044 209.239 439.705C208.379 437.304 213.42 425.922 222.659 409.406L226.895 403.86L213.117 399.25C206.592 395.943 199.653 392.354 197.694 391.275C191.881 388.07 188.741 388.677 189.975 394.811C192.628 407.999 182.909 419.203 170.131 415.858C164.892 414.486 163.097 413.331 160.406 409.599C154.466 401.365 155.715 391.952 163.57 385.753C167.12 382.952 167.625 382.07 166.507 380.621C165.764 379.658 164.286 378.622 163.221 378.317C159.649 377.295 131.83 368.017 131.452 368.186C131.248 368.278 128.697 378.662 126.5 388.236C122.79 404.406 123.317 406.629 120.687 407.856C118.056 409.082 117.536 408.838 113.341 404.413C107.986 398.763 104.88 397.443 98.7869 398.228C94.4373 398.788 88.3971 403.781 86.817 408.122C85.3815 412.065 87.0525 420.366 89.9046 423.462C93.8457 427.739 97.1763 428.717 104.813 427.841C110.85 427.15 111.431 427.303 112.643 429.903C113.815 432.418 113.3 434.009 107.715 445.123C104.286 451.949 100.531 459.186 99.3709 461.207L95.5648 466.223L109.097 470.877C115.606 474.176 122.533 477.759 124.492 478.838C130.43 482.112 132.599 480.702 131.294 474.417C128.273 459.849 142.109 449.154 155.674 455.572C160.656 457.93 162.104 459.444 164.189 464.478C167.253 471.87 163.226 477.732 156.67 482.971C151.67 486.965 154.469 490.753 161.626 492.316C164.167 492.872 171.79 494.576 178.566 496.106L193.436 500.5L195.062 494C198.598 475.435 200.148 465.337 202.349 464.05Z" stroke="black" stroke-width="3"/>
<path fill-rule="evenodd" clip-rule="evenodd" d="M449.376 181.75C450.922 182.728 450.749 183.73 448.371 187.577C443.11 196.087 445.155 205.36 453.552 211.067C457.358 213.654 459.439 214.125 464.832 213.623C477.983 212.396 483.285 198.544 476.282 187.058C473.024 181.716 475.767 180.072 482.326 181.096C484.536 181.44 492.284 182.439 499.546 183.316L514.071 182.936L511.986 189.596C508.953 208.276 508.108 220.695 509.737 222.658C512.001 225.387 514.187 225.248 519.451 222.04C524.704 218.837 528.648 218.66 533.923 221.388C544.266 226.735 544.265 242.774 533.921 248.122C528.645 250.849 524.701 250.672 519.449 247.47C514.185 244.261 513.853 245.162 511.588 247.891C509.96 249.853 511.956 259.873 514.982 278.527L515.035 288.3L500.201 286.147C493.311 287.027 485.564 288.033 482.986 288.379C475.726 289.358 471.801 286.756 475.133 281.293C479.502 274.128 481.282 267.242 475.875 261.343C472.194 257.326 470.315 256.398 464.828 255.886C449.886 254.494 440.541 269.276 448.362 281.932C451.737 287.393 450.181 289.459 443.482 288.413C441.272 288.069 433.537 287.071 426.293 286.197L411.985 286.451L413.846 280.435C414.245 278.14 415.299 270.056 416.187 262.468C417.634 250.114 417.574 248.443 415.613 246.48C413.584 244.451 412.987 244.506 407.55 247.22C400.673 250.655 397.209 250.875 392.043 248.203C388.304 246.27 383.895 239.041 383.895 234.844C383.896 230.225 387.864 223.467 391.76 221.453C397.217 218.632 400.588 218.81 407.552 222.289C413.007 225.012 413.579 225.063 415.632 223.012C417.684 220.959 416.428 219.05 414.385 202.586C413.175 192.838 412.021 182.209 412.182 182.052C412.479 181.764 441.794 180.969 445.5 180.708C446.605 180.63 448.349 181.099 449.376 181.75Z" fill="black"/>
<path d="M418.048 181.612H412.022C408.674 180.273 415.436 220.402 414.269 221.568C413.763 222.074 410.418 221.116 406.836 219.438C399.199 215.862 394.006 216.445 387.92 221.564C380.011 228.219 380.038 241.314 387.976 247.993C394.012 253.072 399.927 253.705 407.239 250.054C410.592 248.38 413.753 247.427 414.261 247.936C415.437 249.111 410.673 281.146 410.648 282.777L410.003 287.172C409.103 288.292 416.868 287.452 426.461 288.729C450.715 291.959 456.271 290.396 450.98 281.833C442.122 267.501 456.007 252.476 470.963 260.209C473.114 261.321 475.494 263.39 476.252 264.808C478.511 269.029 477.825 276.971 474.775 281.906C472.178 286.106 472.11 286.716 474.023 288.63C476.472 291.079 480.22 291.114 498.097 288.855C506.014 287.855 514.834 287.769 515.532 288.511C517.134 289.18 510.507 248.972 511.588 247.891M413.838 181.45C414.329 181.941 420.066 181.633 426.585 180.764C450.718 177.552 456.275 179.125 450.989 187.676C444.106 198.81 450.412 211.322 462.906 211.322C475.443 211.322 481.709 198.81 474.784 187.604C472.188 183.403 472.119 182.793 474.033 180.879C476.483 178.43 480.231 178.395 498.107 180.654C506.024 181.655 517.813 182.062 516.474 182.062C515.447 183.089 511.225 210.388 511.161 217.013C511.107 222.816 511.929 223.038 519.377 219.24C537.39 210.052 553.301 234.978 537.766 248.047C531.79 253.073 525.855 253.694 518.566 250.054C515.213 248.38 512.073 247.407 511.588 247.891M511.588 247.891C513.853 245.162 514.185 244.261 519.449 247.47C524.701 250.672 528.645 250.849 533.921 248.122C544.265 242.774 544.266 226.735 533.923 221.388C528.648 218.66 524.704 218.837 519.451 222.04C514.187 225.248 512.001 225.387 509.737 222.658C508.108 220.695 508.953 208.276 511.986 189.596L514.071 182.936L499.546 183.316C492.284 182.439 484.536 181.44 482.326 181.096C475.767 180.072 473.024 181.716 476.282 187.058C483.285 198.544 477.983 212.396 464.832 213.623C459.439 214.125 457.358 213.654 453.552 211.067C445.155 205.36 443.11 196.087 448.371 187.577C450.749 183.73 450.922 182.728 449.376 181.75C448.349 181.099 446.605 180.63 445.5 180.708C441.794 180.969 412.479 181.764 412.182 182.052C412.021 182.209 413.175 192.838 414.385 202.586C416.428 219.05 417.684 220.959 415.632 223.012C413.579 225.063 413.007 225.012 407.552 222.289C400.588 218.81 397.217 218.632 391.76 221.453C387.864 223.467 383.896 230.225 383.895 234.844C383.895 239.041 388.304 246.27 392.043 248.203C397.209 250.875 400.673 250.655 407.55 247.221C412.987 244.506 413.584 244.451 415.613 246.48C417.574 248.443 417.634 250.114 416.187 262.468C415.299 270.056 414.245 278.14 413.846 280.435L411.985 286.451L426.293 286.197C433.537 287.071 441.272 288.069 443.482 288.413C450.181 289.459 451.737 287.393 448.362 281.932C440.541 269.276 449.886 254.494 464.828 255.886C470.315 256.398 472.194 257.326 475.875 261.343C481.282 267.242 479.502 274.128 475.133 281.293C471.801 286.756 475.726 289.358 482.986 288.379C485.564 288.033 493.311 287.027 500.201 286.147L515.035 288.3L514.982 278.527C511.956 259.873 509.96 249.853 511.588 247.891Z" stroke="black" stroke-width="3"/>
<path d="M146 373L152.266 354.938C153.656 350.933 152.886 346.494 150.229 343.19V343.19C142.889 334.065 145.79 320.501 156.219 315.176L158.424 314.049C159.136 313.686 159.778 313.2 160.322 312.615L171.704 300.357C176.261 295.45 182.972 293.149 189.582 294.228L193.332 294.84C199.93 295.917 206.699 294.81 212.609 291.688V291.688C223.527 285.92 231 275.248 232.687 263.016L233.326 258.384C233.763 255.22 235.25 252.295 237.549 250.078L248 240" stroke="black" stroke-width="10"/>
<path d="M269.085 240.163C260.2 247.618 248.969 248.86 243.999 242.937C239.029 237.014 242.202 226.169 251.087 218.714C255.121 223.521 255.116 223.515 260.086 229.438C265.056 235.361 265.051 235.355 269.085 240.163Z" fill="black"/>
<rect x="271.85" y="224.789" width="4.15762" height="12.1762" transform="rotate(50 271.85 224.789)" fill="black"/>
<rect x="264.136" y="215.596" width="4.15762" height="12.1762" transform="rotate(50 264.136 215.596)" fill="black"/>
<g filter="url(#filter0_d_1_56)">
<path d="M248 49C248 76.062 211.287 98 166 98C120.713 98 84 76.062 84 49C84 21.9381 120.713 4.98229e-06 166 4.98229e-06C211.287 4.98229e-06 248 21.9381 248 49Z" fill="#EBECED"/>
<path d="M101.845 127.084L120.835 67.0713L151.744 88.7136L101.845 127.084Z" fill="#EBECED"/>
</g>
<circle cx="463" cy="235" r="13.5" fill="white" stroke="black" stroke-width="3"/>
<rect x="457.796" y="229.184" width="1.83673" height="9.18367" fill="black"/>
<rect x="466.367" y="229.184" width="1.83673" height="9.18367" fill="black"/>
<circle cx="462.694" cy="240.204" r="1.83673" fill="black"/>
<path d="M126.207 41.7713V39.8182H139.844V41.7713H134.126V58H131.925V41.7713H126.207ZM145.053 49.7969V58H142.958V39.8182H145.053V46.4943H145.23C145.55 45.79 146.029 45.2307 146.669 44.8164C147.314 44.3962 148.172 44.1861 149.243 44.1861C150.172 44.1861 150.986 44.3725 151.685 44.7454C152.383 45.1123 152.925 45.6776 153.309 46.4411C153.7 47.1986 153.895 48.1634 153.895 49.3352V58H151.8V49.4773C151.8 48.3942 151.519 47.5567 150.957 46.9648C150.4 46.3671 149.628 46.0682 148.639 46.0682C147.953 46.0682 147.337 46.2132 146.793 46.5032C146.254 46.7932 145.828 47.2164 145.514 47.7727C145.207 48.3291 145.053 49.0038 145.053 49.7969ZM161.741 58.3196C160.877 58.3196 160.093 58.1568 159.388 57.8313C158.684 57.4999 158.125 57.0234 157.71 56.402C157.296 55.7746 157.089 55.017 157.089 54.1293C157.089 53.348 157.243 52.7147 157.551 52.2294C157.858 51.7382 158.27 51.3535 158.785 51.0753C159.3 50.7971 159.868 50.59 160.489 50.4538C161.117 50.3118 161.747 50.1993 162.38 50.1165C163.209 50.0099 163.881 49.93 164.395 49.8768C164.916 49.8176 165.295 49.7199 165.532 49.5838C165.774 49.4477 165.896 49.2109 165.896 48.8736V48.8026C165.896 47.9266 165.656 47.246 165.177 46.7607C164.703 46.2753 163.984 46.0327 163.019 46.0327C162.019 46.0327 161.235 46.2517 160.667 46.6896C160.099 47.1276 159.699 47.5952 159.468 48.0923L157.48 47.3821C157.835 46.5535 158.308 45.9084 158.9 45.4467C159.498 44.9792 160.149 44.6536 160.853 44.4702C161.563 44.2808 162.262 44.1861 162.948 44.1861C163.386 44.1861 163.889 44.2393 164.458 44.3459C165.032 44.4465 165.585 44.6566 166.118 44.9762C166.656 45.2958 167.103 45.7782 167.458 46.4233C167.813 47.0684 167.991 47.9325 167.991 49.0156V58H165.896V56.1534H165.789C165.647 56.4493 165.41 56.766 165.079 57.1033C164.748 57.4407 164.307 57.7277 163.756 57.9645C163.206 58.2012 162.534 58.3196 161.741 58.3196ZM162.061 56.4375C162.889 56.4375 163.588 56.2747 164.156 55.9492C164.73 55.6237 165.162 55.2035 165.452 54.6886C165.748 54.1737 165.896 53.6321 165.896 53.0639V51.1463C165.807 51.2528 165.612 51.3505 165.31 51.4393C165.014 51.5221 164.671 51.5961 164.28 51.6612C163.895 51.7204 163.519 51.7737 163.153 51.821C162.791 51.8625 162.499 51.898 162.274 51.9276C161.729 51.9986 161.22 52.114 160.747 52.2738C160.279 52.4277 159.9 52.6615 159.61 52.9751C159.326 53.2829 159.184 53.7031 159.184 54.2358C159.184 54.9638 159.453 55.5142 159.992 55.8871C160.537 56.254 161.226 56.4375 162.061 56.4375ZM173.91 49.7969V58H171.815V44.3636H173.839V46.4943H174.017C174.336 45.8018 174.822 45.2455 175.473 44.8253C176.124 44.3991 176.964 44.1861 177.994 44.1861C178.917 44.1861 179.725 44.3755 180.418 44.7543C181.11 45.1271 181.649 45.6953 182.033 46.4588C182.418 47.2164 182.611 48.1752 182.611 49.3352V58H180.515V49.4773C180.515 48.406 180.237 47.5715 179.681 46.9737C179.124 46.37 178.361 46.0682 177.39 46.0682C176.722 46.0682 176.124 46.2132 175.597 46.5032C175.076 46.7932 174.665 47.2164 174.363 47.7727C174.061 48.3291 173.91 49.0038 173.91 49.7969ZM188.392 53.0284L188.357 50.4361H188.783L194.749 44.3636H197.341L190.985 50.7912H190.807L188.392 53.0284ZM186.439 58V39.8182H188.534V58H186.439ZM195.104 58L189.777 51.2528L191.269 49.7969L197.767 58H195.104ZM209.697 47.4176L207.815 47.9503C207.696 47.6366 207.522 47.3318 207.291 47.0359C207.066 46.734 206.758 46.4854 206.368 46.2901C205.977 46.0948 205.477 45.9972 204.867 45.9972C204.033 45.9972 203.337 46.1895 202.781 46.5742C202.231 46.953 201.955 47.4354 201.955 48.0213C201.955 48.5421 202.145 48.9535 202.524 49.2553C202.902 49.5572 203.494 49.8087 204.299 50.0099L206.323 50.5071C207.542 50.803 208.451 51.2558 209.049 51.8654C209.647 52.4691 209.945 53.2474 209.945 54.2003C209.945 54.9815 209.72 55.6799 209.271 56.2955C208.827 56.911 208.205 57.3963 207.406 57.7514C206.607 58.1065 205.678 58.2841 204.619 58.2841C203.228 58.2841 202.077 57.9822 201.165 57.3786C200.254 56.7749 199.677 55.893 199.434 54.733L201.423 54.2358C201.612 54.9697 201.97 55.5201 202.497 55.8871C203.03 56.254 203.725 56.4375 204.583 56.4375C205.56 56.4375 206.335 56.2304 206.909 55.8161C207.489 55.3958 207.779 54.8928 207.779 54.3068C207.779 53.8333 207.613 53.4368 207.282 53.1172C206.951 52.7917 206.442 52.549 205.755 52.3892L203.482 51.8565C202.234 51.5606 201.316 51.1019 200.73 50.4805C200.15 49.8531 199.86 49.0689 199.86 48.1278C199.86 47.3584 200.076 46.6778 200.508 46.0859C200.946 45.4941 201.541 45.0295 202.293 44.6921C203.05 44.3548 203.908 44.1861 204.867 44.1861C206.217 44.1861 207.276 44.482 208.046 45.0739C208.821 45.6657 209.371 46.447 209.697 47.4176ZM215.869 39.8182L215.692 52.8864H213.632L213.454 39.8182H215.869ZM214.662 58.142C214.224 58.142 213.848 57.9852 213.534 57.6715C213.221 57.3578 213.064 56.982 213.064 56.544C213.064 56.1061 213.221 55.7302 213.534 55.4165C213.848 55.1029 214.224 54.946 214.662 54.946C215.1 54.946 215.476 55.1029 215.789 55.4165C216.103 55.7302 216.26 56.1061 216.26 56.544C216.26 56.834 216.186 57.1004 216.038 57.343C215.896 57.5857 215.703 57.781 215.461 57.929C215.224 58.071 214.958 58.142 214.662 58.142Z" fill="black"/>
<path d="M126.207 41.7713H125.207V42.7713H126.207V41.7713ZM126.207 39.8182V38.8182H125.207V39.8182H126.207ZM139.844 39.8182H140.844V38.8182H139.844V39.8182ZM139.844 41.7713V42.7713H140.844V41.7713H139.844ZM134.126 41.7713V40.7713H133.126V41.7713H134.126ZM134.126 58V59H135.126V58H134.126ZM131.925 58H130.925V59H131.925V58ZM131.925 41.7713H132.925V40.7713H131.925V41.7713ZM127.207 41.7713V39.8182H125.207V41.7713H127.207ZM126.207 40.8182H139.844V38.8182H126.207V40.8182ZM138.844 39.8182V41.7713H140.844V39.8182H138.844ZM139.844 40.7713H134.126V42.7713H139.844V40.7713ZM133.126 41.7713V58H135.126V41.7713H133.126ZM134.126 57H131.925V59H134.126V57ZM132.925 58V41.7713H130.925V58H132.925ZM131.925 40.7713H126.207V42.7713H131.925V40.7713ZM145.053 58V59H146.053V58H145.053ZM142.958 58H141.958V59H142.958V58ZM142.958 39.8182V38.8182H141.958V39.8182H142.958ZM145.053 39.8182H146.053V38.8182H145.053V39.8182ZM145.053 46.4943H144.053V47.4943H145.053V46.4943ZM145.23 46.4943V47.4943H145.875L146.141 46.9075L145.23 46.4943ZM146.669 44.8164L147.212 45.6556L147.214 45.6543L146.669 44.8164ZM151.685 44.7454L151.214 45.6275L151.219 45.6306L151.685 44.7454ZM153.309 46.4411L152.416 46.8911L152.42 46.8993L153.309 46.4411ZM153.895 58V59H154.895V58H153.895ZM151.8 58H150.8V59H151.8V58ZM150.957 46.9648L150.225 47.6462L150.232 47.6536L150.957 46.9648ZM146.793 46.5032L146.323 45.6206L146.319 45.6227L146.793 46.5032ZM145.514 47.7727L144.643 47.2816L144.639 47.2887L145.514 47.7727ZM144.053 49.7969V58H146.053V49.7969H144.053ZM145.053 57H142.958V59H145.053V57ZM143.958 58V39.8182H141.958V58H143.958ZM142.958 40.8182H145.053V38.8182H142.958V40.8182ZM144.053 39.8182V46.4943H146.053V39.8182H144.053ZM145.053 47.4943H145.23V45.4943H145.053V47.4943ZM146.141 46.9075C146.383 46.3745 146.736 45.9642 147.212 45.6556L146.125 43.9773C145.322 44.4972 144.717 45.2055 144.32 46.0811L146.141 46.9075ZM147.214 45.6543C147.645 45.3737 148.293 45.1861 149.243 45.1861V43.1861C148.051 43.1861 146.982 43.4187 146.123 43.9785L147.214 45.6543ZM149.243 45.1861C150.037 45.1861 150.683 45.3445 151.214 45.6275L152.156 43.8632C151.289 43.4006 150.308 43.1861 149.243 43.1861V45.1861ZM151.219 45.6306C151.718 45.8924 152.117 46.2973 152.416 46.891L154.202 45.9911C153.732 45.0579 153.048 44.3322 152.15 43.8601L151.219 45.6306ZM152.42 46.8993C152.716 47.4722 152.895 48.2661 152.895 49.3352H154.895C154.895 48.0606 154.684 46.925 154.198 45.9828L152.42 46.8993ZM152.895 49.3352V58H154.895V49.3352H152.895ZM153.895 57H151.8V59H153.895V57ZM152.8 58V49.4773H150.8V58H152.8ZM152.8 49.4773C152.8 48.2238 152.472 47.108 151.682 46.2761L150.232 47.6536C150.566 48.0054 150.8 48.5645 150.8 49.4773H152.8ZM151.689 46.2836C150.904 45.4405 149.842 45.0682 148.639 45.0682V47.0682C149.413 47.0682 149.896 47.2936 150.225 47.6461L151.689 46.2836ZM148.639 45.0682C147.808 45.0682 147.028 45.2451 146.323 45.6206L147.263 47.3858C147.647 47.1813 148.098 47.0682 148.639 47.0682V45.0682ZM146.319 45.6227C145.606 46.0064 145.046 46.5682 144.643 47.2816L146.386 48.2639C146.611 47.8646 146.902 47.58 147.267 47.3837L146.319 45.6227ZM144.639 47.2887C144.232 48.0255 144.053 48.8757 144.053 49.7969H146.053C146.053 49.1318 146.182 48.6326 146.39 48.2568L144.639 47.2887ZM159.388 57.8313L158.963 58.7362L158.969 58.7391L159.388 57.8313ZM157.71 56.402L156.876 56.9531L156.878 56.9567L157.71 56.402ZM157.551 52.2294L158.395 52.765L158.398 52.7603L157.551 52.2294ZM160.489 50.4538L160.703 51.4307L160.71 51.4291L160.489 50.4538ZM162.38 50.1165L162.253 49.1246L162.25 49.1249L162.38 50.1165ZM164.395 49.8768L164.498 50.8715L164.508 50.8704L164.395 49.8768ZM165.532 49.5838L165.043 48.7116L165.033 48.7169L165.532 49.5838ZM165.177 46.7607L164.461 47.459L164.465 47.4634L165.177 46.7607ZM160.667 46.6896L161.277 47.4816L160.667 46.6896ZM159.468 48.0923L159.132 49.0341L159.991 49.3409L160.375 48.5134L159.468 48.0923ZM157.48 47.3821L156.56 46.9882L156.141 47.966L157.143 48.3238L157.48 47.3821ZM158.9 45.4467L159.515 46.2352L159.516 46.2344L158.9 45.4467ZM160.853 44.4702L161.105 45.4379L161.111 45.4364L160.853 44.4702ZM164.458 44.3459L164.273 45.3288L164.285 45.3309L164.458 44.3459ZM166.118 44.9762L165.603 45.8337L165.607 45.8362L166.118 44.9762ZM167.458 46.4233L166.582 46.9055V46.9055L167.458 46.4233ZM167.991 58V59H168.991V58H167.991ZM165.896 58H164.896V59H165.896V58ZM165.896 56.1534H166.896V55.1534H165.896V56.1534ZM165.789 56.1534V55.1534H165.16L164.888 55.7207L165.789 56.1534ZM165.079 57.1033L165.792 57.8042L165.079 57.1033ZM163.756 57.9645L163.361 57.0459L163.756 57.9645ZM164.156 55.9492L163.662 55.0793L163.659 55.0815L164.156 55.9492ZM165.452 54.6886L164.585 54.1903L164.581 54.1978L165.452 54.6886ZM165.896 51.1463H166.896V48.3842L165.128 50.5061L165.896 51.1463ZM165.31 51.4393L165.579 52.4023L165.592 52.3986L165.31 51.4393ZM164.28 51.6612L164.432 52.6497L164.444 52.6476L164.28 51.6612ZM163.153 51.821L163.267 52.8146L163.28 52.8128L163.153 51.821ZM162.274 51.9276L162.403 52.9192L162.404 52.919L162.274 51.9276ZM160.747 52.2738L161.059 53.2237L161.066 53.2213L160.747 52.2738ZM159.61 52.9751L158.876 52.2963L158.875 52.2969L159.61 52.9751ZM159.992 55.8871L159.423 56.7093L159.433 56.7163L159.992 55.8871ZM161.741 57.3196C161.005 57.3196 160.366 57.1817 159.808 56.9236L158.969 58.7391C159.819 59.132 160.749 59.3196 161.741 59.3196V57.3196ZM159.814 56.9265C159.267 56.6692 158.851 56.3107 158.542 55.8473L156.878 56.9567C157.398 57.7362 158.101 58.3306 158.963 58.7361L159.814 56.9265ZM158.545 55.8509C158.257 55.4148 158.089 54.8572 158.089 54.1293H156.089C156.089 55.1769 156.335 56.1344 156.876 56.9531L158.545 55.8509ZM158.089 54.1293C158.089 53.4716 158.219 53.0422 158.395 52.7649L156.706 51.6939C156.266 52.3872 156.089 53.2244 156.089 54.1293H158.089ZM158.398 52.7603C158.613 52.4171 158.896 52.1519 159.26 51.9551L158.309 50.1955C157.644 50.555 157.104 51.0593 156.703 51.6985L158.398 52.7603ZM159.26 51.9551C159.686 51.725 160.165 51.5485 160.703 51.4307L160.275 49.477C159.57 49.6314 158.913 49.8692 158.309 50.1955L159.26 51.9551ZM160.71 51.4291C161.307 51.2939 161.907 51.1869 162.51 51.108L162.25 49.1249C161.586 49.2118 160.926 49.3297 160.268 49.4785L160.71 51.4291ZM162.508 51.1083C163.332 51.0023 163.995 50.9235 164.498 50.8715L164.293 48.8821C163.766 48.9366 163.085 49.0176 162.253 49.1246L162.508 51.1083ZM164.508 50.8704C165.063 50.8073 165.61 50.6922 166.03 50.4507L165.033 48.7169C164.98 48.7476 164.769 48.8278 164.283 48.8832L164.508 50.8704ZM166.021 50.4559C166.651 50.1025 166.896 49.4817 166.896 48.8736H164.896C164.896 48.9251 164.886 48.9036 164.915 48.8481C164.929 48.8201 164.95 48.7908 164.975 48.7643C165.001 48.738 165.026 48.7212 165.043 48.7117L166.021 50.4559ZM166.896 48.8736V48.8026H164.896V48.8736H166.896ZM166.896 48.8026C166.896 47.7416 166.601 46.7794 165.888 46.0579L164.465 47.4634C164.711 47.7125 164.896 48.1116 164.896 48.8026H166.896ZM165.892 46.0623C165.163 45.3148 164.138 45.0327 163.019 45.0327V47.0327C163.83 47.0327 164.243 47.2359 164.461 47.459L165.892 46.0623ZM163.019 45.0327C161.884 45.0327 160.857 45.2806 160.056 45.8976L161.277 47.4816C161.613 47.2227 162.155 47.0327 163.019 47.0327V45.0327ZM160.056 45.8976C159.399 46.4044 158.877 46.9905 158.561 47.6712L160.375 48.5134C160.521 48.1999 160.798 47.8508 161.277 47.4816L160.056 45.8976ZM159.805 47.1506L157.816 46.4404L157.143 48.3238L159.132 49.0341L159.805 47.1506ZM158.399 47.776C158.701 47.0714 159.081 46.5741 159.515 46.2352L158.285 44.6582C157.536 45.2426 156.969 46.0356 156.56 46.9882L158.399 47.776ZM159.516 46.2344C160.011 45.8474 160.539 45.5854 161.105 45.4379L160.601 43.5025C159.759 43.7219 158.985 44.1109 158.284 44.6591L159.516 46.2344ZM161.111 45.4364C161.743 45.2679 162.355 45.1861 162.948 45.1861V43.1861C162.169 43.1861 161.384 43.2937 160.595 43.5039L161.111 45.4364ZM162.948 45.1861C163.309 45.1861 163.748 45.2302 164.273 45.3288L164.642 43.363C164.031 43.2485 163.464 43.1861 162.948 43.1861V45.1861ZM164.285 45.3309C164.73 45.4089 165.169 45.573 165.603 45.8337L166.632 44.1187C166.001 43.7402 165.333 43.484 164.63 43.3609L164.285 45.3309ZM165.607 45.8362C165.967 46.0499 166.298 46.389 166.582 46.9055L168.334 45.9411C167.908 45.1674 167.345 44.5418 166.628 44.1162L165.607 45.8362ZM166.582 46.9055C166.827 47.3495 166.991 48.0274 166.991 49.0156H168.991C168.991 47.8377 168.8 46.7873 168.334 45.9411L166.582 46.9055ZM166.991 49.0156V58H168.991V49.0156H166.991ZM167.991 57H165.896V59H167.991V57ZM166.896 58V56.1534H164.896V58H166.896ZM165.896 55.1534H165.789V57.1534H165.896V55.1534ZM164.888 55.7207C164.809 55.8843 164.651 56.1121 164.366 56.4025L165.792 57.8042C166.17 57.4199 166.485 57.0144 166.691 56.5861L164.888 55.7207ZM164.366 56.4025C164.146 56.6262 163.823 56.8472 163.361 57.0459L164.151 58.8831C164.79 58.6083 165.349 58.2552 165.792 57.8042L164.366 56.4025ZM163.361 57.0459C162.969 57.2146 162.44 57.3196 161.741 57.3196V59.3196C162.628 59.3196 163.443 59.1879 164.151 58.8831L163.361 57.0459ZM162.061 57.4375C163.018 57.4375 163.898 57.2493 164.653 56.8169L163.659 55.0815C163.277 55.3002 162.76 55.4375 162.061 55.4375V57.4375ZM164.649 56.8191C165.362 56.4147 165.934 55.8706 166.323 55.1793L164.581 54.1978C164.39 54.5364 164.097 54.8327 163.662 55.0793L164.649 56.8191ZM166.319 55.1868C166.698 54.5275 166.896 53.815 166.896 53.0639H164.896C164.896 53.4492 164.798 53.8198 164.585 54.1903L166.319 55.1868ZM166.896 53.0639V51.1463H164.896V53.0639H166.896ZM165.128 50.5061C165.171 50.4536 165.21 50.4241 165.226 50.4125C165.242 50.4005 165.248 50.3988 165.235 50.405C165.224 50.4109 165.201 50.4212 165.165 50.4347C165.129 50.4481 165.084 50.4633 165.028 50.4799L165.592 52.3986C165.777 52.3442 165.962 52.278 166.13 52.1939C166.288 52.1149 166.495 51.9891 166.664 51.7865L165.128 50.5061ZM165.04 50.4763C164.787 50.5472 164.48 50.614 164.116 50.6748L164.444 52.6476C164.861 52.5782 165.241 52.4971 165.579 52.4022L165.04 50.4763ZM164.128 50.6728C163.751 50.7309 163.383 50.783 163.025 50.8292L163.28 52.8128C163.656 52.7644 164.04 52.7099 164.432 52.6496L164.128 50.6728ZM163.039 50.8275C162.675 50.8693 162.376 50.9055 162.143 50.9361L162.404 52.919C162.621 52.8904 162.908 52.8556 163.267 52.8145L163.039 50.8275ZM162.144 50.936C161.541 51.0146 160.968 51.1437 160.427 51.3263L161.066 53.2213C161.472 53.0843 161.917 52.9826 162.403 52.9192L162.144 50.936ZM160.434 51.3239C159.83 51.5227 159.298 51.8401 158.876 52.2963L160.345 53.654C160.503 53.4828 160.728 53.3326 161.059 53.2237L160.434 51.3239ZM158.875 52.2969C158.378 52.8356 158.184 53.5226 158.184 54.2358H160.184C160.184 53.8836 160.274 53.7303 160.345 53.6534L158.875 52.2969ZM158.184 54.2358C158.184 55.2493 158.581 56.1266 159.423 56.7093L160.561 55.0649C160.326 54.9018 160.184 54.6783 160.184 54.2358H158.184ZM159.433 56.7163C160.182 57.2213 161.081 57.4375 162.061 57.4375V55.4375C161.371 55.4375 160.891 55.2868 160.551 55.0578L159.433 56.7163ZM173.91 58V59H174.91V58H173.91ZM171.815 58H170.815V59H171.815V58ZM171.815 44.3636V43.3636H170.815V44.3636H171.815ZM173.839 44.3636H174.839V43.3636H173.839V44.3636ZM173.839 46.4943H172.839V47.4943H173.839V46.4943ZM174.017 46.4943V47.4943H174.657L174.925 46.9134L174.017 46.4943ZM175.473 44.8253L176.015 45.6655L176.02 45.662L175.473 44.8253ZM180.418 44.7543L179.938 45.6316L179.944 45.6347L180.418 44.7543ZM182.033 46.4588L181.14 46.9088L181.142 46.9116L182.033 46.4588ZM182.611 58V59H183.611V58H182.611ZM180.515 58H179.515V59H180.515V58ZM179.681 46.9737L178.945 47.6514L178.949 47.655L179.681 46.9737ZM175.597 46.5032L175.115 45.6272L175.111 45.6295L175.597 46.5032ZM174.363 47.7727L173.484 47.2958L174.363 47.7727ZM172.91 49.7969V58H174.91V49.7969H172.91ZM173.91 57H171.815V59H173.91V57ZM172.815 58V44.3636H170.815V58H172.815ZM171.815 45.3636H173.839V43.3636H171.815V45.3636ZM172.839 44.3636V46.4943H174.839V44.3636H172.839ZM173.839 47.4943H174.017V45.4943H173.839V47.4943ZM174.925 46.9134C175.164 46.396 175.521 45.9846 176.015 45.6655L174.93 43.9851C174.123 44.5064 173.509 45.2077 173.109 46.0753L174.925 46.9134ZM176.02 45.662C176.464 45.3718 177.097 45.1861 177.994 45.1861V43.1861C176.831 43.1861 175.784 43.4265 174.925 43.9886L176.02 45.662ZM177.994 45.1861C178.778 45.1861 179.416 45.346 179.938 45.6316L180.898 43.8769C180.035 43.405 179.056 43.1861 177.994 43.1861V45.1861ZM179.944 45.6347C180.44 45.9019 180.84 46.3116 181.14 46.9088L182.927 46.0088C182.458 45.079 181.781 44.3524 180.892 43.8738L179.944 45.6347ZM181.142 46.9116C181.434 47.4872 181.611 48.278 181.611 49.3352H183.611C183.611 48.0724 183.402 46.9456 182.925 46.006L181.142 46.9116ZM181.611 49.3352V58H183.611V49.3352H181.611ZM182.611 57H180.515V59H182.611V57ZM181.515 58V49.4773H179.515V58H181.515ZM181.515 49.4773C181.515 48.2342 181.19 47.1271 180.413 46.2924L178.949 47.655C179.285 48.0159 179.515 48.5778 179.515 49.4773H181.515ZM180.416 46.296C179.636 45.4494 178.585 45.0682 177.39 45.0682V47.0682C178.137 47.0682 178.613 47.2907 178.945 47.6514L180.416 46.296ZM177.39 45.0682C176.572 45.0682 175.805 45.247 175.115 45.6272L176.079 47.3792C176.442 47.1794 176.871 47.0682 177.39 47.0682V45.0682ZM175.111 45.6295C174.413 46.0176 173.871 46.5834 173.484 47.2958L175.242 48.2496C175.459 47.8493 175.739 47.5688 176.084 47.3769L175.111 45.6295ZM173.484 47.2958C173.085 48.0311 172.91 48.8786 172.91 49.7969H174.91C174.91 49.129 175.037 48.627 175.242 48.2496L173.484 47.2958ZM188.392 53.0284L187.392 53.0421L187.423 55.2895L189.072 53.762L188.392 53.0284ZM188.357 50.4361V49.4361H187.343L187.357 50.4498L188.357 50.4361ZM188.783 50.4361V51.4361H189.202L189.496 51.1369L188.783 50.4361ZM194.749 44.3636V43.3636H194.329L194.035 43.6628L194.749 44.3636ZM197.341 44.3636L198.052 45.0668L199.736 43.3636H197.341V44.3636ZM190.985 50.7912V51.7912H191.402L191.696 51.4944L190.985 50.7912ZM190.807 50.7912V49.7912H190.415L190.127 50.0576L190.807 50.7912ZM186.439 58H185.439V59H186.439V58ZM186.439 39.8182V38.8182H185.439V39.8182H186.439ZM188.534 39.8182H189.534V38.8182H188.534V39.8182ZM188.534 58V59H189.534V58H188.534ZM195.104 58L194.319 58.6196L194.619 59H195.104V58ZM189.777 51.2528L189.079 50.5373L188.435 51.166L188.992 51.8725L189.777 51.2528ZM191.269 49.7969L192.052 49.1759L191.364 48.3065L190.57 49.0813L191.269 49.7969ZM197.767 58V59H199.835L198.551 57.379L197.767 58ZM189.392 53.0147L189.357 50.4224L187.357 50.4498L187.392 53.0421L189.392 53.0147ZM188.357 51.4361H188.783V49.4361H188.357V51.4361ZM189.496 51.1369L195.462 45.0645L194.035 43.6628L188.07 49.7353L189.496 51.1369ZM194.749 45.3636H197.341V43.3636H194.749V45.3636ZM196.63 43.6605L190.274 50.088L191.696 51.4944L198.052 45.0668L196.63 43.6605ZM190.985 49.7912H190.807V51.7912H190.985V49.7912ZM190.127 50.0576L187.713 52.2948L189.072 53.762L191.487 51.5248L190.127 50.0576ZM187.439 58V39.8182H185.439V58H187.439ZM186.439 40.8182H188.534V38.8182H186.439V40.8182ZM187.534 39.8182V58H189.534V39.8182H187.534ZM188.534 57H186.439V59H188.534V57ZM195.889 57.3804L190.562 50.6332L188.992 51.8725L194.319 58.6196L195.889 57.3804ZM190.476 51.9684L191.967 50.5124L190.57 49.0813L189.079 50.5373L190.476 51.9684ZM190.485 50.4178L196.983 58.621L198.551 57.379L192.052 49.1759L190.485 50.4178ZM197.767 57H195.104V59H197.767V57ZM209.697 47.4176L209.969 48.3798L210.978 48.0942L210.645 47.0997L209.697 47.4176ZM207.815 47.9503L206.879 48.3033L207.203 49.1626L208.087 48.9125L207.815 47.9503ZM207.291 47.0359L206.489 47.6333L206.496 47.6422L206.502 47.6509L207.291 47.0359ZM206.368 46.2901L206.815 45.3957V45.3957L206.368 46.2901ZM202.781 46.5742L203.348 47.398L203.35 47.3967L202.781 46.5742ZM202.524 49.2553L201.9 50.0374L202.524 49.2553ZM204.299 50.0099L204.057 50.9801L204.061 50.9811L204.299 50.0099ZM206.323 50.5071L206.085 51.4782L206.087 51.4789L206.323 50.5071ZM209.049 51.8654L208.335 52.5656L208.338 52.569L209.049 51.8654ZM209.271 56.2955L208.463 55.7054L208.46 55.7105L209.271 56.2955ZM201.165 57.3786L201.717 56.5448L201.165 57.3786ZM199.434 54.733L199.192 53.7628L198.258 53.9961L198.455 54.9377L199.434 54.733ZM201.423 54.2358L202.391 53.9859L202.143 53.0249L201.18 53.2657L201.423 54.2358ZM202.497 55.8871L201.925 56.7076L201.93 56.7106L202.497 55.8871ZM206.909 55.8161L207.494 56.627L207.496 56.6259L206.909 55.8161ZM207.282 53.1172L206.581 53.8307L206.588 53.837L207.282 53.1172ZM205.755 52.3892L205.527 53.3628L205.528 53.3632L205.755 52.3892ZM203.482 51.8565L203.252 52.8296L203.254 52.8302L203.482 51.8565ZM200.73 50.4805L199.996 51.1594L200.003 51.1665L200.73 50.4805ZM200.508 46.0859L199.704 45.4911L199.701 45.4963L200.508 46.0859ZM202.293 44.6921L201.886 43.7786L201.883 43.7798L202.293 44.6921ZM208.046 45.0739L207.436 45.8665L207.439 45.8687L208.046 45.0739ZM209.424 46.4554L207.542 46.9881L208.087 48.9125L209.969 48.3798L209.424 46.4554ZM208.75 47.5972C208.592 47.1788 208.365 46.7868 208.079 46.4208L206.502 47.6509C206.679 47.8768 206.8 48.0944 206.879 48.3033L208.75 47.5972ZM208.093 46.4384C207.761 45.9925 207.323 45.6497 206.815 45.3957L205.92 47.1846C206.194 47.3212 206.371 47.4755 206.489 47.6333L208.093 46.4384ZM206.815 45.3957C206.242 45.1091 205.574 44.9972 204.867 44.9972V46.9972C205.379 46.9972 205.712 47.0806 205.92 47.1846L206.815 45.3957ZM204.867 44.9972C203.878 44.9972 202.971 45.2269 202.212 45.7517L203.35 47.3967C203.703 47.1522 204.188 46.9972 204.867 46.9972V44.9972ZM202.214 45.7504C201.437 46.2854 200.955 47.056 200.955 48.0213H202.955C202.955 47.8147 203.024 47.6206 203.348 47.398L202.214 45.7504ZM200.955 48.0213C200.955 48.8202 201.264 49.53 201.9 50.0374L203.147 48.4733C203.026 48.377 202.955 48.264 202.955 48.0213H200.955ZM201.9 50.0374C202.444 50.4706 203.198 50.7655 204.057 50.9801L204.542 49.0398C203.79 48.852 203.361 48.6438 203.147 48.4733L201.9 50.0374ZM204.061 50.9811L206.085 51.4782L206.562 49.536L204.538 49.0388L204.061 50.9811ZM206.087 51.4789C207.205 51.7502 207.916 52.138 208.335 52.5656L209.763 51.1653C208.986 50.3736 207.88 49.8559 206.559 49.5353L206.087 51.4789ZM208.338 52.569C208.727 52.962 208.945 53.476 208.945 54.2003H210.945C210.945 53.0188 210.566 51.9762 209.759 51.1618L208.338 52.569ZM208.945 54.2003C208.945 54.775 208.785 55.2657 208.463 55.7054L210.078 56.8855C210.656 56.0942 210.945 55.188 210.945 54.2003H208.945ZM208.46 55.7105C208.134 56.1619 207.662 56.5433 207 56.8376L207.812 58.6652C208.748 58.2493 209.519 57.6601 210.082 56.8804L208.46 55.7105ZM207 56.8376C206.353 57.1252 205.567 57.2841 204.619 57.2841V59.2841C205.789 59.2841 206.862 59.0879 207.812 58.6652L207 56.8376ZM204.619 57.2841C203.371 57.2841 202.426 57.014 201.717 56.5448L200.613 58.2123C201.728 58.9505 203.085 59.2841 204.619 59.2841V57.2841ZM201.717 56.5448C201.045 56.0994 200.607 55.4545 200.413 54.5282L198.455 54.9377C198.747 56.3315 199.463 57.4503 200.613 58.2123L201.717 56.5448ZM199.677 55.7031L201.665 55.2059L201.18 53.2657L199.192 53.7628L199.677 55.7031ZM200.454 54.4857C200.692 55.4071 201.168 56.1801 201.925 56.7076L203.068 55.0665C202.772 54.8602 202.532 54.5323 202.391 53.9859L200.454 54.4857ZM201.93 56.7106C202.676 57.2246 203.588 57.4375 204.583 57.4375V55.4375C203.862 55.4375 203.383 55.2834 203.064 55.0636L201.93 56.7106ZM204.583 57.4375C205.692 57.4375 206.696 57.203 207.494 56.627L206.324 55.0052C205.974 55.2577 205.428 55.4375 204.583 55.4375V57.4375ZM207.496 56.6259C208.271 56.0646 208.779 55.2859 208.779 54.3068H206.779C206.779 54.4996 206.708 54.7271 206.322 55.0062L207.496 56.6259ZM208.779 54.3068C208.779 53.5705 208.509 52.9113 207.976 52.3973L206.588 53.837C206.718 53.9622 206.779 54.0962 206.779 54.3068H208.779ZM207.983 52.4037C207.469 51.8993 206.762 51.5967 205.982 51.4152L205.528 53.3632C206.122 53.5013 206.432 53.684 206.581 53.8306L207.983 52.4037ZM205.983 51.4156L203.711 50.8829L203.254 52.8302L205.527 53.3628L205.983 51.4156ZM203.713 50.8835C202.565 50.6114 201.858 50.219 201.458 49.7945L200.003 51.1665C200.774 51.9848 201.902 52.5098 203.252 52.8296L203.713 50.8835ZM201.464 49.8016C201.073 49.3784 200.86 48.8449 200.86 48.1278H198.86C198.86 49.2929 199.227 50.3278 199.996 51.1593L201.464 49.8016ZM200.86 48.1278C200.86 47.5591 201.015 47.0873 201.316 46.6755L199.701 45.4963C199.137 46.2683 198.86 47.1578 198.86 48.1278H200.86ZM201.312 46.6808C201.636 46.2426 202.088 45.8801 202.702 45.6044L201.883 43.7798C200.994 44.1789 200.256 44.7455 199.704 45.4911L201.312 46.6808ZM202.7 45.6056C203.311 45.3335 204.027 45.1861 204.867 45.1861V43.1861C203.79 43.1861 202.79 43.376 201.886 43.7786L202.7 45.6056ZM204.867 45.1861C206.081 45.1861 206.898 45.4528 207.436 45.8665L208.655 44.2812C207.654 43.5112 206.353 43.1861 204.867 43.1861V45.1861ZM207.439 45.8687C208.047 46.3331 208.483 46.9445 208.749 47.7356L210.645 47.0997C210.259 45.9494 209.595 44.9983 208.652 44.279L207.439 45.8687ZM215.869 39.8182L216.869 39.8318L216.883 38.8182H215.869V39.8182ZM215.692 52.8864V53.8864H216.678L216.691 52.8999L215.692 52.8864ZM213.632 52.8864L212.632 52.8999L212.645 53.8864H213.632V52.8864ZM213.454 39.8182V38.8182H212.441L212.454 39.8318L213.454 39.8182ZM213.534 57.6715L214.241 56.9644L213.534 57.6715ZM215.789 55.4165L216.496 54.7094L215.789 55.4165ZM216.038 57.343L215.184 56.8224L215.179 56.8301L215.175 56.8379L216.038 57.343ZM215.461 57.929L215.975 58.7865L215.981 58.7828L215.461 57.929ZM214.869 39.8046L214.692 52.8728L216.691 52.8999L216.869 39.8318L214.869 39.8046ZM215.692 51.8864H213.632V53.8864H215.692V51.8864ZM214.632 52.8728L214.454 39.8046L212.454 39.8318L212.632 52.8999L214.632 52.8728ZM213.454 40.8182H215.869V38.8182H213.454V40.8182ZM214.662 57.142C214.493 57.142 214.37 57.0933 214.241 56.9644L212.827 58.3786C213.326 58.8771 213.955 59.142 214.662 59.142V57.142ZM214.241 56.9644C214.113 56.8356 214.064 56.713 214.064 56.544H212.064C212.064 57.251 212.329 57.8801 212.827 58.3786L214.241 56.9644ZM214.064 56.544C214.064 56.3751 214.113 56.2525 214.241 56.1237L212.827 54.7094C212.329 55.2079 212.064 55.837 212.064 56.544H214.064ZM214.241 56.1237C214.37 55.9948 214.493 55.946 214.662 55.946V53.946C213.955 53.946 213.326 54.2109 212.827 54.7094L214.241 56.1237ZM214.662 55.946C214.831 55.946 214.953 55.9948 215.082 56.1237L216.496 54.7094C215.998 54.2109 215.369 53.946 214.662 53.946V55.946ZM215.082 56.1237C215.211 56.2525 215.26 56.3751 215.26 56.544H217.26C217.26 55.837 216.995 55.2079 216.496 54.7094L215.082 56.1237ZM215.26 56.544C215.26 56.6543 215.234 56.7399 215.184 56.8224L216.892 57.8636C217.137 57.4608 217.26 57.0138 217.26 56.544H215.26ZM215.175 56.8379C215.117 56.9362 215.043 57.0123 214.94 57.0752L215.981 58.7828C216.364 58.5497 216.674 58.2352 216.901 57.8482L215.175 56.8379ZM214.946 57.0715C214.876 57.1136 214.79 57.142 214.662 57.142V59.142C215.125 59.142 215.572 59.0285 215.975 58.7865L214.946 57.0715Z" fill="black"/>
<defs>
<filter id="filter0_d_1_56" x="80" y="0" width="172" height="135.084" filterUnits="userSpaceOnUse" color-interpolation-filters="sRGB">
<feFlood flood-opacity="0" result="BackgroundImageFix"/>
<feColorMatrix in="SourceAlpha" type="matrix" values="0 0 0 0 0 0 0 0 0 0 0 0 0 0 0 0 0 0 127 0" result="hardAlpha"/>
<feOffset dy="4"/>
<feGaussianBlur stdDeviation="2"/>
<feComposite in2="hardAlpha" operator="out"/>
<feColorMatrix type="matrix" values="0 0 0 0 0 0 0 0 0 0 0 0 0 0 0 0 0 0 0.25 0"/>
<feBlend mode="normal" in2="BackgroundImageFix" result="effect1_dropShadow_1_56"/>
<feBlend mode="normal" in="SourceGraphic" in2="effect1_dropShadow_1_56" result="shape"/>
</filter>
</defs>
</svg>
