<svg width="609" height="497" viewBox="0 0 609 497" fill="none" xmlns="http://www.w3.org/2000/svg">
<path d="M16.3015 389.499V427.634C16.3015 430.078 18.2779 432.059 20.7159 432.059H24.2619C26.4601 432.059 28.2421 430.273 28.2421 428.069V354.652C28.2421 349.511 32.4001 345.342 37.5292 345.342C43.3911 345.342 48.1431 350.106 48.1431 355.982V444.562C48.1431 446.618 49.8063 448.286 51.8579 448.286H55.3074C58.2383 448.286 60.6143 445.904 60.6143 442.966V378.593C60.6143 374.479 63.9407 371.145 68.044 371.145C71.7077 371.145 74.6777 374.122 74.6777 377.795V444.187C74.6777 451.267 70.2278 457.58 63.5702 459.943C62.487 460.328 61.367 460.599 60.2282 460.753L52.742 461.763C50.1084 462.119 48.1431 464.372 48.1431 467.036V490.58C48.1431 492.049 46.9551 493.24 45.4896 493.24H30.8955C29.4301 493.24 28.2421 492.049 28.2421 490.58V450.148C28.2421 447.209 25.8661 444.828 22.9352 444.828H18.6454C14.4333 444.828 8.53324 445.716 5.60102 442.685C3.09731 440.097 3.56492 434.033 3.56492 430.428V390.031C3.56492 386.358 6.5349 383.381 10.1986 383.381C13.5691 383.381 16.3015 386.12 16.3015 389.499Z" fill="#597B73"/>
<path d="M10.1986 383.381V383.381C6.5349 383.381 3.56492 386.351 3.56492 390.014V436.049L3.56492 436.336C3.56492 441.026 7.3665 444.828 12.056 444.828V444.828M10.1986 383.381C6.5349 383.381 3.56492 386.358 3.56492 390.031V430.428C3.56492 434.033 3.09731 440.097 5.60102 442.685C8.53324 445.716 14.4333 444.828 18.6454 444.828H22.9352C25.8661 444.828 28.2421 447.209 28.2421 450.148V490.58C28.2421 492.049 29.4301 493.24 30.8955 493.24H45.4896C46.9551 493.24 48.1431 492.049 48.1431 490.58V467.036C48.1431 464.372 50.1084 462.119 52.742 461.763L60.2282 460.753C61.367 460.599 62.487 460.328 63.5702 459.943C70.2278 457.58 74.6777 451.267 74.6777 444.187V377.795C74.6777 374.122 71.7077 371.145 68.044 371.145M10.1986 383.381C13.5691 383.381 16.3015 386.12 16.3015 389.499V427.634C16.3015 430.078 18.2779 432.059 20.7159 432.059H24.2619C26.4601 432.059 28.2421 430.273 28.2421 428.069V354.652C28.2421 349.511 32.4001 345.342 37.5292 345.342C43.3911 345.342 48.1431 350.106 48.1431 355.982V444.562C48.1431 446.618 49.8063 448.286 51.8579 448.286H55.3074C58.2383 448.286 60.6143 445.904 60.6143 442.966V378.593C60.6143 374.479 63.9407 371.145 68.044 371.145M68.044 371.145V371.145C71.7077 371.145 74.6777 374.115 74.6777 377.778V442.484C74.6777 450.586 69.5763 457.811 61.9411 460.522V460.522" stroke="black" stroke-width="6"/>
<path d="M24.0343 366.19L6.19435 361.751C4.92318 361.434 3.98197 360.357 3.83465 359.049L3.00939 351.725C2.912 350.861 3.5849 350.104 4.45054 350.104C5.10897 350.104 5.68478 350.549 5.85285 351.189L7.28739 356.649L23.6582 359.94L24.3195 348.613C24.2563 347.217 24.8115 345.865 25.8357 344.92L27.0833 343.769C27.5618 343.328 27.944 342.791 28.2058 342.194L31.4634 334.761C31.8597 333.857 33.0848 333.73 33.6564 334.534C33.8774 334.844 34.5453 334.96 35.3144 335.026C35.5348 335.045 35.7437 335.06 35.941 335.071C37.507 335.159 39.0989 335.156 40.6654 335.076C40.8916 335.064 41.1322 335.048 41.3864 335.026C42.1555 334.96 42.8234 334.844 43.0444 334.534C43.616 333.73 44.8411 333.857 45.2374 334.761L48.495 342.194C48.7568 342.791 49.139 343.328 49.6175 343.769L50.8651 344.92C51.8893 345.865 52.4445 347.217 52.3813 348.613L53.0426 359.94L69.4134 356.649L70.8479 351.189C71.016 350.549 71.5918 350.104 72.2503 350.104C73.1159 350.104 73.7888 350.861 73.6914 351.725L72.8661 359.049C72.7188 360.357 71.7776 361.434 70.5065 361.751L52.6665 366.19C52.5434 366.221 52.4169 366.236 52.29 366.236H24.4108C24.2839 366.236 24.1574 366.221 24.0343 366.19Z" fill="#A35030"/>
<path d="M7.28739 356.649L5.85285 351.189C5.68478 350.549 5.10897 350.104 4.45054 350.104C3.5849 350.104 2.912 350.861 3.00939 351.725L3.83465 359.049C3.98197 360.357 4.92318 361.434 6.19435 361.751L24.0343 366.19C24.1574 366.221 24.2839 366.236 24.4108 366.236H52.29C52.4169 366.236 52.5434 366.221 52.6665 366.19L70.5065 361.751C71.7776 361.434 72.7188 360.357 72.8661 359.049L73.6914 351.725C73.7888 350.861 73.1159 350.104 72.2503 350.104C71.5918 350.104 71.016 350.549 70.8479 351.189L69.4134 356.649M7.28739 356.649L6.92847 356.663L6.85 356.635L7.28739 356.649ZM7.28739 356.649L23.6582 359.94L24.3195 348.613C24.2563 347.217 24.8115 345.865 25.8357 344.92L27.0833 343.769C27.5618 343.328 27.944 342.791 28.2058 342.194L31.4634 334.761C31.8597 333.857 33.0848 333.73 33.6564 334.534C33.8774 334.844 34.5453 334.96 35.3144 335.026C35.5348 335.045 35.7437 335.06 35.941 335.071C37.507 335.159 39.0989 335.156 40.6654 335.076C40.8916 335.064 41.1322 335.048 41.3864 335.026C42.1555 334.96 42.8234 334.844 43.0444 334.534C43.616 333.73 44.8411 333.857 45.2374 334.761L48.495 342.194C48.7568 342.791 49.139 343.328 49.6175 343.769L50.8651 344.92C51.8893 345.865 52.4445 347.217 52.3813 348.613L53.0426 359.94L69.4134 356.649M69.4134 356.649L69.0469 356.663L69.1254 356.635L69.4134 356.649Z" stroke="black" stroke-width="6"/>
<path d="M268.771 389.157V427.292C268.771 429.736 270.748 431.717 273.186 431.717H276.732C278.93 431.717 280.712 429.931 280.712 427.727V354.31C280.712 349.168 284.87 345 289.999 345C295.861 345 300.613 349.764 300.613 355.64V444.219C300.613 446.276 302.276 447.943 304.328 447.943H307.777C310.708 447.943 313.084 445.561 313.084 442.623V378.25C313.084 374.137 316.41 370.802 320.514 370.802C324.177 370.802 327.147 373.78 327.147 377.452V443.845C327.147 450.925 322.698 457.237 316.04 459.601C314.957 459.986 313.837 460.257 312.698 460.411L305.212 461.421C302.578 461.776 300.613 464.029 300.613 466.693V490.238C300.613 491.707 299.425 492.898 297.959 492.898H283.365C281.9 492.898 280.712 491.707 280.712 490.238V449.805C280.712 446.867 278.336 444.485 275.405 444.485H271.115C266.903 444.485 261.003 445.374 258.071 442.343C255.567 439.754 256.035 433.691 256.035 430.085V389.689C256.035 386.016 259.005 383.038 262.668 383.038C266.039 383.038 268.771 385.778 268.771 389.157Z" fill="black"/>
<path d="M262.668 383.038V383.038C259.005 383.038 256.035 386.008 256.035 389.672V435.707L256.035 435.994C256.035 440.684 259.836 444.485 264.526 444.485V444.485M262.668 383.038C259.005 383.038 256.035 386.016 256.035 389.689V430.085C256.035 433.691 255.567 439.754 258.071 442.343C261.003 445.374 266.903 444.485 271.115 444.485H275.405C278.336 444.485 280.712 446.867 280.712 449.805V490.238C280.712 491.707 281.9 492.898 283.365 492.898H297.959C299.425 492.898 300.613 491.707 300.613 490.238V466.693C300.613 464.029 302.578 461.776 305.212 461.421L312.698 460.411C313.837 460.257 314.957 459.986 316.04 459.601C322.698 457.237 327.147 450.925 327.147 443.845V377.452C327.147 373.78 324.177 370.802 320.514 370.802M262.668 383.038C266.039 383.038 268.771 385.778 268.771 389.157V427.292C268.771 429.736 270.748 431.717 273.186 431.717H276.732C278.93 431.717 280.712 429.931 280.712 427.727V354.31C280.712 349.168 284.87 345 289.999 345C295.861 345 300.613 349.764 300.613 355.64V444.219C300.613 446.276 302.276 447.943 304.328 447.943H307.777C310.708 447.943 313.084 445.561 313.084 442.623V378.25C313.084 374.137 316.41 370.802 320.514 370.802M320.514 370.802V370.802C324.177 370.802 327.147 373.772 327.147 377.436V442.142C327.147 450.244 322.046 457.469 314.411 460.179V460.179" stroke="black" stroke-width="6"/>
<g filter="url(#filter0_d_4_393)">
<path d="M459 275C459 302.062 422.287 324 377 324C331.713 324 295 302.062 295 275C295 247.938 331.713 226 377 226C422.287 226 459 247.938 459 275Z" fill="#EBECED"/>
<path d="M312.845 353.084L331.835 293.071L362.744 314.714L312.845 353.084Z" fill="#EBECED"/>
</g>
<path d="M349.504 284L344.533 265.818H346.77L350.57 280.626H350.747L354.618 265.818H357.104L360.974 280.626H361.152L364.952 265.818H367.189L362.217 284H359.945L355.932 269.511H355.79L351.777 284H349.504ZM373.918 284.284C372.687 284.284 371.607 283.991 370.678 283.405C369.755 282.819 369.033 282 368.512 280.946C367.997 279.893 367.739 278.661 367.739 277.253C367.739 275.832 367.997 274.592 368.512 273.533C369.033 272.474 369.755 271.651 370.678 271.065C371.607 270.479 372.687 270.186 373.918 270.186C375.149 270.186 376.227 270.479 377.15 271.065C378.079 271.651 378.801 272.474 379.316 273.533C379.837 274.592 380.097 275.832 380.097 277.253C380.097 278.661 379.837 279.893 379.316 280.946C378.801 282 378.079 282.819 377.15 283.405C376.227 283.991 375.149 284.284 373.918 284.284ZM373.918 282.402C374.853 282.402 375.623 282.162 376.227 281.683C376.83 281.203 377.277 280.573 377.567 279.792C377.857 279.011 378.002 278.164 378.002 277.253C378.002 276.341 377.857 275.492 377.567 274.705C377.277 273.918 376.83 273.281 376.227 272.796C375.623 272.311 374.853 272.068 373.918 272.068C372.983 272.068 372.214 272.311 371.61 272.796C371.006 273.281 370.56 273.918 370.27 274.705C369.98 275.492 369.835 276.341 369.835 277.253C369.835 278.164 369.98 279.011 370.27 279.792C370.56 280.573 371.006 281.203 371.61 281.683C372.214 282.162 372.983 282.402 373.918 282.402ZM385.921 284L381.766 270.364H383.968L386.915 280.804H387.058L389.969 270.364H392.207L395.083 280.768H395.225L398.173 270.364H400.374L396.219 284H394.16L391.177 273.524H390.964L387.981 284H385.921ZM405.914 265.818L405.737 278.886H403.677L403.499 265.818H405.914ZM404.707 284.142C404.269 284.142 403.893 283.985 403.579 283.672C403.266 283.358 403.109 282.982 403.109 282.544C403.109 282.106 403.266 281.73 403.579 281.417C403.893 281.103 404.269 280.946 404.707 280.946C405.145 280.946 405.52 281.103 405.834 281.417C406.148 281.73 406.305 282.106 406.305 282.544C406.305 282.834 406.231 283.1 406.083 283.343C405.941 283.586 405.748 283.781 405.506 283.929C405.269 284.071 405.003 284.142 404.707 284.142Z" fill="black"/>
<path d="M349.504 284L348.54 284.264L348.741 285H349.504V284ZM344.533 265.818V264.818H343.223L343.568 266.082L344.533 265.818ZM346.77 265.818L347.739 265.57L347.546 264.818H346.77V265.818ZM350.57 280.626L349.601 280.875L349.794 281.626H350.57V280.626ZM350.747 280.626V281.626H351.519L351.715 280.879L350.747 280.626ZM354.618 265.818V264.818H353.846L353.65 265.565L354.618 265.818ZM357.104 265.818L358.071 265.565L357.876 264.818H357.104V265.818ZM360.974 280.626L360.007 280.879L360.202 281.626H360.974V280.626ZM361.152 280.626V281.626H361.928L362.121 280.875L361.152 280.626ZM364.952 265.818V264.818H364.176L363.983 265.57L364.952 265.818ZM367.189 265.818L368.154 266.082L368.499 264.818H367.189V265.818ZM362.217 284V285H362.981L363.182 284.264L362.217 284ZM359.945 284L358.981 284.267L359.184 285H359.945V284ZM355.932 269.511L356.896 269.244L356.693 268.511H355.932V269.511ZM355.79 269.511V268.511H355.029L354.826 269.244L355.79 269.511ZM351.777 284V285H352.538L352.741 284.267L351.777 284ZM350.469 283.736L345.497 265.554L343.568 266.082L348.54 284.264L350.469 283.736ZM344.533 266.818H346.77V264.818H344.533V266.818ZM345.801 266.067L349.601 280.875L351.538 280.378L347.739 265.57L345.801 266.067ZM350.57 281.626H350.747V279.626H350.57V281.626ZM351.715 280.879L355.585 266.071L353.65 265.565L349.78 280.374L351.715 280.879ZM354.618 266.818H357.104V264.818H354.618V266.818ZM356.136 266.071L360.007 280.879L361.942 280.374L358.071 265.565L356.136 266.071ZM360.974 281.626H361.152V279.626H360.974V281.626ZM362.121 280.875L365.92 266.067L363.983 265.57L360.183 280.378L362.121 280.875ZM364.952 266.818H367.189V264.818H364.952V266.818ZM366.224 265.554L361.253 283.736L363.182 284.264L368.154 266.082L366.224 265.554ZM362.217 283H359.945V285H362.217V283ZM360.908 283.733L356.896 269.244L354.968 269.778L358.981 284.267L360.908 283.733ZM355.932 268.511H355.79V270.511H355.932V268.511ZM354.826 269.244L350.813 283.733L352.741 284.267L356.753 269.778L354.826 269.244ZM351.777 283H349.504V285H351.777V283ZM370.678 283.405L370.142 284.25L370.145 284.251L370.678 283.405ZM368.512 280.946L367.613 281.385L367.615 281.389L368.512 280.946ZM368.512 273.533L367.614 273.092L367.612 273.096L368.512 273.533ZM370.678 271.065L370.145 270.219L370.142 270.221L370.678 271.065ZM377.15 271.065L376.614 271.909L376.616 271.911L377.15 271.065ZM379.316 273.533L378.417 273.97L378.419 273.974L379.316 273.533ZM379.316 280.946L378.42 280.503L378.418 280.507L379.316 280.946ZM377.15 283.405L376.616 282.559L376.614 282.561L377.15 283.405ZM376.227 281.683L375.605 280.9L376.227 281.683ZM377.567 279.792L378.505 280.14L377.567 279.792ZM377.567 274.705L378.505 274.359V274.359L377.567 274.705ZM376.227 272.796L376.853 272.017L376.227 272.796ZM371.61 272.796L370.984 272.017L371.61 272.796ZM370.27 274.705L369.331 274.359L370.27 274.705ZM370.27 279.792L369.332 280.14L370.27 279.792ZM371.61 281.683L372.232 280.9L371.61 281.683ZM373.918 283.284C372.853 283.284 371.962 283.033 371.211 282.559L370.145 284.251C371.252 284.95 372.522 285.284 373.918 285.284V283.284ZM371.214 282.561C370.457 282.08 369.854 281.405 369.408 280.503L367.615 281.389C368.211 282.594 369.053 283.558 370.142 284.25L371.214 282.561ZM369.41 280.507C368.974 279.615 368.739 278.54 368.739 277.253H366.739C366.739 278.783 367.019 280.17 367.613 281.385L369.41 280.507ZM368.739 277.253C368.739 275.953 368.975 274.868 369.411 273.97L367.612 273.096C367.019 274.317 366.739 275.712 366.739 277.253H368.739ZM369.409 273.974C369.856 273.066 370.458 272.389 371.214 271.909L370.142 270.221C369.051 270.913 368.21 271.881 367.614 273.092L369.409 273.974ZM371.211 271.911C371.962 271.437 372.853 271.186 373.918 271.186V269.186C372.522 269.186 371.252 269.521 370.145 270.219L371.211 271.911ZM373.918 271.186C374.984 271.186 375.871 271.437 376.614 271.909L377.686 270.221C376.583 269.521 375.315 269.186 373.918 269.186V271.186ZM376.616 271.911C377.376 272.39 377.977 273.066 378.417 273.97L380.215 273.096C379.625 271.881 378.782 270.912 377.683 270.219L376.616 271.911ZM378.419 273.974C378.86 274.871 379.097 275.955 379.097 277.253H381.097C381.097 275.71 380.814 274.314 380.213 273.092L378.419 273.974ZM379.097 277.253C379.097 278.538 378.86 279.612 378.42 280.503L380.212 281.389C380.814 280.173 381.097 278.785 381.097 277.253H379.097ZM378.418 280.507C377.979 281.405 377.378 282.079 376.616 282.559L377.683 284.251C378.78 283.559 379.624 282.594 380.214 281.385L378.418 280.507ZM376.614 282.561C375.871 283.033 374.984 283.284 373.918 283.284V285.284C375.315 285.284 376.583 284.95 377.686 284.25L376.614 282.561ZM373.918 283.402C375.03 283.402 376.033 283.114 376.848 282.466L375.605 280.9C375.213 281.211 374.677 281.402 373.918 281.402V283.402ZM376.848 282.466C377.607 281.864 378.156 281.078 378.505 280.14L376.63 279.444C376.398 280.068 376.054 280.543 375.605 280.9L376.848 282.466ZM378.505 280.14C378.84 279.237 379.002 278.272 379.002 277.253H377.002C377.002 278.057 376.875 278.784 376.63 279.444L378.505 280.14ZM379.002 277.253C379.002 276.234 378.84 275.266 378.505 274.359L376.629 275.051C376.875 275.718 377.002 276.449 377.002 277.253H379.002ZM378.505 274.359C378.158 273.416 377.61 272.625 376.853 272.017L375.6 273.576C376.051 273.938 376.396 274.419 376.629 275.051L378.505 274.359ZM376.853 272.017C376.037 271.361 375.032 271.068 373.918 271.068V273.068C374.674 273.068 375.209 273.261 375.6 273.576L376.853 272.017ZM373.918 271.068C372.804 271.068 371.8 271.361 370.984 272.017L372.237 273.576C372.628 273.261 373.162 273.068 373.918 273.068V271.068ZM370.984 272.017C370.227 272.625 369.678 273.416 369.331 274.359L371.208 275.051C371.441 274.419 371.786 273.938 372.237 273.576L370.984 272.017ZM369.331 274.359C368.997 275.266 368.835 276.234 368.835 277.253H370.835C370.835 276.449 370.962 275.718 371.208 275.051L369.331 274.359ZM368.835 277.253C368.835 278.272 368.997 279.237 369.332 280.14L371.207 279.444C370.962 278.784 370.835 278.057 370.835 277.253H368.835ZM369.332 280.14C369.68 281.078 370.23 281.864 370.988 282.466L372.232 280.9C371.783 280.543 371.439 280.068 371.207 279.444L369.332 280.14ZM370.988 282.466C371.804 283.114 372.807 283.402 373.918 283.402V281.402C373.159 281.402 372.623 281.211 372.232 280.9L370.988 282.466ZM385.921 284L384.965 284.291L385.18 285H385.921V284ZM381.766 270.364V269.364H380.416L380.81 270.655L381.766 270.364ZM383.968 270.364L384.93 270.092L384.725 269.364H383.968V270.364ZM386.915 280.804L385.953 281.076L386.159 281.804H386.915V280.804ZM387.058 280.804V281.804H387.817L388.021 281.073L387.058 280.804ZM389.969 270.364V269.364H389.21L389.006 270.095L389.969 270.364ZM392.207 270.364L393.171 270.097L392.968 269.364H392.207V270.364ZM395.083 280.768L394.119 281.035L394.322 281.768H395.083V280.768ZM395.225 280.768V281.768H395.981L396.187 281.041L395.225 280.768ZM398.173 270.364V269.364H397.417L397.21 270.091L398.173 270.364ZM400.374 270.364L401.331 270.655L401.724 269.364H400.374V270.364ZM396.219 284V285H396.96L397.176 284.291L396.219 284ZM394.16 284L393.198 284.274L393.405 285H394.16V284ZM391.177 273.524L392.139 273.25L391.932 272.524H391.177V273.524ZM390.964 273.524V272.524H390.209L390.002 273.25L390.964 273.524ZM387.981 284V285H388.736L388.943 284.274L387.981 284ZM386.878 283.709L382.723 270.072L380.81 270.655L384.965 284.291L386.878 283.709ZM381.766 271.364H383.968V269.364H381.766V271.364ZM383.006 270.635L385.953 281.076L387.878 280.532L384.93 270.092L383.006 270.635ZM386.915 281.804H387.058V279.804H386.915V281.804ZM388.021 281.073L390.933 270.632L389.006 270.095L386.094 280.535L388.021 281.073ZM389.969 271.364H392.207V269.364H389.969V271.364ZM391.243 270.63L394.119 281.035L396.047 280.502L393.171 270.097L391.243 270.63ZM395.083 281.768H395.225V279.768H395.083V281.768ZM396.187 281.041L399.135 270.636L397.21 270.091L394.263 280.496L396.187 281.041ZM398.173 271.364H400.374V269.364H398.173V271.364ZM399.418 270.072L395.263 283.709L397.176 284.291L401.331 270.655L399.418 270.072ZM396.219 283H394.16V285H396.219V283ZM395.122 283.726L392.139 273.25L390.215 273.798L393.198 284.274L395.122 283.726ZM391.177 272.524H390.964V274.524H391.177V272.524ZM390.002 273.25L387.019 283.726L388.943 284.274L391.926 273.798L390.002 273.25ZM387.981 283H385.921V285H387.981V283ZM405.914 265.818L406.914 265.832L406.928 264.818H405.914V265.818ZM405.737 278.886V279.886H406.723L406.736 278.9L405.737 278.886ZM403.677 278.886L402.677 278.9L402.69 279.886H403.677V278.886ZM403.499 265.818V264.818H402.486L402.499 265.832L403.499 265.818ZM403.579 283.672L404.286 282.964L403.579 283.672ZM405.834 281.417L406.541 280.709L405.834 281.417ZM406.083 283.343L405.229 282.822L405.224 282.83L405.22 282.838L406.083 283.343ZM405.506 283.929L406.02 284.786L406.026 284.783L405.506 283.929ZM404.914 265.805L404.737 278.873L406.736 278.9L406.914 265.832L404.914 265.805ZM405.737 277.886H403.677V279.886H405.737V277.886ZM404.677 278.873L404.499 265.805L402.499 265.832L402.677 278.9L404.677 278.873ZM403.499 266.818H405.914V264.818H403.499V266.818ZM404.707 283.142C404.538 283.142 404.415 283.093 404.286 282.964L402.872 284.379C403.371 284.877 404 285.142 404.707 285.142V283.142ZM404.286 282.964C404.157 282.836 404.109 282.713 404.109 282.544H402.109C402.109 283.251 402.374 283.88 402.872 284.379L404.286 282.964ZM404.109 282.544C404.109 282.375 404.157 282.253 404.286 282.124L402.872 280.709C402.374 281.208 402.109 281.837 402.109 282.544H404.109ZM404.286 282.124C404.415 281.995 404.538 281.946 404.707 281.946V279.946C404 279.946 403.371 280.211 402.872 280.709L404.286 282.124ZM404.707 281.946C404.876 281.946 404.998 281.995 405.127 282.124L406.541 280.709C406.043 280.211 405.414 279.946 404.707 279.946V281.946ZM405.127 282.124C405.256 282.253 405.305 282.375 405.305 282.544H407.305C407.305 281.837 407.04 281.208 406.541 280.709L405.127 282.124ZM405.305 282.544C405.305 282.654 405.279 282.74 405.229 282.822L406.937 283.864C407.182 283.461 407.305 283.014 407.305 282.544H405.305ZM405.22 282.838C405.162 282.936 405.088 283.012 404.985 283.075L406.026 284.783C406.409 284.55 406.719 284.235 406.946 283.848L405.22 282.838ZM404.991 283.071C404.921 283.114 404.835 283.142 404.707 283.142V285.142C405.17 285.142 405.617 285.028 406.02 284.786L404.991 283.071Z" fill="black"/>
<g filter="url(#filter1_d_4_393)">
<path fill-rule="evenodd" clip-rule="evenodd" d="M542.5 197H198V196.993C197.667 196.998 197.334 197 197 197C155.579 197 122 163.421 122 122C122 80.5786 155.579 47 197 47C202.064 47 207.011 47.502 211.794 48.4588C220.947 27.0232 242.219 12 267 12C285.986 12 302.912 20.8185 313.907 34.5829C324.493 27.8803 337.043 24 350.5 24C362.666 24 374.092 27.1718 383.995 32.7336C399.937 12.7818 424.476 0 452 0C494.996 0 530.707 31.1899 537.743 72.1784C539.313 72.0602 540.899 72 542.5 72C577.018 72 605 99.9822 605 134.5C605 168.851 577.288 196.729 543 196.998V197H542.5Z" fill="url(#paint0_linear_4_393)"/>
</g>
<ellipse cx="112.688" cy="429.103" rx="21.6877" ry="7.10327" fill="black"/>
<path d="M134.375 450.111C134.375 454.034 124.665 457.214 112.688 457.214C100.71 457.214 91 454.034 91 450.111C100.673 450.111 100.71 450.111 112.688 450.111C124.665 450.111 124.627 450.111 134.375 450.111Z" fill="black"/>
<path fill-rule="evenodd" clip-rule="evenodd" d="M134.375 443.008H91V443.008V450.111H112.628C112.648 450.111 112.668 450.111 112.688 450.111C112.708 450.111 112.728 450.111 112.748 450.111H134.375V443.008V443.008ZM134.375 443.008L112.688 443.008L91 443.008C91 446.924 100.677 450.1 112.628 450.111H112.748C124.698 450.1 134.375 446.924 134.375 443.008Z" fill="black"/>
<path d="M134.375 439.532C134.375 443.455 124.665 446.635 112.688 446.635C100.71 446.635 91 443.455 91 439.532C100.673 439.532 100.71 439.531 112.688 439.531C124.665 439.531 124.627 439.532 134.375 439.532Z" fill="black"/>
<path fill-rule="evenodd" clip-rule="evenodd" d="M134.375 432.428H91V432.428V439.531H112.628C112.648 439.532 112.668 439.532 112.688 439.532C112.708 439.532 112.728 439.532 112.748 439.531H134.375V432.428V432.428ZM134.375 432.428L112.688 432.428L91 432.428C91 436.345 100.677 439.521 112.628 439.531H112.748C124.698 439.521 134.375 436.345 134.375 432.428Z" fill="black"/>
<path d="M134.375 470.816C134.375 476.993 124.665 482 112.688 482C100.71 482 91 476.993 91 470.816C100.673 470.816 100.71 470.816 112.688 470.816C124.665 470.816 124.627 470.816 134.375 470.816Z" fill="black"/>
<path fill-rule="evenodd" clip-rule="evenodd" d="M134.375 463.713H91V463.713V470.816H112.628C112.648 470.816 112.668 470.816 112.688 470.816C112.708 470.816 112.728 470.816 112.748 470.816H134.375V463.713V463.713ZM134.375 463.713L112.688 463.713L91 463.713C91 467.629 100.677 470.806 112.628 470.816H112.748C124.698 470.806 134.375 467.629 134.375 463.713Z" fill="black"/>
<path d="M134.375 460.539C134.375 464.462 124.665 467.642 112.688 467.642C100.71 467.642 91 464.462 91 460.539C100.673 460.539 100.71 460.539 112.688 460.539C124.665 460.539 124.627 460.539 134.375 460.539Z" fill="black"/>
<path fill-rule="evenodd" clip-rule="evenodd" d="M134.375 453.436H91V453.436V460.539H112.628C112.648 460.539 112.668 460.539 112.688 460.539C112.708 460.539 112.728 460.539 112.748 460.539H134.375V453.436V453.436ZM134.375 453.436L112.688 453.436L91 453.436C91 457.352 100.677 460.528 112.628 460.539H112.748C124.698 460.528 134.375 457.352 134.375 453.436Z" fill="black"/>
<ellipse cx="314.688" cy="89.1033" rx="21.6877" ry="7.10327" fill="black"/>
<path d="M336.375 110.111C336.375 114.034 326.665 117.214 314.688 117.214C302.71 117.214 293 114.034 293 110.111C302.673 110.111 302.71 110.111 314.688 110.111C326.665 110.111 326.627 110.111 336.375 110.111Z" fill="black"/>
<path fill-rule="evenodd" clip-rule="evenodd" d="M336.375 103.008H293V103.008V110.111H314.628C314.648 110.111 314.668 110.111 314.688 110.111C314.708 110.111 314.728 110.111 314.748 110.111H336.375V103.008V103.008ZM336.375 103.008L314.688 103.008L293 103.008C293 106.924 302.677 110.1 314.628 110.111H314.748C326.698 110.1 336.375 106.924 336.375 103.008Z" fill="black"/>
<path d="M336.375 99.5315C336.375 103.455 326.665 106.635 314.688 106.635C302.71 106.635 293 103.455 293 99.5315C302.673 99.5315 302.71 99.5315 314.688 99.5315C326.665 99.5315 326.627 99.5315 336.375 99.5315Z" fill="black"/>
<path fill-rule="evenodd" clip-rule="evenodd" d="M336.375 92.4282H293V92.4282V99.5315H314.628C314.648 99.5315 314.668 99.5315 314.688 99.5315C314.708 99.5315 314.728 99.5315 314.748 99.5315H336.375V92.4282V92.4282ZM336.375 92.4282L314.688 92.4282L293 92.4282C293 96.3447 302.677 99.5209 314.628 99.5315H314.748C326.698 99.5209 336.375 96.3447 336.375 92.4282Z" fill="black"/>
<path d="M336.375 130.816C336.375 136.993 326.665 142 314.688 142C302.71 142 293 136.993 293 130.816C302.673 130.816 302.71 130.816 314.688 130.816C326.665 130.816 326.627 130.816 336.375 130.816Z" fill="black"/>
<path fill-rule="evenodd" clip-rule="evenodd" d="M336.375 123.713H293V123.713V130.816H314.628C314.648 130.816 314.668 130.816 314.688 130.816C314.708 130.816 314.728 130.816 314.748 130.816H336.375V123.713V123.713ZM336.375 123.713L314.688 123.713L293 123.713C293 127.629 302.677 130.806 314.628 130.816H314.748C326.698 130.806 336.375 127.629 336.375 123.713Z" fill="black"/>
<path d="M336.375 120.539C336.375 124.462 326.665 127.642 314.688 127.642C302.71 127.642 293 124.462 293 120.539C302.673 120.539 302.71 120.539 314.688 120.539C326.665 120.539 326.627 120.539 336.375 120.539Z" fill="black"/>
<path fill-rule="evenodd" clip-rule="evenodd" d="M336.375 113.436H293V113.436V120.539H314.628C314.648 120.539 314.668 120.539 314.688 120.539C314.708 120.539 314.728 120.539 314.748 120.539H336.375V113.436V113.436ZM336.375 113.436L314.688 113.436L293 113.436C293 117.352 302.677 120.528 314.628 120.539H314.748C326.698 120.528 336.375 117.352 336.375 113.436Z" fill="black"/>
<ellipse cx="235.688" cy="89.1033" rx="21.6877" ry="7.10327" fill="black"/>
<path d="M257.375 110.111C257.375 114.034 247.665 117.214 235.688 117.214C223.71 117.214 214 114.034 214 110.111C223.673 110.111 223.71 110.111 235.688 110.111C247.665 110.111 247.627 110.111 257.375 110.111Z" fill="black"/>
<path fill-rule="evenodd" clip-rule="evenodd" d="M257.375 103.008H214V103.008V110.111H235.628C235.648 110.111 235.668 110.111 235.688 110.111C235.708 110.111 235.728 110.111 235.748 110.111H257.375V103.008V103.008ZM257.375 103.008L235.688 103.008L214 103.008C214 106.924 223.677 110.1 235.628 110.111H235.748C247.698 110.1 257.375 106.924 257.375 103.008Z" fill="black"/>
<path d="M257.375 99.5315C257.375 103.455 247.665 106.635 235.688 106.635C223.71 106.635 214 103.455 214 99.5315C223.673 99.5315 223.71 99.5315 235.688 99.5315C247.665 99.5315 247.627 99.5315 257.375 99.5315Z" fill="black"/>
<path fill-rule="evenodd" clip-rule="evenodd" d="M257.375 92.4282H214V92.4282V99.5315H235.628C235.648 99.5315 235.668 99.5315 235.688 99.5315C235.708 99.5315 235.728 99.5315 235.748 99.5315H257.375V92.4282V92.4282ZM257.375 92.4282L235.688 92.4282L214 92.4282C214 96.3447 223.677 99.5209 235.628 99.5315H235.748C247.698 99.5209 257.375 96.3447 257.375 92.4282Z" fill="black"/>
<path d="M257.375 130.816C257.375 136.993 247.665 142 235.688 142C223.71 142 214 136.993 214 130.816C223.673 130.816 223.71 130.816 235.688 130.816C247.665 130.816 247.627 130.816 257.375 130.816Z" fill="black"/>
<path fill-rule="evenodd" clip-rule="evenodd" d="M257.375 123.713H214V123.713V130.816H235.628C235.648 130.816 235.668 130.816 235.688 130.816C235.708 130.816 235.728 130.816 235.748 130.816H257.375V123.713V123.713ZM257.375 123.713L235.688 123.713L214 123.713C214 127.629 223.677 130.806 235.628 130.816H235.748C247.698 130.806 257.375 127.629 257.375 123.713Z" fill="black"/>
<path d="M257.375 120.539C257.375 124.462 247.665 127.642 235.688 127.642C223.71 127.642 214 124.462 214 120.539C223.673 120.539 223.71 120.539 235.688 120.539C247.665 120.539 247.627 120.539 257.375 120.539Z" fill="black"/>
<path fill-rule="evenodd" clip-rule="evenodd" d="M257.375 113.436H214V113.436V120.539H235.628C235.648 120.539 235.668 120.539 235.688 120.539C235.708 120.539 235.728 120.539 235.748 120.539H257.375V113.436V113.436ZM257.375 113.436L235.688 113.436L214 113.436C214 117.352 223.677 120.528 235.628 120.539H235.748C247.698 120.528 257.375 117.352 257.375 113.436Z" fill="black"/>
<path d="M215.162 212.329L222.537 269.591L169.259 247.347L215.162 212.329ZM129.208 405.227L193.211 251.928L202.439 255.781L138.436 409.079L129.208 405.227Z" fill="black"/>
<path d="M406 46H514.914V70.6833H406V46Z" fill="white" stroke="black" stroke-width="10"/>
<circle cx="424.453" cy="58.5068" r="2.31222" fill="black"/>
<circle cx="435.683" cy="58.5068" r="2.31222" fill="black"/>
<circle cx="446.914" cy="58.5068" r="2.31222" fill="black"/>
<circle cx="458.145" cy="58.5068" r="2.31222" fill="black"/>
<path d="M474 58.5068C474 57.2298 475.035 56.1946 476.312 56.1946H504.719C505.996 56.1946 507.032 57.2298 507.032 58.5068C507.032 59.7838 505.996 60.819 504.719 60.819H476.312C475.035 60.819 474 59.7838 474 58.5068Z" fill="black"/>
<path d="M406 80.6833H514.914V105.367H406V80.6833Z" fill="white" stroke="black" stroke-width="10"/>
<circle cx="424.453" cy="93.19" r="2.31222" fill="black"/>
<circle cx="435.683" cy="93.19" r="2.31222" fill="black"/>
<circle cx="446.914" cy="93.19" r="2.31222" fill="black"/>
<circle cx="458.145" cy="93.19" r="2.31222" fill="black"/>
<path d="M474 93.19C474 91.913 475.035 90.8778 476.312 90.8778H504.719C505.996 90.8778 507.032 91.913 507.032 93.19C507.032 94.467 505.996 95.5023 504.719 95.5023H476.312C475.035 95.5023 474 94.467 474 93.19Z" fill="black"/>
<path d="M406 115.367H514.914V140.05H406V115.367Z" fill="white" stroke="black" stroke-width="10"/>
<circle cx="424.453" cy="127.873" r="2.31222" fill="black"/>
<circle cx="435.683" cy="127.873" r="2.31222" fill="black"/>
<circle cx="446.914" cy="127.873" r="2.31222" fill="black"/>
<circle cx="458.145" cy="127.873" r="2.31222" fill="black"/>
<path d="M474 127.873C474 126.596 475.035 125.561 476.312 125.561H504.719C505.996 125.561 507.032 126.596 507.032 127.873C507.032 129.15 505.996 130.186 504.719 130.186H476.312C475.035 130.186 474 129.15 474 127.873Z" fill="black"/>
<path d="M406 150.05H514.914V174.733H406V150.05Z" fill="white" stroke="black" stroke-width="10"/>
<circle cx="424.453" cy="162.557" r="2.31222" fill="black"/>
<circle cx="435.683" cy="162.557" r="2.31222" fill="black"/>
<circle cx="446.914" cy="162.557" r="2.31222" fill="black"/>
<circle cx="458.145" cy="162.557" r="2.31222" fill="black"/>
<path d="M474 162.557C474 161.28 475.035 160.244 476.312 160.244H504.719C505.996 160.244 507.032 161.28 507.032 162.557C507.032 163.834 505.996 164.869 504.719 164.869H476.312C475.035 164.869 474 163.834 474 162.557Z" fill="black"/>
<path d="M414.213 183.367C414.213 181.36 415.839 179.733 417.846 179.733H437.335C439.342 179.733 440.968 181.36 440.968 183.367C440.968 185.373 439.342 187 437.335 187H417.846C415.839 187 414.213 185.373 414.213 183.367Z" fill="black"/>
<path d="M479.946 183.367C479.946 181.36 481.573 179.733 483.579 179.733H503.068C505.075 179.733 506.701 181.36 506.701 183.367C506.701 185.373 505.075 187 503.068 187H483.579C481.573 187 479.946 185.373 479.946 183.367Z" fill="black"/>
<defs>
<filter id="filter0_d_4_393" x="291" y="226" width="172" height="135.084" filterUnits="userSpaceOnUse" color-interpolation-filters="sRGB">
<feFlood flood-opacity="0" result="BackgroundImageFix"/>
<feColorMatrix in="SourceAlpha" type="matrix" values="0 0 0 0 0 0 0 0 0 0 0 0 0 0 0 0 0 0 127 0" result="hardAlpha"/>
<feOffset dy="4"/>
<feGaussianBlur stdDeviation="2"/>
<feComposite in2="hardAlpha" operator="out"/>
<feColorMatrix type="matrix" values="0 0 0 0 0 0 0 0 0 0 0 0 0 0 0 0 0 0 0.25 0"/>
<feBlend mode="normal" in2="BackgroundImageFix" result="effect1_dropShadow_4_393"/>
<feBlend mode="normal" in="SourceGraphic" in2="effect1_dropShadow_4_393" result="shape"/>
</filter>
<filter id="filter1_d_4_393" x="118" y="0" width="491" height="205" filterUnits="userSpaceOnUse" color-interpolation-filters="sRGB">
<feFlood flood-opacity="0" result="BackgroundImageFix"/>
<feColorMatrix in="SourceAlpha" type="matrix" values="0 0 0 0 0 0 0 0 0 0 0 0 0 0 0 0 0 0 127 0" result="hardAlpha"/>
<feOffset dy="4"/>
<feGaussianBlur stdDeviation="2"/>
<feComposite in2="hardAlpha" operator="out"/>
<feColorMatrix type="matrix" values="0 0 0 0 0 0 0 0 0 0 0 0 0 0 0 0 0 0 0.25 0"/>
<feBlend mode="normal" in2="BackgroundImageFix" result="effect1_dropShadow_4_393"/>
<feBlend mode="normal" in="SourceGraphic" in2="effect1_dropShadow_4_393" result="shape"/>
</filter>
<linearGradient id="paint0_linear_4_393" x1="363.5" y1="0" x2="363.5" y2="197" gradientUnits="userSpaceOnUse">
<stop stop-color="#F1F1F1"/>
<stop offset="1" stop-color="white"/>
</linearGradient>
</defs>
</svg>
