<svg width="484" height="400" viewBox="0 0 484 400" fill="none" xmlns="http://www.w3.org/2000/svg">
<path d="M293.302 185.499V223.634C293.302 226.078 295.278 228.059 297.716 228.059H301.262C303.46 228.059 305.242 226.273 305.242 224.069V150.652C305.242 145.511 309.4 141.342 314.529 141.342C320.391 141.342 325.143 146.106 325.143 151.982V240.562C325.143 242.618 326.806 244.286 328.858 244.286H332.307C335.238 244.286 337.614 241.904 337.614 238.966V174.593C337.614 170.479 340.941 167.145 345.044 167.145C348.708 167.145 351.678 170.122 351.678 173.795V240.187C351.678 247.267 347.228 253.58 340.57 255.943C339.487 256.328 338.367 256.599 337.228 256.753L329.742 257.763C327.108 258.119 325.143 260.372 325.143 263.036V286.58C325.143 288.049 323.955 289.24 322.49 289.24H307.896C306.43 289.24 305.242 288.049 305.242 286.58V246.148C305.242 243.209 302.866 240.828 299.935 240.828H295.645C291.433 240.828 285.533 241.716 282.601 238.685C280.097 236.097 280.565 230.033 280.565 226.428V186.031C280.565 182.358 283.535 179.381 287.199 179.381C290.569 179.381 293.302 182.12 293.302 185.499Z" fill="#597B73"/>
<path d="M287.199 179.381V179.381C283.535 179.381 280.565 182.351 280.565 186.014V232.049L280.565 232.336C280.565 237.026 284.366 240.828 289.056 240.828V240.828M287.199 179.381C283.535 179.381 280.565 182.358 280.565 186.031V226.428C280.565 230.033 280.097 236.097 282.601 238.685C285.533 241.716 291.433 240.828 295.645 240.828H299.935C302.866 240.828 305.242 243.209 305.242 246.148V286.58C305.242 288.049 306.43 289.24 307.896 289.24H322.49C323.955 289.24 325.143 288.049 325.143 286.58V263.036C325.143 260.372 327.108 258.119 329.742 257.763L337.228 256.753C338.367 256.599 339.487 256.328 340.57 255.943C347.228 253.58 351.678 247.267 351.678 240.187V173.795C351.678 170.122 348.708 167.145 345.044 167.145M287.199 179.381C290.569 179.381 293.302 182.12 293.302 185.499V223.634C293.302 226.078 295.278 228.059 297.716 228.059H301.262C303.46 228.059 305.242 226.273 305.242 224.069V150.652C305.242 145.511 309.4 141.342 314.529 141.342C320.391 141.342 325.143 146.106 325.143 151.982V240.562C325.143 242.618 326.806 244.286 328.858 244.286H332.307C335.238 244.286 337.614 241.904 337.614 238.966V174.593C337.614 170.479 340.941 167.145 345.044 167.145M345.044 167.145V167.145C348.708 167.145 351.678 170.115 351.678 173.778V238.484C351.678 246.586 346.576 253.811 338.941 256.522V256.522" stroke="black" stroke-width="6"/>
<path d="M301.034 162.19L283.194 157.751C281.923 157.434 280.982 156.357 280.835 155.049L280.009 147.725C279.912 146.861 280.585 146.104 281.451 146.104C282.109 146.104 282.685 146.549 282.853 147.189L284.287 152.649L300.658 155.94L301.32 144.613C301.256 143.217 301.811 141.865 302.836 140.92L304.083 139.769C304.562 139.328 304.944 138.791 305.206 138.194L308.463 130.761C308.86 129.857 310.085 129.73 310.656 130.534C310.877 130.844 311.545 130.96 312.314 131.026C312.535 131.045 312.744 131.06 312.941 131.071C314.507 131.159 316.099 131.156 317.665 131.076C317.892 131.064 318.132 131.048 318.386 131.026C319.155 130.96 319.823 130.844 320.044 130.534C320.616 129.73 321.841 129.857 322.237 130.761L325.495 138.194C325.757 138.791 326.139 139.328 326.618 139.769L327.865 140.92C328.889 141.865 329.445 143.217 329.381 144.613L330.043 155.94L346.413 152.649L347.848 147.189C348.016 146.549 348.592 146.104 349.25 146.104C350.116 146.104 350.789 146.861 350.691 147.725L349.866 155.049C349.719 156.357 348.778 157.434 347.506 157.751L329.667 162.19C329.543 162.221 329.417 162.236 329.29 162.236H301.411C301.284 162.236 301.157 162.221 301.034 162.19Z" fill="#A35030"/>
<path d="M284.287 152.649L282.853 147.189C282.685 146.549 282.109 146.104 281.451 146.104C280.585 146.104 279.912 146.861 280.009 147.725L280.835 155.049C280.982 156.357 281.923 157.434 283.194 157.751L301.034 162.19C301.157 162.221 301.284 162.236 301.411 162.236H329.29C329.417 162.236 329.543 162.221 329.667 162.19L347.506 157.751C348.778 157.434 349.719 156.357 349.866 155.049L350.691 147.725C350.789 146.861 350.116 146.104 349.25 146.104C348.592 146.104 348.016 146.549 347.848 147.189L346.413 152.649M284.287 152.649L283.928 152.663L283.85 152.635L284.287 152.649ZM284.287 152.649L300.658 155.94L301.32 144.613C301.256 143.217 301.811 141.865 302.836 140.92L304.083 139.769C304.562 139.328 304.944 138.791 305.206 138.194L308.463 130.761C308.86 129.857 310.085 129.73 310.656 130.534C310.877 130.844 311.545 130.96 312.314 131.026C312.535 131.045 312.744 131.06 312.941 131.071C314.507 131.159 316.099 131.156 317.665 131.076C317.892 131.064 318.132 131.048 318.386 131.026C319.155 130.96 319.823 130.844 320.044 130.534C320.616 129.73 321.841 129.857 322.237 130.761L325.495 138.194C325.757 138.791 326.139 139.328 326.618 139.769L327.865 140.92C328.889 141.865 329.445 143.217 329.381 144.613L330.043 155.94L346.413 152.649M346.413 152.649L346.047 152.663L346.125 152.635L346.413 152.649Z" stroke="black" stroke-width="6"/>
<path d="M136.771 293.157V331.292C136.771 333.736 138.748 335.717 141.186 335.717H144.732C146.93 335.717 148.712 333.931 148.712 331.727V258.31C148.712 253.168 152.87 249 157.999 249C163.861 249 168.613 253.764 168.613 259.64V348.219C168.613 350.276 170.276 351.943 172.328 351.943H175.777C178.708 351.943 181.084 349.561 181.084 346.623V282.25C181.084 278.137 184.41 274.802 188.514 274.802C192.177 274.802 195.147 277.78 195.147 281.452V347.845C195.147 354.925 190.698 361.237 184.04 363.601C182.957 363.986 181.837 364.257 180.698 364.411L173.212 365.421C170.578 365.776 168.613 368.029 168.613 370.693V394.238C168.613 395.707 167.425 396.898 165.959 396.898H151.365C149.9 396.898 148.712 395.707 148.712 394.238V353.805C148.712 350.867 146.336 348.485 143.405 348.485H139.115C134.903 348.485 129.003 349.374 126.071 346.343C123.567 343.754 124.035 337.691 124.035 334.085V293.689C124.035 290.016 127.005 287.038 130.668 287.038C134.039 287.038 136.771 289.778 136.771 293.157Z" fill="black"/>
<path d="M130.668 287.038V287.038C127.005 287.038 124.035 290.008 124.035 293.672V339.707L124.035 339.994C124.035 344.684 127.836 348.485 132.526 348.485V348.485M130.668 287.038C127.005 287.038 124.035 290.016 124.035 293.689V334.085C124.035 337.691 123.567 343.754 126.071 346.343C129.003 349.374 134.903 348.485 139.115 348.485H143.405C146.336 348.485 148.712 350.867 148.712 353.805V394.238C148.712 395.707 149.9 396.898 151.365 396.898H165.959C167.425 396.898 168.613 395.707 168.613 394.238V370.693C168.613 368.029 170.578 365.776 173.212 365.421L180.698 364.411C181.837 364.257 182.957 363.986 184.04 363.601C190.698 361.237 195.147 354.925 195.147 347.845V281.452C195.147 277.78 192.177 274.802 188.514 274.802M130.668 287.038C134.039 287.038 136.771 289.778 136.771 293.157V331.292C136.771 333.736 138.748 335.717 141.186 335.717H144.732C146.93 335.717 148.712 333.931 148.712 331.727V258.31C148.712 253.168 152.87 249 157.999 249C163.861 249 168.613 253.764 168.613 259.64V348.219C168.613 350.276 170.276 351.943 172.328 351.943H175.777C178.708 351.943 181.084 349.561 181.084 346.623V282.25C181.084 278.137 184.41 274.802 188.514 274.802M188.514 274.802V274.802C192.177 274.802 195.147 277.772 195.147 281.436V346.142C195.147 354.244 190.046 361.469 182.411 364.179V364.179" stroke="black" stroke-width="6"/>
<g filter="url(#filter0_d_3_80)">
<path d="M480 49C480 76.062 443.287 98 398 98C352.713 98 316 76.062 316 49C316 21.9381 352.713 4.98229e-06 398 4.98229e-06C443.287 4.98229e-06 480 21.9381 480 49Z" fill="#EBECED"/>
<path d="M333.845 127.084L352.835 67.0713L383.744 88.7136L333.845 127.084Z" fill="#EBECED"/>
</g>
<path d="M342.202 58V39.8182H348.558C349.825 39.8182 350.869 40.0372 351.692 40.4751C352.515 40.9072 353.127 41.4902 353.53 42.2241C353.932 42.9521 354.134 43.7599 354.134 44.6477C354.134 45.429 353.994 46.0741 353.716 46.5831C353.444 47.0921 353.083 47.4946 352.633 47.7905C352.189 48.0864 351.707 48.3054 351.186 48.4474V48.625C351.742 48.6605 352.302 48.8558 352.864 49.2109C353.426 49.5661 353.897 50.075 354.276 50.7379C354.654 51.4008 354.844 52.2116 354.844 53.1705C354.844 54.0819 354.637 54.9016 354.222 55.6296C353.808 56.3576 353.154 56.9347 352.26 57.3608C351.367 57.7869 350.204 58 348.771 58H342.202ZM344.403 56.0469H348.771C350.21 56.0469 351.23 55.7687 351.834 55.2124C352.444 54.6501 352.749 53.9695 352.749 53.1705C352.749 52.5549 352.592 51.9867 352.278 51.4659C351.964 50.9392 351.518 50.5189 350.938 50.2053C350.357 49.8857 349.671 49.7259 348.878 49.7259H344.403V56.0469ZM344.403 47.8082H348.487C349.15 47.8082 349.748 47.678 350.281 47.4176C350.819 47.1572 351.245 46.7902 351.559 46.3168C351.879 45.8433 352.038 45.2869 352.038 44.6477C352.038 43.8487 351.76 43.171 351.204 42.6147C350.647 42.0524 349.766 41.7713 348.558 41.7713H344.403V47.8082ZM360.273 39.8182V58H358.177V39.8182H360.273ZM368.123 58.3196C367.259 58.3196 366.474 58.1568 365.77 57.8313C365.066 57.4999 364.507 57.0234 364.092 56.402C363.678 55.7746 363.471 55.017 363.471 54.1293C363.471 53.348 363.625 52.7147 363.932 52.2294C364.24 51.7382 364.652 51.3535 365.166 51.0753C365.681 50.7971 366.25 50.59 366.871 50.4538C367.498 50.3118 368.129 50.1993 368.762 50.1165C369.591 50.0099 370.262 49.93 370.777 49.8768C371.298 49.8176 371.677 49.7199 371.914 49.5838C372.156 49.4477 372.278 49.2109 372.278 48.8736V48.8026C372.278 47.9266 372.038 47.246 371.559 46.7607C371.085 46.2753 370.366 46.0327 369.401 46.0327C368.401 46.0327 367.617 46.2517 367.049 46.6896C366.48 47.1276 366.081 47.5952 365.85 48.0923L363.861 47.3821C364.217 46.5535 364.69 45.9084 365.282 45.4467C365.88 44.9792 366.531 44.6536 367.235 44.4702C367.945 44.2808 368.644 44.1861 369.33 44.1861C369.768 44.1861 370.271 44.2393 370.839 44.3459C371.414 44.4465 371.967 44.6566 372.5 44.9762C373.038 45.2958 373.485 45.7782 373.84 46.4233C374.195 47.0684 374.373 47.9325 374.373 49.0156V58H372.278V56.1534H372.171C372.029 56.4493 371.792 56.766 371.461 57.1033C371.129 57.4407 370.688 57.7277 370.138 57.9645C369.588 58.2012 368.916 58.3196 368.123 58.3196ZM368.442 56.4375C369.271 56.4375 369.969 56.2747 370.538 55.9492C371.112 55.6237 371.544 55.2035 371.834 54.6886C372.13 54.1737 372.278 53.6321 372.278 53.0639V51.1463C372.189 51.2528 371.994 51.3505 371.692 51.4393C371.396 51.5221 371.052 51.5961 370.662 51.6612C370.277 51.7204 369.901 51.7737 369.534 51.821C369.173 51.8625 368.88 51.898 368.655 51.9276C368.111 51.9986 367.602 52.114 367.128 52.2738C366.661 52.4277 366.282 52.6615 365.992 52.9751C365.708 53.2829 365.566 53.7031 365.566 54.2358C365.566 54.9638 365.835 55.5142 366.374 55.8871C366.918 56.254 367.608 56.4375 368.442 56.4375ZM380.292 49.7969V58H378.197V39.8182H380.292V46.4943H380.47C380.789 45.79 381.269 45.2307 381.908 44.8164C382.553 44.3962 383.411 44.1861 384.482 44.1861C385.412 44.1861 386.225 44.3725 386.924 44.7454C387.622 45.1123 388.164 45.6776 388.548 46.4411C388.939 47.1986 389.134 48.1634 389.134 49.3352V58H387.039V49.4773C387.039 48.3942 386.758 47.5567 386.196 46.9648C385.64 46.3671 384.867 46.0682 383.879 46.0682C383.192 46.0682 382.577 46.2132 382.032 46.5032C381.494 46.7932 381.067 47.2164 380.754 47.7727C380.446 48.3291 380.292 49.0038 380.292 49.7969ZM400.283 58V39.8182H406.639C407.906 39.8182 408.95 40.0372 409.773 40.4751C410.596 40.9072 411.208 41.4902 411.611 42.2241C412.013 42.9521 412.215 43.7599 412.215 44.6477C412.215 45.429 412.075 46.0741 411.797 46.5831C411.525 47.0921 411.164 47.4946 410.714 47.7905C410.27 48.0864 409.788 48.3054 409.267 48.4474V48.625C409.823 48.6605 410.383 48.8558 410.945 49.2109C411.507 49.5661 411.978 50.075 412.357 50.7379C412.735 51.4008 412.925 52.2116 412.925 53.1705C412.925 54.0819 412.718 54.9016 412.303 55.6296C411.889 56.3576 411.235 56.9347 410.341 57.3608C409.448 57.7869 408.285 58 406.852 58H400.283ZM402.484 56.0469H406.852C408.291 56.0469 409.312 55.7687 409.915 55.2124C410.525 54.6501 410.83 53.9695 410.83 53.1705C410.83 52.5549 410.673 51.9867 410.359 51.4659C410.045 50.9392 409.599 50.5189 409.019 50.2053C408.439 49.8857 407.752 49.7259 406.959 49.7259H402.484V56.0469ZM402.484 47.8082H406.568C407.231 47.8082 407.829 47.678 408.362 47.4176C408.9 47.1572 409.326 46.7902 409.64 46.3168C409.96 45.8433 410.119 45.2869 410.119 44.6477C410.119 43.8487 409.841 43.171 409.285 42.6147C408.729 42.0524 407.847 41.7713 406.639 41.7713H402.484V47.8082ZM418.354 39.8182V58H416.258V39.8182H418.354ZM426.204 58.3196C425.34 58.3196 424.556 58.1568 423.851 57.8313C423.147 57.4999 422.588 57.0234 422.173 56.402C421.759 55.7746 421.552 55.017 421.552 54.1293C421.552 53.348 421.706 52.7147 422.013 52.2294C422.321 51.7382 422.733 51.3535 423.248 51.0753C423.762 50.7971 424.331 50.59 424.952 50.4538C425.579 50.3118 426.21 50.1993 426.843 50.1165C427.672 50.0099 428.343 49.93 428.858 49.8768C429.379 49.8176 429.758 49.7199 429.995 49.5838C430.237 49.4477 430.359 49.2109 430.359 48.8736V48.8026C430.359 47.9266 430.119 47.246 429.64 46.7607C429.166 46.2753 428.447 46.0327 427.482 46.0327C426.482 46.0327 425.698 46.2517 425.13 46.6896C424.561 47.1276 424.162 47.5952 423.931 48.0923L421.942 47.3821C422.298 46.5535 422.771 45.9084 423.363 45.4467C423.961 44.9792 424.612 44.6536 425.316 44.4702C426.026 44.2808 426.725 44.1861 427.411 44.1861C427.849 44.1861 428.352 44.2393 428.92 44.3459C429.495 44.4465 430.048 44.6566 430.581 44.9762C431.119 45.2958 431.566 45.7782 431.921 46.4233C432.276 47.0684 432.454 47.9325 432.454 49.0156V58H430.359V56.1534H430.252C430.11 56.4493 429.873 56.766 429.542 57.1033C429.21 57.4407 428.77 57.7277 428.219 57.9645C427.669 58.2012 426.997 58.3196 426.204 58.3196ZM426.523 56.4375C427.352 56.4375 428.05 56.2747 428.619 55.9492C429.193 55.6237 429.625 55.2035 429.915 54.6886C430.211 54.1737 430.359 53.6321 430.359 53.0639V51.1463C430.27 51.2528 430.075 51.3505 429.773 51.4393C429.477 51.5221 429.134 51.5961 428.743 51.6612C428.358 51.7204 427.982 51.7737 427.615 51.821C427.254 51.8625 426.961 51.898 426.737 51.9276C426.192 51.9986 425.683 52.114 425.21 52.2738C424.742 52.4277 424.363 52.6615 424.073 52.9751C423.789 53.2829 423.647 53.7031 423.647 54.2358C423.647 54.9638 423.916 55.5142 424.455 55.8871C424.999 56.254 425.689 56.4375 426.523 56.4375ZM438.373 49.7969V58H436.278V39.8182H438.373V46.4943H438.551C438.87 45.79 439.35 45.2307 439.989 44.8164C440.634 44.3962 441.492 44.1861 442.563 44.1861C443.493 44.1861 444.306 44.3725 445.005 44.7454C445.703 45.1123 446.245 45.6776 446.63 46.4411C447.02 47.1986 447.215 48.1634 447.215 49.3352V58H445.12V49.4773C445.12 48.3942 444.839 47.5567 444.277 46.9648C443.721 46.3671 442.948 46.0682 441.96 46.0682C441.273 46.0682 440.658 46.2132 440.113 46.5032C439.575 46.7932 439.148 47.2164 438.835 47.7727C438.527 48.3291 438.373 49.0038 438.373 49.7969ZM453.818 39.8182L453.641 52.8864H451.581L451.404 39.8182H453.818ZM452.611 58.142C452.173 58.142 451.797 57.9852 451.483 57.6715C451.17 57.3578 451.013 56.982 451.013 56.544C451.013 56.1061 451.17 55.7302 451.483 55.4165C451.797 55.1029 452.173 54.946 452.611 54.946C453.049 54.946 453.425 55.1029 453.738 55.4165C454.052 55.7302 454.209 56.1061 454.209 56.544C454.209 56.834 454.135 57.1004 453.987 57.343C453.845 57.5857 453.653 57.781 453.41 57.929C453.173 58.071 452.907 58.142 452.611 58.142Z" fill="black"/>
<path d="M342.202 58H341.202V59H342.202V58ZM342.202 39.8182V38.8182H341.202V39.8182H342.202ZM351.692 40.4751L351.222 41.3579L351.227 41.3605L351.692 40.4751ZM353.53 42.2241L352.653 42.7049L352.655 42.7079L353.53 42.2241ZM353.716 46.5831L352.839 46.1035L352.834 46.1114L353.716 46.5831ZM352.633 47.7905L352.084 46.9551L352.078 46.9584L352.633 47.7905ZM351.186 48.4474L350.923 47.4827L350.186 47.6836V48.4474H351.186ZM351.186 48.625H350.186V49.5632L351.122 49.623L351.186 48.625ZM352.864 49.2109L352.33 50.0564L352.864 49.2109ZM354.222 55.6296L355.091 56.1242L354.222 55.6296ZM352.26 57.3608L351.83 56.4582L352.26 57.3608ZM344.403 56.0469H343.403V57.0469H344.403V56.0469ZM351.834 55.2124L352.512 55.9477L352.512 55.9474L351.834 55.2124ZM352.278 51.4659L351.419 51.9776L351.421 51.9818L352.278 51.4659ZM350.938 50.2053L350.455 51.0811L350.462 51.0849L350.938 50.2053ZM344.403 49.7259V48.7259H343.403V49.7259H344.403ZM344.403 47.8082H343.403V48.8082H344.403V47.8082ZM350.281 47.4176L349.845 46.5173L349.841 46.5192L350.281 47.4176ZM351.559 46.3168L350.73 45.7573L350.725 45.7645L351.559 46.3168ZM351.204 42.6147L350.493 43.3181L350.497 43.3218L351.204 42.6147ZM344.403 41.7713V40.7713H343.403V41.7713H344.403ZM343.202 58V39.8182H341.202V58H343.202ZM342.202 40.8182H348.558V38.8182H342.202V40.8182ZM348.558 40.8182C349.717 40.8182 350.587 41.0195 351.222 41.3578L352.162 39.5924C351.152 39.0548 349.933 38.8182 348.558 38.8182V40.8182ZM351.227 41.3605C351.896 41.7116 352.355 42.1621 352.653 42.7049L354.407 41.7432C353.899 40.8182 353.134 40.1028 352.157 39.5898L351.227 41.3605ZM352.655 42.7079C352.97 43.2778 353.134 43.9174 353.134 44.6477H355.134C355.134 43.6024 354.895 42.6263 354.405 41.7402L352.655 42.7079ZM353.134 44.6477C353.134 45.3171 353.014 45.7838 352.839 46.1035L354.594 47.0627C354.975 46.3644 355.134 45.5408 355.134 44.6477H353.134ZM352.834 46.1114C352.635 46.4843 352.384 46.7574 352.084 46.9551L353.183 48.6259C353.782 48.2317 354.253 47.6999 354.598 47.0547L352.834 46.1114ZM352.078 46.9584C351.725 47.194 351.341 47.3686 350.923 47.4827L351.449 49.4122C352.072 49.2422 352.653 48.9788 353.188 48.6225L352.078 46.9584ZM350.186 48.4474V48.625H352.186V48.4474H350.186ZM351.122 49.623C351.482 49.6459 351.882 49.7735 352.33 50.0564L353.398 48.3654C352.721 47.9382 352.003 47.6751 351.25 47.627L351.122 49.623ZM352.33 50.0564C352.735 50.312 353.098 50.692 353.407 51.2341L355.144 50.2418C354.696 49.4581 354.118 48.8201 353.398 48.3654L352.33 50.0564ZM353.407 51.2341C353.68 51.7118 353.844 52.3418 353.844 53.1705H355.844C355.844 52.0815 355.628 51.0898 355.144 50.2418L353.407 51.2341ZM353.844 53.1705C353.844 53.9242 353.674 54.5709 353.353 55.135L355.091 56.1242C355.599 55.2324 355.844 54.2396 355.844 53.1705H353.844ZM353.353 55.135C353.057 55.6549 352.574 56.1036 351.83 56.4582L352.691 58.2634C353.734 57.7657 354.559 57.0603 355.091 56.1242L353.353 55.135ZM351.83 56.4582C351.117 56.7981 350.116 57 348.771 57V59C350.291 59 351.616 58.7757 352.691 58.2634L351.83 56.4582ZM348.771 57H342.202V59H348.771V57ZM344.403 57.0469H348.771V55.0469H344.403V57.0469ZM348.771 57.0469C350.288 57.0469 351.627 56.7631 352.512 55.9477L351.156 54.477C350.834 54.7743 350.131 55.0469 348.771 55.0469V57.0469ZM352.512 55.9474C353.318 55.204 353.749 54.2605 353.749 53.1705H351.749C351.749 53.6785 351.569 54.0962 351.156 54.4773L352.512 55.9474ZM353.749 53.1705C353.749 52.3755 353.543 51.6286 353.135 50.95L351.421 51.9818C351.64 52.3449 351.749 52.7344 351.749 53.1705H353.749ZM353.137 50.9543C352.724 50.2608 352.139 49.7184 351.413 49.3257L350.462 51.0849C350.896 51.3195 351.204 51.6175 351.419 51.9776L353.137 50.9543ZM351.42 49.3294C350.666 48.9137 349.806 48.7259 348.878 48.7259V50.7259C349.535 50.7259 350.049 50.8576 350.455 51.0811L351.42 49.3294ZM348.878 48.7259H344.403V50.7259H348.878V48.7259ZM343.403 49.7259V56.0469H345.403V49.7259H343.403ZM344.403 48.8082H348.487V46.8082H344.403V48.8082ZM348.487 48.8082C349.284 48.8082 350.035 48.6508 350.72 48.316L349.841 46.5192C349.461 46.7053 349.016 46.8082 348.487 46.8082V48.8082ZM350.716 48.3179C351.407 47.9837 351.974 47.5003 352.393 46.8691L350.725 45.7645C350.516 46.0802 350.231 46.3307 349.845 46.5173L350.716 48.3179ZM352.388 46.8762C352.832 46.2182 353.038 45.4617 353.038 44.6477H351.038C351.038 45.1122 350.925 45.4683 350.73 45.7573L352.388 46.8762ZM353.038 44.6477C353.038 43.5881 352.658 42.6547 351.911 41.9076L350.497 43.3218C350.862 43.6874 351.038 44.1093 351.038 44.6477H353.038ZM351.915 41.9113C351.092 41.0795 349.895 40.7713 348.558 40.7713V42.7713C349.637 42.7713 350.203 43.0253 350.493 43.3181L351.915 41.9113ZM348.558 40.7713H344.403V42.7713H348.558V40.7713ZM343.403 41.7713V47.8082H345.403V41.7713H343.403ZM360.273 39.8182H361.273V38.8182H360.273V39.8182ZM360.273 58V59H361.273V58H360.273ZM358.177 58H357.177V59H358.177V58ZM358.177 39.8182V38.8182H357.177V39.8182H358.177ZM359.273 39.8182V58H361.273V39.8182H359.273ZM360.273 57H358.177V59H360.273V57ZM359.177 58V39.8182H357.177V58H359.177ZM358.177 40.8182H360.273V38.8182H358.177V40.8182ZM365.77 57.8313L365.344 58.7362L365.351 58.7391L365.77 57.8313ZM364.092 56.402L363.258 56.9531L363.26 56.9567L364.092 56.402ZM363.932 52.2294L364.777 52.765L364.78 52.7603L363.932 52.2294ZM366.871 50.4538L367.085 51.4307L367.092 51.4291L366.871 50.4538ZM368.762 50.1165L368.634 49.1246L368.632 49.1249L368.762 50.1165ZM370.777 49.8768L370.88 50.8715L370.89 50.8704L370.777 49.8768ZM371.914 49.5838L371.424 48.7116L371.415 48.7169L371.914 49.5838ZM371.559 46.7607L370.843 47.459L370.847 47.4634L371.559 46.7607ZM367.049 46.6896L367.659 47.4816L367.049 46.6896ZM365.85 48.0923L365.514 49.0341L366.373 49.3409L366.757 48.5134L365.85 48.0923ZM363.861 47.3821L362.942 46.9882L362.523 47.966L363.525 48.3238L363.861 47.3821ZM365.282 45.4467L365.897 46.2352L365.898 46.2344L365.282 45.4467ZM367.235 44.4702L367.487 45.4379L367.493 45.4364L367.235 44.4702ZM370.839 44.3459L370.655 45.3288L370.667 45.3309L370.839 44.3459ZM372.5 44.9762L371.985 45.8337L371.989 45.8362L372.5 44.9762ZM373.84 46.4233L372.964 46.9055V46.9055L373.84 46.4233ZM374.373 58V59H375.373V58H374.373ZM372.278 58H371.278V59H372.278V58ZM372.278 56.1534H373.278V55.1534H372.278V56.1534ZM372.171 56.1534V55.1534H371.542L371.27 55.7207L372.171 56.1534ZM371.461 57.1033L372.174 57.8042L371.461 57.1033ZM370.138 57.9645L369.743 57.0459L370.138 57.9645ZM370.538 55.9492L370.044 55.0793L370.04 55.0815L370.538 55.9492ZM371.834 54.6886L370.967 54.1903L370.962 54.1978L371.834 54.6886ZM372.278 51.1463H373.278V48.3842L371.509 50.5061L372.278 51.1463ZM371.692 51.4393L371.961 52.4023L371.974 52.3986L371.692 51.4393ZM370.662 51.6612L370.814 52.6497L370.826 52.6476L370.662 51.6612ZM369.534 51.821L369.648 52.8146L369.662 52.8128L369.534 51.821ZM368.655 51.9276L368.785 52.9192L368.786 52.919L368.655 51.9276ZM367.128 52.2738L367.441 53.2237L367.448 53.2213L367.128 52.2738ZM365.992 52.9751L365.258 52.2963L365.257 52.2969L365.992 52.9751ZM366.374 55.8871L365.805 56.7093L365.815 56.7163L366.374 55.8871ZM368.123 57.3196C367.387 57.3196 366.748 57.1817 366.19 56.9236L365.351 58.7391C366.201 59.132 367.13 59.3196 368.123 59.3196V57.3196ZM366.196 56.9265C365.649 56.6692 365.233 56.3107 364.924 55.8473L363.26 56.9567C363.78 57.7362 364.483 58.3306 365.344 58.7361L366.196 56.9265ZM364.927 55.8509C364.639 55.4148 364.471 54.8572 364.471 54.1293H362.471C362.471 55.1769 362.717 56.1344 363.258 56.9531L364.927 55.8509ZM364.471 54.1293C364.471 53.4716 364.601 53.0422 364.777 52.7649L363.088 51.6939C362.648 52.3872 362.471 53.2244 362.471 54.1293H364.471ZM364.78 52.7603C364.995 52.4171 365.277 52.1519 365.642 51.9551L364.691 50.1955C364.026 50.555 363.485 51.0593 363.085 51.6985L364.78 52.7603ZM365.642 51.9551C366.068 51.725 366.547 51.5485 367.085 51.4307L366.657 49.477C365.952 49.6314 365.295 49.8692 364.691 50.1955L365.642 51.9551ZM367.092 51.4291C367.689 51.2939 368.289 51.1869 368.892 51.108L368.632 49.1249C367.968 49.2118 367.307 49.3297 366.65 49.4785L367.092 51.4291ZM368.89 51.1083C369.714 51.0023 370.377 50.9235 370.88 50.8715L370.674 48.8821C370.148 48.9366 369.467 49.0176 368.634 49.1246L368.89 51.1083ZM370.89 50.8704C371.445 50.8073 371.992 50.6922 372.412 50.4507L371.415 48.7169C371.362 48.7476 371.151 48.8278 370.664 48.8832L370.89 50.8704ZM372.403 50.4559C373.033 50.1025 373.278 49.4817 373.278 48.8736H371.278C371.278 48.9251 371.268 48.9036 371.297 48.8481C371.311 48.8201 371.331 48.7908 371.357 48.7643C371.383 48.738 371.407 48.7212 371.424 48.7117L372.403 50.4559ZM373.278 48.8736V48.8026H371.278V48.8736H373.278ZM373.278 48.8026C373.278 47.7416 372.983 46.7794 372.27 46.0579L370.847 47.4634C371.093 47.7125 371.278 48.1116 371.278 48.8026H373.278ZM372.274 46.0623C371.545 45.3148 370.52 45.0327 369.401 45.0327V47.0327C370.212 47.0327 370.625 47.2359 370.843 47.459L372.274 46.0623ZM369.401 45.0327C368.265 45.0327 367.239 45.2806 366.438 45.8976L367.659 47.4816C367.995 47.2227 368.536 47.0327 369.401 47.0327V45.0327ZM366.438 45.8976C365.781 46.4044 365.259 46.9905 364.943 47.6712L366.757 48.5134C366.903 48.1999 367.18 47.8508 367.659 47.4816L366.438 45.8976ZM366.186 47.1506L364.198 46.4404L363.525 48.3238L365.514 49.0341L366.186 47.1506ZM364.781 47.776C365.083 47.0714 365.462 46.5741 365.897 46.2352L364.667 44.6582C363.918 45.2426 363.351 46.0356 362.942 46.9882L364.781 47.776ZM365.898 46.2344C366.393 45.8474 366.921 45.5854 367.487 45.4379L366.983 43.5025C366.141 43.7219 365.367 44.1109 364.666 44.6591L365.898 46.2344ZM367.493 45.4364C368.125 45.2679 368.737 45.1861 369.33 45.1861V43.1861C368.551 43.1861 367.766 43.2937 366.977 43.5039L367.493 45.4364ZM369.33 45.1861C369.69 45.1861 370.13 45.2302 370.655 45.3288L371.024 43.363C370.413 43.2485 369.846 43.1861 369.33 43.1861V45.1861ZM370.667 45.3309C371.112 45.4089 371.551 45.573 371.985 45.8337L373.014 44.1187C372.383 43.7402 371.715 43.484 371.012 43.3609L370.667 45.3309ZM371.989 45.8362C372.349 46.0499 372.68 46.389 372.964 46.9055L374.716 45.9411C374.29 45.1674 373.727 44.5418 373.01 44.1162L371.989 45.8362ZM372.964 46.9055C373.208 47.3495 373.373 48.0274 373.373 49.0156H375.373C375.373 47.8377 375.182 46.7873 374.716 45.9411L372.964 46.9055ZM373.373 49.0156V58H375.373V49.0156H373.373ZM374.373 57H372.278V59H374.373V57ZM373.278 58V56.1534H371.278V58H373.278ZM372.278 55.1534H372.171V57.1534H372.278V55.1534ZM371.27 55.7207C371.191 55.8843 371.033 56.1121 370.748 56.4025L372.174 57.8042C372.552 57.4199 372.867 57.0144 373.073 56.5861L371.27 55.7207ZM370.748 56.4025C370.528 56.6262 370.205 56.8472 369.743 57.0459L370.533 58.8831C371.172 58.6083 371.731 58.2552 372.174 57.8042L370.748 56.4025ZM369.743 57.0459C369.351 57.2146 368.822 57.3196 368.123 57.3196V59.3196C369.01 59.3196 369.825 59.1879 370.533 58.8831L369.743 57.0459ZM368.442 57.4375C369.4 57.4375 370.28 57.2493 371.035 56.8169L370.04 55.0815C369.659 55.3002 369.142 55.4375 368.442 55.4375V57.4375ZM371.031 56.8191C371.744 56.4147 372.316 55.8706 372.705 55.1793L370.962 54.1978C370.772 54.5364 370.479 54.8327 370.044 55.0793L371.031 56.8191ZM372.701 55.1868C373.08 54.5275 373.278 53.815 373.278 53.0639H371.278C371.278 53.4492 371.18 53.8198 370.967 54.1903L372.701 55.1868ZM373.278 53.0639V51.1463H371.278V53.0639H373.278ZM371.509 50.5061C371.553 50.4536 371.591 50.4241 371.607 50.4125C371.624 50.4005 371.63 50.3988 371.617 50.405C371.606 50.4109 371.583 50.4212 371.547 50.4347C371.511 50.4481 371.466 50.4633 371.41 50.4799L371.974 52.3986C372.159 52.3442 372.344 52.278 372.512 52.1939C372.67 52.1149 372.877 51.9891 373.046 51.7865L371.509 50.5061ZM371.422 50.4763C371.169 50.5472 370.862 50.614 370.497 50.6748L370.826 52.6476C371.243 52.5782 371.623 52.4971 371.961 52.4022L371.422 50.4763ZM370.51 50.6728C370.133 50.7309 369.765 50.783 369.406 50.8292L369.662 52.8128C370.038 52.7644 370.422 52.7099 370.814 52.6496L370.51 50.6728ZM369.42 50.8275C369.057 50.8693 368.758 50.9055 368.525 50.9361L368.786 52.919C369.003 52.8904 369.29 52.8556 369.648 52.8145L369.42 50.8275ZM368.526 50.936C367.923 51.0146 367.35 51.1437 366.809 51.3263L367.448 53.2213C367.854 53.0843 368.299 52.9826 368.785 52.9192L368.526 50.936ZM366.816 51.3239C366.212 51.5227 365.68 51.8401 365.258 52.2963L366.726 53.654C366.885 53.4828 367.11 53.3326 367.441 53.2237L366.816 51.3239ZM365.257 52.2969C364.76 52.8356 364.566 53.5226 364.566 54.2358H366.566C366.566 53.8836 366.656 53.7303 366.727 53.6534L365.257 52.2969ZM364.566 54.2358C364.566 55.2493 364.963 56.1266 365.805 56.7093L366.943 55.0649C366.708 54.9018 366.566 54.6783 366.566 54.2358H364.566ZM365.815 56.7163C366.564 57.2213 367.463 57.4375 368.442 57.4375V55.4375C367.753 55.4375 367.272 55.2868 366.933 55.0578L365.815 56.7163ZM380.292 58V59H381.292V58H380.292ZM378.197 58H377.197V59H378.197V58ZM378.197 39.8182V38.8182H377.197V39.8182H378.197ZM380.292 39.8182H381.292V38.8182H380.292V39.8182ZM380.292 46.4943H379.292V47.4943H380.292V46.4943ZM380.47 46.4943V47.4943H381.114L381.38 46.9075L380.47 46.4943ZM381.908 44.8164L382.452 45.6556L382.454 45.6543L381.908 44.8164ZM386.924 44.7454L386.453 45.6275L386.459 45.6306L386.924 44.7454ZM388.548 46.4411L387.655 46.8911L387.66 46.8993L388.548 46.4411ZM389.134 58V59H390.134V58H389.134ZM387.039 58H386.039V59H387.039V58ZM386.196 46.9648L385.464 47.6462L385.471 47.6536L386.196 46.9648ZM382.032 46.5032L381.562 45.6206L381.558 45.6227L382.032 46.5032ZM380.754 47.7727L379.883 47.2816L379.879 47.2887L380.754 47.7727ZM379.292 49.7969V58H381.292V49.7969H379.292ZM380.292 57H378.197V59H380.292V57ZM379.197 58V39.8182H377.197V58H379.197ZM378.197 40.8182H380.292V38.8182H378.197V40.8182ZM379.292 39.8182V46.4943H381.292V39.8182H379.292ZM380.292 47.4943H380.47V45.4943H380.292V47.4943ZM381.38 46.9075C381.622 46.3745 381.976 45.9642 382.452 45.6556L381.364 43.9773C380.562 44.4972 379.956 45.2055 379.559 46.0811L381.38 46.9075ZM382.454 45.6543C382.884 45.3737 383.532 45.1861 384.482 45.1861V43.1861C383.29 43.1861 382.222 43.4187 381.362 43.9785L382.454 45.6543ZM384.482 45.1861C385.276 45.1861 385.923 45.3445 386.453 45.6275L387.395 43.8632C386.528 43.4006 385.547 43.1861 384.482 43.1861V45.1861ZM386.459 45.6306C386.957 45.8924 387.356 46.2973 387.655 46.891L389.442 45.9911C388.971 45.0579 388.287 44.3322 387.389 43.8601L386.459 45.6306ZM387.66 46.8993C387.955 47.4722 388.134 48.2661 388.134 49.3352H390.134C390.134 48.0606 389.923 46.925 389.437 45.9828L387.66 46.8993ZM388.134 49.3352V58H390.134V49.3352H388.134ZM389.134 57H387.039V59H389.134V57ZM388.039 58V49.4773H386.039V58H388.039ZM388.039 49.4773C388.039 48.2238 387.711 47.108 386.921 46.2761L385.471 47.6536C385.805 48.0054 386.039 48.5645 386.039 49.4773H388.039ZM386.928 46.2836C386.143 45.4405 385.082 45.0682 383.879 45.0682V47.0682C384.653 47.0682 385.136 47.2936 385.464 47.6461L386.928 46.2836ZM383.879 45.0682C383.047 45.0682 382.267 45.2451 381.562 45.6206L382.502 47.3858C382.886 47.1813 383.337 47.0682 383.879 47.0682V45.0682ZM381.558 45.6227C380.845 46.0064 380.285 46.5682 379.883 47.2816L381.625 48.2639C381.85 47.8646 382.142 47.58 382.506 47.3837L381.558 45.6227ZM379.879 47.2887C379.471 48.0255 379.292 48.8757 379.292 49.7969H381.292C381.292 49.1318 381.421 48.6326 381.629 48.2568L379.879 47.2887ZM400.283 58H399.283V59H400.283V58ZM400.283 39.8182V38.8182H399.283V39.8182H400.283ZM409.773 40.4751L409.303 41.3579L409.308 41.3605L409.773 40.4751ZM411.611 42.2241L410.734 42.7049L410.736 42.7079L411.611 42.2241ZM411.797 46.5831L410.92 46.1035L410.916 46.1114L411.797 46.5831ZM410.714 47.7905L410.165 46.9551L410.16 46.9584L410.714 47.7905ZM409.267 48.4474L409.004 47.4827L408.267 47.6836V48.4474H409.267ZM409.267 48.625H408.267V49.5632L409.203 49.623L409.267 48.625ZM410.945 49.2109L410.411 50.0564L410.945 49.2109ZM412.303 55.6296L413.172 56.1242L412.303 55.6296ZM410.341 57.3608L409.911 56.4582L410.341 57.3608ZM402.484 56.0469H401.484V57.0469H402.484V56.0469ZM409.915 55.2124L410.593 55.9477L410.593 55.9474L409.915 55.2124ZM410.359 51.4659L409.5 51.9776L409.502 51.9818L410.359 51.4659ZM409.019 50.2053L408.536 51.0811L408.543 51.0849L409.019 50.2053ZM402.484 49.7259V48.7259H401.484V49.7259H402.484ZM402.484 47.8082H401.484V48.8082H402.484V47.8082ZM408.362 47.4176L407.926 46.5173L407.922 46.5192L408.362 47.4176ZM409.64 46.3168L408.811 45.7573L408.806 45.7645L409.64 46.3168ZM409.285 42.6147L408.574 43.3181L408.578 43.3218L409.285 42.6147ZM402.484 41.7713V40.7713H401.484V41.7713H402.484ZM401.283 58V39.8182H399.283V58H401.283ZM400.283 40.8182H406.639V38.8182H400.283V40.8182ZM406.639 40.8182C407.798 40.8182 408.668 41.0195 409.303 41.3578L410.243 39.5924C409.233 39.0548 408.014 38.8182 406.639 38.8182V40.8182ZM409.308 41.3605C409.977 41.7116 410.436 42.1621 410.734 42.7049L412.488 41.7432C411.98 40.8182 411.215 40.1028 410.238 39.5898L409.308 41.3605ZM410.736 42.7079C411.051 43.2778 411.215 43.9174 411.215 44.6477H413.215C413.215 43.6024 412.976 42.6263 412.486 41.7402L410.736 42.7079ZM411.215 44.6477C411.215 45.3171 411.095 45.7838 410.92 46.1035L412.675 47.0627C413.056 46.3644 413.215 45.5408 413.215 44.6477H411.215ZM410.916 46.1114C410.716 46.4843 410.465 46.7574 410.165 46.9551L411.264 48.6259C411.863 48.2317 412.334 47.6999 412.679 47.0547L410.916 46.1114ZM410.16 46.9584C409.806 47.194 409.422 47.3686 409.004 47.4827L409.53 49.4122C410.154 49.2422 410.735 48.9788 411.269 48.6225L410.16 46.9584ZM408.267 48.4474V48.625H410.267V48.4474H408.267ZM409.203 49.623C409.563 49.6459 409.963 49.7735 410.411 50.0564L411.479 48.3654C410.802 47.9382 410.084 47.6751 409.331 47.627L409.203 49.623ZM410.411 50.0564C410.816 50.312 411.179 50.692 411.488 51.2341L413.225 50.2418C412.777 49.4581 412.199 48.8201 411.479 48.3654L410.411 50.0564ZM411.488 51.2341C411.761 51.7118 411.925 52.3418 411.925 53.1705H413.925C413.925 52.0815 413.709 51.0898 413.225 50.2418L411.488 51.2341ZM411.925 53.1705C411.925 53.9242 411.755 54.5709 411.434 55.135L413.172 56.1242C413.68 55.2324 413.925 54.2396 413.925 53.1705H411.925ZM411.434 55.135C411.138 55.6549 410.655 56.1036 409.911 56.4582L410.772 58.2634C411.816 57.7657 412.64 57.0603 413.172 56.1242L411.434 55.135ZM409.911 56.4582C409.198 56.7981 408.197 57 406.852 57V59C408.372 59 409.697 58.7757 410.772 58.2634L409.911 56.4582ZM406.852 57H400.283V59H406.852V57ZM402.484 57.0469H406.852V55.0469H402.484V57.0469ZM406.852 57.0469C408.369 57.0469 409.708 56.7631 410.593 55.9477L409.238 54.477C408.915 54.7743 408.212 55.0469 406.852 55.0469V57.0469ZM410.593 55.9474C411.399 55.204 411.83 54.2605 411.83 53.1705H409.83C409.83 53.6785 409.65 54.0962 409.237 54.4773L410.593 55.9474ZM411.83 53.1705C411.83 52.3755 411.624 51.6286 411.216 50.95L409.502 51.9818C409.721 52.3449 409.83 52.7344 409.83 53.1705H411.83ZM411.218 50.9543C410.805 50.2608 410.221 49.7184 409.494 49.3257L408.543 51.0849C408.977 51.3195 409.286 51.6175 409.5 51.9776L411.218 50.9543ZM409.501 49.3294C408.747 48.9137 407.887 48.7259 406.959 48.7259V50.7259C407.616 50.7259 408.13 50.8576 408.536 51.0811L409.501 49.3294ZM406.959 48.7259H402.484V50.7259H406.959V48.7259ZM401.484 49.7259V56.0469H403.484V49.7259H401.484ZM402.484 48.8082H406.568V46.8082H402.484V48.8082ZM406.568 48.8082C407.365 48.8082 408.116 48.6508 408.801 48.316L407.922 46.5192C407.542 46.7053 407.097 46.8082 406.568 46.8082V48.8082ZM408.797 48.3179C409.488 47.9837 410.055 47.5003 410.474 46.8691L408.806 45.7645C408.597 46.0802 408.312 46.3307 407.926 46.5173L408.797 48.3179ZM410.469 46.8762C410.913 46.2182 411.119 45.4617 411.119 44.6477H409.119C409.119 45.1122 409.006 45.4683 408.811 45.7573L410.469 46.8762ZM411.119 44.6477C411.119 43.5881 410.739 42.6547 409.992 41.9076L408.578 43.3218C408.943 43.6874 409.119 44.1093 409.119 44.6477H411.119ZM409.996 41.9113C409.173 41.0795 407.976 40.7713 406.639 40.7713V42.7713C407.718 42.7713 408.284 43.0253 408.574 43.3181L409.996 41.9113ZM406.639 40.7713H402.484V42.7713H406.639V40.7713ZM401.484 41.7713V47.8082H403.484V41.7713H401.484ZM418.354 39.8182H419.354V38.8182H418.354V39.8182ZM418.354 58V59H419.354V58H418.354ZM416.258 58H415.258V59H416.258V58ZM416.258 39.8182V38.8182H415.258V39.8182H416.258ZM417.354 39.8182V58H419.354V39.8182H417.354ZM418.354 57H416.258V59H418.354V57ZM417.258 58V39.8182H415.258V58H417.258ZM416.258 40.8182H418.354V38.8182H416.258V40.8182ZM423.851 57.8313L423.425 58.7362L423.432 58.7391L423.851 57.8313ZM422.173 56.402L421.339 56.9531L421.341 56.9567L422.173 56.402ZM422.013 52.2294L422.858 52.765L422.861 52.7603L422.013 52.2294ZM424.952 50.4538L425.166 51.4307L425.173 51.4291L424.952 50.4538ZM426.843 50.1165L426.716 49.1246L426.713 49.1249L426.843 50.1165ZM428.858 49.8768L428.961 50.8715L428.971 50.8704L428.858 49.8768ZM429.995 49.5838L429.505 48.7116L429.496 48.7169L429.995 49.5838ZM429.64 46.7607L428.924 47.459L428.928 47.4634L429.64 46.7607ZM425.13 46.6896L425.74 47.4816L425.13 46.6896ZM423.931 48.0923L423.595 49.0341L424.454 49.3409L424.838 48.5134L423.931 48.0923ZM421.942 47.3821L421.023 46.9882L420.604 47.966L421.606 48.3238L421.942 47.3821ZM423.363 45.4467L423.978 46.2352L423.979 46.2344L423.363 45.4467ZM425.316 44.4702L425.568 45.4379L425.574 45.4364L425.316 44.4702ZM428.92 44.3459L428.736 45.3288L428.748 45.3309L428.92 44.3459ZM430.581 44.9762L430.066 45.8337L430.07 45.8362L430.581 44.9762ZM431.921 46.4233L431.045 46.9055V46.9055L431.921 46.4233ZM432.454 58V59H433.454V58H432.454ZM430.359 58H429.359V59H430.359V58ZM430.359 56.1534H431.359V55.1534H430.359V56.1534ZM430.252 56.1534V55.1534H429.623L429.351 55.7207L430.252 56.1534ZM429.542 57.1033L430.255 57.8042L429.542 57.1033ZM428.219 57.9645L427.824 57.0459L428.219 57.9645ZM428.619 55.9492L428.125 55.0793L428.121 55.0815L428.619 55.9492ZM429.915 54.6886L429.048 54.1903L429.043 54.1978L429.915 54.6886ZM430.359 51.1463H431.359V48.3842L429.59 50.5061L430.359 51.1463ZM429.773 51.4393L430.042 52.4023L430.055 52.3986L429.773 51.4393ZM428.743 51.6612L428.895 52.6497L428.907 52.6476L428.743 51.6612ZM427.615 51.821L427.729 52.8146L427.743 52.8128L427.615 51.821ZM426.737 51.9276L426.866 52.9192L426.867 52.919L426.737 51.9276ZM425.21 52.2738L425.522 53.2237L425.529 53.2213L425.21 52.2738ZM424.073 52.9751L423.339 52.2963L423.338 52.2969L424.073 52.9751ZM424.455 55.8871L423.886 56.7093L423.896 56.7163L424.455 55.8871ZM426.204 57.3196C425.468 57.3196 424.829 57.1817 424.271 56.9236L423.432 58.7391C424.282 59.132 425.211 59.3196 426.204 59.3196V57.3196ZM424.277 56.9265C423.73 56.6692 423.314 56.3107 423.005 55.8473L421.341 56.9567C421.861 57.7362 422.564 58.3306 423.425 58.7361L424.277 56.9265ZM423.008 55.8509C422.72 55.4148 422.552 54.8572 422.552 54.1293H420.552C420.552 55.1769 420.798 56.1344 421.339 56.9531L423.008 55.8509ZM422.552 54.1293C422.552 53.4716 422.682 53.0422 422.858 52.7649L421.169 51.6939C420.729 52.3872 420.552 53.2244 420.552 54.1293H422.552ZM422.861 52.7603C423.076 52.4171 423.358 52.1519 423.723 51.9551L422.772 50.1955C422.107 50.555 421.567 51.0593 421.166 51.6985L422.861 52.7603ZM423.723 51.9551C424.149 51.725 424.628 51.5485 425.166 51.4307L424.738 49.477C424.033 49.6314 423.376 49.8692 422.772 50.1955L423.723 51.9551ZM425.173 51.4291C425.77 51.2939 426.37 51.1869 426.973 51.108L426.713 49.1249C426.049 49.2118 425.388 49.3297 424.731 49.4785L425.173 51.4291ZM426.971 51.1083C427.795 51.0023 428.458 50.9235 428.961 50.8715L428.755 48.8821C428.229 48.9366 427.548 49.0176 426.716 49.1246L426.971 51.1083ZM428.971 50.8704C429.526 50.8073 430.073 50.6922 430.493 50.4507L429.496 48.7169C429.443 48.7476 429.232 48.8278 428.745 48.8832L428.971 50.8704ZM430.484 50.4559C431.114 50.1025 431.359 49.4817 431.359 48.8736H429.359C429.359 48.9251 429.349 48.9036 429.378 48.8481C429.392 48.8201 429.412 48.7908 429.438 48.7643C429.464 48.738 429.488 48.7212 429.505 48.7117L430.484 50.4559ZM431.359 48.8736V48.8026H429.359V48.8736H431.359ZM431.359 48.8026C431.359 47.7416 431.064 46.7794 430.351 46.0579L428.928 47.4634C429.174 47.7125 429.359 48.1116 429.359 48.8026H431.359ZM430.355 46.0623C429.626 45.3148 428.601 45.0327 427.482 45.0327V47.0327C428.293 47.0327 428.706 47.2359 428.924 47.459L430.355 46.0623ZM427.482 45.0327C426.347 45.0327 425.32 45.2806 424.519 45.8976L425.74 47.4816C426.076 47.2227 426.618 47.0327 427.482 47.0327V45.0327ZM424.519 45.8976C423.862 46.4044 423.34 46.9905 423.024 47.6712L424.838 48.5134C424.984 48.1999 425.261 47.8508 425.74 47.4816L424.519 45.8976ZM424.267 47.1506L422.279 46.4404L421.606 48.3238L423.595 49.0341L424.267 47.1506ZM422.862 47.776C423.164 47.0714 423.543 46.5741 423.978 46.2352L422.748 44.6582C421.999 45.2426 421.432 46.0356 421.023 46.9882L422.862 47.776ZM423.979 46.2344C424.474 45.8474 425.002 45.5854 425.568 45.4379L425.064 43.5025C424.222 43.7219 423.448 44.1109 422.747 44.6591L423.979 46.2344ZM425.574 45.4364C426.206 45.2679 426.818 45.1861 427.411 45.1861V43.1861C426.632 43.1861 425.847 43.2937 425.058 43.5039L425.574 45.4364ZM427.411 45.1861C427.771 45.1861 428.211 45.2302 428.736 45.3288L429.105 43.363C428.494 43.2485 427.927 43.1861 427.411 43.1861V45.1861ZM428.748 45.3309C429.193 45.4089 429.632 45.573 430.066 45.8337L431.095 44.1187C430.464 43.7402 429.796 43.484 429.093 43.3609L428.748 45.3309ZM430.07 45.8362C430.43 46.0499 430.761 46.389 431.045 46.9055L432.797 45.9411C432.371 45.1674 431.808 44.5418 431.091 44.1162L430.07 45.8362ZM431.045 46.9055C431.29 47.3495 431.454 48.0274 431.454 49.0156H433.454C433.454 47.8377 433.263 46.7873 432.797 45.9411L431.045 46.9055ZM431.454 49.0156V58H433.454V49.0156H431.454ZM432.454 57H430.359V59H432.454V57ZM431.359 58V56.1534H429.359V58H431.359ZM430.359 55.1534H430.252V57.1534H430.359V55.1534ZM429.351 55.7207C429.272 55.8843 429.114 56.1121 428.829 56.4025L430.255 57.8042C430.633 57.4199 430.948 57.0144 431.154 56.5861L429.351 55.7207ZM428.829 56.4025C428.609 56.6262 428.286 56.8472 427.824 57.0459L428.614 58.8831C429.253 58.6083 429.812 58.2552 430.255 57.8042L428.829 56.4025ZM427.824 57.0459C427.432 57.2146 426.903 57.3196 426.204 57.3196V59.3196C427.091 59.3196 427.906 59.1879 428.614 58.8831L427.824 57.0459ZM426.523 57.4375C427.481 57.4375 428.361 57.2493 429.116 56.8169L428.121 55.0815C427.74 55.3002 427.223 55.4375 426.523 55.4375V57.4375ZM429.112 56.8191C429.825 56.4147 430.397 55.8706 430.786 55.1793L429.043 54.1978C428.853 54.5364 428.56 54.8327 428.125 55.0793L429.112 56.8191ZM430.782 55.1868C431.161 54.5275 431.359 53.815 431.359 53.0639H429.359C429.359 53.4492 429.261 53.8198 429.048 54.1903L430.782 55.1868ZM431.359 53.0639V51.1463H429.359V53.0639H431.359ZM429.59 50.5061C429.634 50.4536 429.672 50.4241 429.688 50.4125C429.705 50.4005 429.711 50.3988 429.698 50.405C429.687 50.4109 429.664 50.4212 429.628 50.4347C429.592 50.4481 429.547 50.4633 429.491 50.4799L430.055 52.3986C430.24 52.3442 430.425 52.278 430.593 52.1939C430.751 52.1149 430.958 51.9891 431.127 51.7865L429.59 50.5061ZM429.503 50.4763C429.25 50.5472 428.943 50.614 428.578 50.6748L428.907 52.6476C429.324 52.5782 429.704 52.4971 430.042 52.4022L429.503 50.4763ZM428.591 50.6728C428.214 50.7309 427.846 50.783 427.487 50.8292L427.743 52.8128C428.119 52.7644 428.503 52.7099 428.895 52.6496L428.591 50.6728ZM427.501 50.8275C427.138 50.8693 426.839 50.9055 426.606 50.9361L426.867 52.919C427.084 52.8904 427.371 52.8556 427.729 52.8145L427.501 50.8275ZM426.607 50.936C426.004 51.0146 425.431 51.1437 424.89 51.3263L425.529 53.2213C425.935 53.0843 426.38 52.9826 426.866 52.9192L426.607 50.936ZM424.897 51.3239C424.293 51.5227 423.761 51.8401 423.339 52.2963L424.807 53.654C424.966 53.4828 425.191 53.3326 425.522 53.2237L424.897 51.3239ZM423.338 52.2969C422.841 52.8356 422.647 53.5226 422.647 54.2358H424.647C424.647 53.8836 424.737 53.7303 424.808 53.6534L423.338 52.2969ZM422.647 54.2358C422.647 55.2493 423.044 56.1266 423.886 56.7093L425.024 55.0649C424.789 54.9018 424.647 54.6783 424.647 54.2358H422.647ZM423.896 56.7163C424.645 57.2213 425.544 57.4375 426.523 57.4375V55.4375C425.834 55.4375 425.354 55.2868 425.014 55.0578L423.896 56.7163ZM438.373 58V59H439.373V58H438.373ZM436.278 58H435.278V59H436.278V58ZM436.278 39.8182V38.8182H435.278V39.8182H436.278ZM438.373 39.8182H439.373V38.8182H438.373V39.8182ZM438.373 46.4943H437.373V47.4943H438.373V46.4943ZM438.551 46.4943V47.4943H439.195L439.461 46.9075L438.551 46.4943ZM439.989 44.8164L440.533 45.6556L440.535 45.6543L439.989 44.8164ZM445.005 44.7454L444.534 45.6275L444.54 45.6306L445.005 44.7454ZM446.63 46.4411L445.736 46.8911L445.741 46.8993L446.63 46.4411ZM447.215 58V59H448.215V58H447.215ZM445.12 58H444.12V59H445.12V58ZM444.277 46.9648L443.545 47.6462L443.552 47.6536L444.277 46.9648ZM440.113 46.5032L439.643 45.6206L439.639 45.6227L440.113 46.5032ZM438.835 47.7727L437.964 47.2816L437.96 47.2887L438.835 47.7727ZM437.373 49.7969V58H439.373V49.7969H437.373ZM438.373 57H436.278V59H438.373V57ZM437.278 58V39.8182H435.278V58H437.278ZM436.278 40.8182H438.373V38.8182H436.278V40.8182ZM437.373 39.8182V46.4943H439.373V39.8182H437.373ZM438.373 47.4943H438.551V45.4943H438.373V47.4943ZM439.461 46.9075C439.703 46.3745 440.057 45.9642 440.533 45.6556L439.445 43.9773C438.643 44.4972 438.037 45.2055 437.64 46.0811L439.461 46.9075ZM440.535 45.6543C440.965 45.3737 441.613 45.1861 442.563 45.1861V43.1861C441.371 43.1861 440.303 43.4187 439.443 43.9785L440.535 45.6543ZM442.563 45.1861C443.357 45.1861 444.004 45.3445 444.534 45.6275L445.476 43.8632C444.609 43.4006 443.628 43.1861 442.563 43.1861V45.1861ZM444.54 45.6306C445.038 45.8924 445.437 46.2973 445.736 46.891L447.523 45.9911C447.052 45.0579 446.369 44.3322 445.47 43.8601L444.54 45.6306ZM445.741 46.8993C446.036 47.4722 446.215 48.2661 446.215 49.3352H448.215C448.215 48.0606 448.004 46.925 447.518 45.9828L445.741 46.8993ZM446.215 49.3352V58H448.215V49.3352H446.215ZM447.215 57H445.12V59H447.215V57ZM446.12 58V49.4773H444.12V58H446.12ZM446.12 49.4773C446.12 48.2238 445.792 47.108 445.002 46.2761L443.552 47.6536C443.886 48.0054 444.12 48.5645 444.12 49.4773H446.12ZM445.009 46.2836C444.224 45.4405 443.163 45.0682 441.96 45.0682V47.0682C442.734 47.0682 443.217 47.2936 443.545 47.6461L445.009 46.2836ZM441.96 45.0682C441.128 45.0682 440.348 45.2451 439.643 45.6206L440.583 47.3858C440.967 47.1813 441.418 47.0682 441.96 47.0682V45.0682ZM439.639 45.6227C438.926 46.0064 438.366 46.5682 437.964 47.2816L439.706 48.2639C439.931 47.8646 440.223 47.58 440.587 47.3837L439.639 45.6227ZM437.96 47.2887C437.552 48.0255 437.373 48.8757 437.373 49.7969H439.373C439.373 49.1318 439.502 48.6326 439.71 48.2568L437.96 47.2887ZM453.818 39.8182L454.818 39.8318L454.832 38.8182H453.818V39.8182ZM453.641 52.8864V53.8864H454.627L454.641 52.8999L453.641 52.8864ZM451.581 52.8864L450.581 52.8999L450.595 53.8864H451.581V52.8864ZM451.404 39.8182V38.8182H450.39L450.404 39.8318L451.404 39.8182ZM451.483 57.6715L452.191 56.9644L451.483 57.6715ZM453.738 55.4165L454.446 54.7094L453.738 55.4165ZM453.987 57.343L453.133 56.8224L453.129 56.8301L453.124 56.8379L453.987 57.343ZM453.41 57.929L453.924 58.7865L453.931 58.7828L453.41 57.929ZM452.818 39.8046L452.641 52.8728L454.641 52.8999L454.818 39.8318L452.818 39.8046ZM453.641 51.8864H451.581V53.8864H453.641V51.8864ZM452.581 52.8728L452.403 39.8046L450.404 39.8318L450.581 52.8999L452.581 52.8728ZM451.404 40.8182H453.818V38.8182H451.404V40.8182ZM452.611 57.142C452.442 57.142 452.319 57.0933 452.191 56.9644L450.776 58.3786C451.275 58.8771 451.904 59.142 452.611 59.142V57.142ZM452.191 56.9644C452.062 56.8356 452.013 56.713 452.013 56.544H450.013C450.013 57.251 450.278 57.8801 450.776 58.3786L452.191 56.9644ZM452.013 56.544C452.013 56.3751 452.062 56.2525 452.191 56.1237L450.776 54.7094C450.278 55.2079 450.013 55.837 450.013 56.544H452.013ZM452.191 56.1237C452.319 55.9948 452.442 55.946 452.611 55.946V53.946C451.904 53.946 451.275 54.2109 450.776 54.7094L452.191 56.1237ZM452.611 55.946C452.78 55.946 452.902 55.9948 453.031 56.1237L454.446 54.7094C453.947 54.2109 453.318 53.946 452.611 53.946V55.946ZM453.031 56.1237C453.16 56.2525 453.209 56.3751 453.209 56.544H455.209C455.209 55.837 454.944 55.2079 454.446 54.7094L453.031 56.1237ZM453.209 56.544C453.209 56.6543 453.184 56.7399 453.133 56.8224L454.841 57.8636C455.086 57.4608 455.209 57.0138 455.209 56.544H453.209ZM453.124 56.8379C453.066 56.9362 452.992 57.0123 452.889 57.0752L453.931 58.7828C454.313 58.5497 454.624 58.2352 454.85 57.8482L453.124 56.8379ZM452.895 57.0715C452.825 57.1136 452.739 57.142 452.611 57.142V59.142C453.075 59.142 453.521 59.0285 453.924 58.7865L452.895 57.0715Z" fill="black"/>
<g filter="url(#filter1_d_3_80)">
<path d="M149.689 183.529C149.689 207.569 117.075 227.058 76.8444 227.058C36.6136 227.058 4 207.569 4 183.529C4 159.489 36.6136 140 76.8444 140C117.075 140 149.689 159.489 149.689 183.529Z" fill="#EBECED"/>
<path d="M143.267 244.9L98.9396 210.813L126.397 191.587L143.267 244.9Z" fill="#EBECED"/>
</g>
<path d="M50.2017 193V174.818H56.5582C57.8248 174.818 58.8694 175.037 59.6921 175.475C60.5148 175.907 61.1274 176.49 61.5298 177.224C61.9323 177.952 62.1335 178.76 62.1335 179.648C62.1335 180.429 61.9944 181.074 61.7163 181.583C61.444 182.092 61.083 182.495 60.6332 182.79C60.1893 183.086 59.7069 183.305 59.1861 183.447V183.625C59.7424 183.661 60.3017 183.856 60.864 184.211C61.4263 184.566 61.8968 185.075 62.2756 185.738C62.6544 186.401 62.8438 187.212 62.8438 188.17C62.8438 189.082 62.6366 189.902 62.2223 190.63C61.808 191.358 61.154 191.935 60.2603 192.361C59.3666 192.787 58.2036 193 56.7713 193H50.2017ZM52.4034 191.047H56.7713C58.2095 191.047 59.2305 190.769 59.8342 190.212C60.4438 189.65 60.7486 188.969 60.7486 188.17C60.7486 187.555 60.5917 186.987 60.2781 186.466C59.9644 185.939 59.5175 185.519 58.9375 185.205C58.3575 184.886 57.6709 184.726 56.8778 184.726H52.4034V191.047ZM52.4034 182.808H56.4872C57.1501 182.808 57.7479 182.678 58.2805 182.418C58.8191 182.157 59.2453 181.79 59.5589 181.317C59.8786 180.843 60.0384 180.287 60.0384 179.648C60.0384 178.849 59.7602 178.171 59.2038 177.615C58.6475 177.052 57.7656 176.771 56.5582 176.771H52.4034V182.808ZM68.2725 174.818V193H66.1774V174.818H68.2725ZM76.1228 193.32C75.2587 193.32 74.4745 193.157 73.7702 192.831C73.0658 192.5 72.5065 192.023 72.0922 191.402C71.6779 190.775 71.4708 190.017 71.4708 189.129C71.4708 188.348 71.6247 187.715 71.9324 187.229C72.2402 186.738 72.6515 186.353 73.1665 186.075C73.6814 185.797 74.2496 185.59 74.871 185.454C75.4984 185.312 76.1287 185.199 76.762 185.116C77.5906 185.01 78.2623 184.93 78.7773 184.877C79.2981 184.818 79.6769 184.72 79.9136 184.584C80.1563 184.448 80.2776 184.211 80.2776 183.874V183.803C80.2776 182.927 80.0379 182.246 79.5585 181.761C79.085 181.275 78.3659 181.033 77.4012 181.033C76.401 181.033 75.6167 181.252 75.0486 181.69C74.4804 182.128 74.0809 182.595 73.8501 183.092L71.8614 182.382C72.2165 181.554 72.69 180.908 73.2819 180.447C73.8796 179.979 74.5307 179.654 75.235 179.47C75.9452 179.281 76.6436 179.186 77.3302 179.186C77.7681 179.186 78.2712 179.239 78.8394 179.346C79.4135 179.446 79.9669 179.657 80.4996 179.976C81.0381 180.296 81.485 180.778 81.8401 181.423C82.1952 182.068 82.3728 182.933 82.3728 184.016V193H80.2776V191.153H80.1711C80.029 191.449 79.7923 191.766 79.4608 192.103C79.1294 192.441 78.6885 192.728 78.1381 192.964C77.5876 193.201 76.9159 193.32 76.1228 193.32ZM76.4424 191.438C77.271 191.438 77.9694 191.275 78.5376 190.949C79.1117 190.624 79.5437 190.203 79.8337 189.689C80.1296 189.174 80.2776 188.632 80.2776 188.064V186.146C80.1888 186.253 79.9935 186.35 79.6917 186.439C79.3957 186.522 79.0525 186.596 78.6618 186.661C78.2771 186.72 77.9013 186.774 77.5344 186.821C77.1733 186.862 76.8804 186.898 76.6555 186.928C76.1109 186.999 75.6019 187.114 75.1285 187.274C74.6609 187.428 74.2821 187.661 73.9921 187.975C73.708 188.283 73.566 188.703 73.566 189.236C73.566 189.964 73.8353 190.514 74.3738 190.887C74.9184 191.254 75.6079 191.438 76.4424 191.438ZM88.2921 184.797V193H86.1969V174.818H88.2921V181.494H88.4696C88.7892 180.79 89.2686 180.231 89.9078 179.816C90.553 179.396 91.4112 179.186 92.4824 179.186C93.4116 179.186 94.2254 179.373 94.9238 179.745C95.6222 180.112 96.1638 180.678 96.5485 181.441C96.9391 182.199 97.1344 183.163 97.1344 184.335V193H95.0392V184.477C95.0392 183.394 94.7581 182.557 94.1958 181.965C93.6395 181.367 92.8671 181.068 91.8787 181.068C91.1922 181.068 90.5766 181.213 90.0321 181.503C89.4935 181.793 89.0674 182.216 88.7537 182.773C88.446 183.329 88.2921 184.004 88.2921 184.797ZM103.737 174.818L103.56 187.886H101.5L101.323 174.818H103.737ZM102.53 193.142C102.092 193.142 101.716 192.985 101.402 192.672C101.089 192.358 100.932 191.982 100.932 191.544C100.932 191.106 101.089 190.73 101.402 190.417C101.716 190.103 102.092 189.946 102.53 189.946C102.968 189.946 103.344 190.103 103.657 190.417C103.971 190.73 104.128 191.106 104.128 191.544C104.128 191.834 104.054 192.1 103.906 192.343C103.764 192.586 103.572 192.781 103.329 192.929C103.092 193.071 102.826 193.142 102.53 193.142Z" fill="black"/>
<path d="M50.2017 193H49.2017V194H50.2017V193ZM50.2017 174.818V173.818H49.2017V174.818H50.2017ZM59.6921 175.475L59.2222 176.358L59.2272 176.36L59.6921 175.475ZM61.5298 177.224L60.653 177.705L60.6547 177.708L61.5298 177.224ZM61.7163 181.583L60.8387 181.104L60.8345 181.111L61.7163 181.583ZM60.6332 182.79L60.0835 181.955L60.0785 181.958L60.6332 182.79ZM59.1861 183.447L58.923 182.483L58.1861 182.684V183.447H59.1861ZM59.1861 183.625H58.1861V184.563L59.1224 184.623L59.1861 183.625ZM60.864 184.211L60.33 185.056L60.864 184.211ZM62.2223 190.63L63.0914 191.124L62.2223 190.63ZM60.2603 192.361L59.8299 191.458L60.2603 192.361ZM52.4034 191.047H51.4034V192.047H52.4034V191.047ZM59.8342 190.212L60.5118 190.948L60.5121 190.947L59.8342 190.212ZM60.2781 186.466L59.4189 186.978L59.4214 186.982L60.2781 186.466ZM58.9375 185.205L58.4549 186.081L58.4618 186.085L58.9375 185.205ZM52.4034 184.726V183.726H51.4034V184.726H52.4034ZM52.4034 182.808H51.4034V183.808H52.4034V182.808ZM58.2805 182.418L57.8452 181.517L57.8413 181.519L58.2805 182.418ZM59.5589 181.317L58.7301 180.757L58.7253 180.764L59.5589 181.317ZM59.2038 177.615L58.493 178.318L58.4967 178.322L59.2038 177.615ZM52.4034 176.771V175.771H51.4034V176.771H52.4034ZM51.2017 193V174.818H49.2017V193H51.2017ZM50.2017 175.818H56.5582V173.818H50.2017V175.818ZM56.5582 175.818C57.7171 175.818 58.5867 176.02 59.2222 176.358L60.162 174.592C59.1522 174.055 57.9326 173.818 56.5582 173.818V175.818ZM59.2272 176.36C59.8957 176.712 60.3554 177.162 60.653 177.705L62.4066 176.743C61.8994 175.818 61.1339 175.103 60.1571 174.59L59.2272 176.36ZM60.6547 177.708C60.9697 178.278 61.1335 178.917 61.1335 179.648H63.1335C63.1335 178.602 62.8948 177.626 62.405 176.74L60.6547 177.708ZM61.1335 179.648C61.1335 180.317 61.0135 180.784 60.8388 181.104L62.5938 182.063C62.9754 181.364 63.1335 180.541 63.1335 179.648H61.1335ZM60.8345 181.111C60.635 181.484 60.3841 181.757 60.0836 181.955L61.1828 183.626C61.7819 183.232 62.253 182.7 62.598 182.055L60.8345 181.111ZM60.0785 181.958C59.7251 182.194 59.3414 182.369 58.923 182.483L59.4492 184.412C60.0725 184.242 60.6535 183.979 61.1879 183.623L60.0785 181.958ZM58.1861 183.447V183.625H60.1861V183.447H58.1861ZM59.1224 184.623C59.4822 184.646 59.882 184.773 60.33 185.056L61.398 183.365C60.7214 182.938 60.0026 182.675 59.2498 182.627L59.1224 184.623ZM60.33 185.056C60.7347 185.312 61.0976 185.692 61.4073 186.234L63.1438 185.242C62.696 184.458 62.1178 183.82 61.398 183.365L60.33 185.056ZM61.4073 186.234C61.6803 186.712 61.8438 187.342 61.8438 188.17H63.8438C63.8438 187.082 63.6284 186.09 63.1438 185.242L61.4073 186.234ZM61.8438 188.17C61.8438 188.924 61.6742 189.571 61.3532 190.135L63.0914 191.124C63.599 190.232 63.8438 189.24 63.8438 188.17H61.8438ZM61.3532 190.135C61.0573 190.655 60.5735 191.104 59.8299 191.458L60.6907 193.263C61.7345 192.766 62.5587 192.06 63.0914 191.124L61.3532 190.135ZM59.8299 191.458C59.1169 191.798 58.1162 192 56.7713 192V194C58.291 194 59.6163 193.776 60.6907 193.263L59.8299 191.458ZM56.7713 192H50.2017V194H56.7713V192ZM52.4034 192.047H56.7713V190.047H52.4034V192.047ZM56.7713 192.047C58.2881 192.047 59.627 191.763 60.5118 190.948L59.1565 189.477C58.8339 189.774 58.131 190.047 56.7713 190.047V192.047ZM60.5121 190.947C61.3182 190.204 61.7486 189.26 61.7486 188.17H59.7486C59.7486 188.678 59.5693 189.096 59.1562 189.477L60.5121 190.947ZM61.7486 188.17C61.7486 187.375 61.5434 186.629 61.1347 185.95L59.4214 186.982C59.6401 187.345 59.7486 187.734 59.7486 188.17H61.7486ZM61.1372 185.954C60.7243 185.261 60.1395 184.718 59.4132 184.326L58.4618 186.085C58.8956 186.319 59.2045 186.618 59.4189 186.978L61.1372 185.954ZM59.4201 184.329C58.6656 183.914 57.8064 183.726 56.8778 183.726V185.726C57.5354 185.726 58.0493 185.858 58.4549 186.081L59.4201 184.329ZM56.8778 183.726H52.4034V185.726H56.8778V183.726ZM51.4034 184.726V191.047H53.4034V184.726H51.4034ZM52.4034 183.808H56.4872V181.808H52.4034V183.808ZM56.4872 183.808C57.2842 183.808 58.0349 183.651 58.7198 183.316L57.8413 181.519C57.4608 181.705 57.016 181.808 56.4872 181.808V183.808ZM58.7158 183.318C59.4071 182.984 59.9744 182.5 60.3926 181.869L58.7253 180.764C58.5161 181.08 58.2312 181.331 57.8452 181.517L58.7158 183.318ZM60.3878 181.876C60.832 181.218 61.0384 180.462 61.0384 179.648H59.0384C59.0384 180.112 58.9251 180.468 58.7301 180.757L60.3878 181.876ZM61.0384 179.648C61.0384 178.588 60.6581 177.655 59.9109 176.908L58.4967 178.322C58.8623 178.687 59.0384 179.109 59.0384 179.648H61.0384ZM59.9147 176.911C59.0916 176.08 57.8945 175.771 56.5582 175.771V177.771C57.6368 177.771 58.2034 178.025 58.493 178.318L59.9147 176.911ZM56.5582 175.771H52.4034V177.771H56.5582V175.771ZM51.4034 176.771V182.808H53.4034V176.771H51.4034ZM68.2726 174.818H69.2726V173.818H68.2726V174.818ZM68.2726 193V194H69.2726V193H68.2726ZM66.1774 193H65.1774V194H66.1774V193ZM66.1774 174.818V173.818H65.1774V174.818H66.1774ZM67.2726 174.818V193H69.2726V174.818H67.2726ZM68.2726 192H66.1774V194H68.2726V192ZM67.1774 193V174.818H65.1774V193H67.1774ZM66.1774 175.818H68.2726V173.818H66.1774V175.818ZM73.7702 192.831L73.3443 193.736L73.3506 193.739L73.7702 192.831ZM72.0922 191.402L71.2578 191.953L71.2602 191.957L72.0922 191.402ZM71.9324 187.229L72.777 187.765L72.7799 187.76L71.9324 187.229ZM74.871 185.454L75.085 186.431L75.0918 186.429L74.871 185.454ZM76.762 185.116L76.6345 184.125L76.6322 184.125L76.762 185.116ZM78.7773 184.877L78.8802 185.872L78.8902 185.87L78.7773 184.877ZM79.9136 184.584L79.4243 183.712L79.4151 183.717L79.9136 184.584ZM79.5585 181.761L78.8427 182.459L78.8471 182.463L79.5585 181.761ZM75.0486 181.69L75.6591 182.482L75.0486 181.69ZM73.8501 183.092L73.5137 184.034L74.3729 184.341L74.7571 183.513L73.8501 183.092ZM71.8614 182.382L70.9423 181.988L70.5232 182.966L71.5251 183.324L71.8614 182.382ZM73.2819 180.447L73.8969 181.235L73.898 181.234L73.2819 180.447ZM75.235 179.47L75.4871 180.438L75.4927 180.436L75.235 179.47ZM78.8394 179.346L78.6551 180.329L78.6668 180.331L78.8394 179.346ZM80.4996 179.976L79.9851 180.834L79.9892 180.836L80.4996 179.976ZM81.8401 181.423L80.9641 181.906V181.906L81.8401 181.423ZM82.3728 193V194H83.3728V193H82.3728ZM80.2776 193H79.2776V194H80.2776V193ZM80.2776 191.153H81.2776V190.153H80.2776V191.153ZM80.1711 191.153V190.153H79.5418L79.2696 190.721L80.1711 191.153ZM79.4608 192.103L80.1742 192.804L79.4608 192.103ZM78.1381 192.964L77.7429 192.046L78.1381 192.964ZM78.5376 190.949L78.0443 190.079L78.0404 190.082L78.5376 190.949ZM79.8337 189.689L78.9667 189.19L78.9624 189.198L79.8337 189.689ZM80.2776 186.146H81.2776V183.384L79.5094 185.506L80.2776 186.146ZM79.6917 186.439L79.9613 187.402L79.9738 187.399L79.6917 186.439ZM78.6618 186.661L78.8139 187.65L78.8262 187.648L78.6618 186.661ZM77.5344 186.821L77.6484 187.815L77.6623 187.813L77.5344 186.821ZM76.6555 186.928L76.7848 187.919L76.7859 187.919L76.6555 186.928ZM75.1285 187.274L75.4411 188.224L75.4482 188.221L75.1285 187.274ZM73.9921 187.975L73.2578 187.296L73.2573 187.297L73.9921 187.975ZM74.3738 190.887L73.8046 191.709L73.815 191.716L74.3738 190.887ZM76.1228 192.32C75.387 192.32 74.7482 192.182 74.1897 191.924L73.3506 193.739C74.2007 194.132 75.1304 194.32 76.1228 194.32V192.32ZM74.1959 191.927C73.6491 191.669 73.2332 191.311 72.9243 190.847L71.2602 191.957C71.7799 192.736 72.4826 193.331 73.3444 193.736L74.1959 191.927ZM72.9267 190.851C72.6387 190.415 72.4708 189.857 72.4708 189.129H70.4708C70.4708 190.177 70.7172 191.134 71.2578 191.953L72.9267 190.851ZM72.4708 189.129C72.4708 188.472 72.6011 188.042 72.7769 187.765L71.0879 186.694C70.6482 187.387 70.4708 188.224 70.4708 189.129H72.4708ZM72.7799 187.76C72.9949 187.417 73.2774 187.152 73.6418 186.955L72.6912 185.195C72.0257 185.555 71.4855 186.059 71.085 186.698L72.7799 187.76ZM73.6418 186.955C74.0677 186.725 74.5469 186.549 75.085 186.431L74.657 184.477C73.9522 184.631 73.295 184.869 72.6912 185.195L73.6418 186.955ZM75.0918 186.429C75.6893 186.294 76.2892 186.187 76.8917 186.108L76.6322 184.125C75.9681 184.212 75.3074 184.33 74.6502 184.479L75.0918 186.429ZM76.8895 186.108C77.7142 186.002 78.3769 185.924 78.8802 185.871L78.6744 183.882C78.1478 183.937 77.467 184.018 76.6345 184.125L76.8895 186.108ZM78.8902 185.87C79.4449 185.807 79.9921 185.692 80.4121 185.451L79.4151 183.717C79.3617 183.748 79.1513 183.828 78.6643 183.883L78.8902 185.87ZM80.4029 185.456C81.033 185.102 81.2776 184.482 81.2776 183.874H79.2776C79.2776 183.925 79.2682 183.904 79.2967 183.848C79.311 183.82 79.3314 183.791 79.3573 183.764C79.3829 183.738 79.4073 183.721 79.4244 183.712L80.4029 185.456ZM81.2776 183.874V183.803H79.2776V183.874H81.2776ZM81.2776 183.803C81.2776 182.742 80.9827 181.779 80.2699 181.058L78.8471 182.463C79.0931 182.713 79.2776 183.112 79.2776 183.803H81.2776ZM80.2743 181.062C79.5449 180.315 78.52 180.033 77.4012 180.033V182.033C78.2118 182.033 78.6251 182.236 78.8427 182.459L80.2743 181.062ZM77.4012 180.033C76.2655 180.033 75.2385 180.281 74.4381 180.898L75.6591 182.482C75.995 182.223 76.5365 182.033 77.4012 182.033V180.033ZM74.4381 180.898C73.7806 181.404 73.2591 181.99 72.943 182.671L74.7571 183.513C74.9026 183.2 75.1802 182.851 75.6591 182.482L74.4381 180.898ZM74.1864 182.151L72.1978 181.44L71.5251 183.324L73.5137 184.034L74.1864 182.151ZM72.7806 182.776C73.0825 182.071 73.4624 181.574 73.8969 181.235L72.6668 179.658C71.9176 180.243 71.3505 181.036 70.9423 181.988L72.7806 182.776ZM73.898 181.234C74.3927 180.847 74.9208 180.585 75.4871 180.438L74.9829 178.502C74.1406 178.722 73.3666 179.111 72.6658 179.659L73.898 181.234ZM75.4927 180.436C76.1247 180.268 76.7365 180.186 77.3302 180.186V178.186C76.5507 178.186 75.7657 178.294 74.9773 178.504L75.4927 180.436ZM77.3302 180.186C77.6903 180.186 78.1297 180.23 78.6551 180.329L79.0237 178.363C78.4128 178.248 77.8459 178.186 77.3302 178.186V180.186ZM78.6668 180.331C79.1123 180.409 79.5506 180.573 79.9851 180.834L81.0141 179.119C80.3832 178.74 79.7147 178.484 79.012 178.361L78.6668 180.331ZM79.9892 180.836C80.3493 181.05 80.6797 181.389 80.9641 181.906L82.7162 180.941C82.2903 180.167 81.727 179.542 81.0099 179.116L79.9892 180.836ZM80.9641 181.906C81.2085 182.35 81.3728 183.027 81.3728 184.016H83.3728C83.3728 182.838 83.182 181.787 82.7162 180.941L80.9641 181.906ZM81.3728 184.016V193H83.3728V184.016H81.3728ZM82.3728 192H80.2776V194H82.3728V192ZM81.2776 193V191.153H79.2776V193H81.2776ZM80.2776 190.153H80.1711V192.153H80.2776V190.153ZM79.2696 190.721C79.191 190.884 79.0329 191.112 78.7475 191.403L80.1742 192.804C80.5517 192.42 80.867 192.014 81.0726 191.586L79.2696 190.721ZM78.7475 191.403C78.5277 191.626 78.2047 191.847 77.7429 192.046L78.5332 193.883C79.1722 193.608 79.7311 193.255 80.1742 192.804L78.7475 191.403ZM77.7429 192.046C77.3507 192.215 76.8218 192.32 76.1228 192.32V194.32C77.01 194.32 77.8246 194.188 78.5332 193.883L77.7429 192.046ZM76.4424 192.438C77.3999 192.438 78.28 192.249 79.0347 191.817L78.0404 190.082C77.6587 190.3 77.1421 190.438 76.4424 190.438V192.438ZM79.0308 191.819C79.7441 191.415 80.3157 190.871 80.705 190.179L78.9624 189.198C78.7717 189.536 78.4792 189.833 78.0443 190.079L79.0308 191.819ZM80.7007 190.187C81.0797 189.527 81.2776 188.815 81.2776 188.064H79.2776C79.2776 188.449 79.1796 188.82 78.9667 189.19L80.7007 190.187ZM81.2776 188.064V186.146H79.2776V188.064H81.2776ZM79.5094 185.506C79.5531 185.454 79.5914 185.424 79.6074 185.413C79.6242 185.4 79.6297 185.399 79.6173 185.405C79.6056 185.411 79.5831 185.421 79.547 185.435C79.5112 185.448 79.4658 185.463 79.4095 185.48L79.9738 187.399C80.1591 187.344 80.3436 187.278 80.5118 187.194C80.6696 187.115 80.877 186.989 81.0458 186.786L79.5094 185.506ZM79.422 185.476C79.1689 185.547 78.8621 185.614 78.4974 185.675L78.8262 187.648C79.2428 187.578 79.6225 187.497 79.9613 187.402L79.422 185.476ZM78.5098 185.673C78.1327 185.731 77.7649 185.783 77.4064 185.829L77.6623 187.813C78.0377 187.764 78.4216 187.71 78.8139 187.65L78.5098 185.673ZM77.4204 185.828C77.0567 185.869 76.7576 185.905 76.525 185.936L76.7859 187.919C77.0031 187.89 77.29 187.856 77.6484 187.815L77.4204 185.828ZM76.5261 185.936C75.9231 186.015 75.3498 186.144 74.8087 186.326L75.4482 188.221C75.8541 188.084 76.2988 187.983 76.7848 187.919L76.5261 185.936ZM74.8158 186.324C74.2118 186.523 73.6796 186.84 73.2578 187.296L74.7264 188.654C74.8846 188.483 75.11 188.333 75.4411 188.224L74.8158 186.324ZM73.2573 187.297C72.76 187.836 72.566 188.523 72.566 189.236H74.566C74.566 188.884 74.656 188.73 74.7269 188.653L73.2573 187.297ZM72.566 189.236C72.566 190.249 72.963 191.127 73.8046 191.709L74.9431 190.065C74.7075 189.902 74.566 189.678 74.566 189.236H72.566ZM73.815 191.716C74.5642 192.221 75.4625 192.438 76.4424 192.438V190.438C75.7532 190.438 75.2725 190.287 74.9327 190.058L73.815 191.716ZM88.2921 193V194H89.2921V193H88.2921ZM86.1969 193H85.1969V194H86.1969V193ZM86.1969 174.818V173.818H85.1969V174.818H86.1969ZM88.2921 174.818H89.2921V173.818H88.2921V174.818ZM88.2921 181.494H87.2921V182.494H88.2921V181.494ZM88.4696 181.494V182.494H89.114L89.3803 181.908L88.4696 181.494ZM89.9078 179.816L90.4517 180.656L90.4536 180.654L89.9078 179.816ZM94.9238 179.745L94.4528 180.628L94.4587 180.631L94.9238 179.745ZM96.5485 181.441L95.6554 181.891L95.6597 181.899L96.5485 181.441ZM97.1344 193V194H98.1344V193H97.1344ZM95.0392 193H94.0392V194H95.0392V193ZM94.1958 181.965L93.4638 182.646L93.4708 182.654L94.1958 181.965ZM90.0321 181.503L89.562 180.621L89.558 180.623L90.0321 181.503ZM88.7537 182.773L87.8826 182.282L87.8787 182.289L88.7537 182.773ZM87.2921 184.797V193H89.2921V184.797H87.2921ZM88.2921 192H86.1969V194H88.2921V192ZM87.1969 193V174.818H85.1969V193H87.1969ZM86.1969 175.818H88.2921V173.818H86.1969V175.818ZM87.2921 174.818V181.494H89.2921V174.818H87.2921ZM88.2921 182.494H88.4696V180.494H88.2921V182.494ZM89.3803 181.908C89.6221 181.375 89.9756 180.964 90.4517 180.656L89.364 178.977C88.5617 179.497 87.9563 180.206 87.559 181.081L89.3803 181.908ZM90.4536 180.654C90.8844 180.374 91.5319 180.186 92.4824 180.186V178.186C91.2904 178.186 90.2215 178.419 89.362 178.978L90.4536 180.654ZM92.4824 180.186C93.2759 180.186 93.9227 180.344 94.4529 180.628L95.3948 178.863C94.5282 178.401 93.5473 178.186 92.4824 178.186V180.186ZM94.4587 180.631C94.9569 180.892 95.3562 181.297 95.6554 181.891L97.4415 180.991C96.9713 180.058 96.2875 179.332 95.389 178.86L94.4587 180.631ZM95.6597 181.899C95.9551 182.472 96.1344 183.266 96.1344 184.335H98.1344C98.1344 183.061 97.9231 181.925 97.4373 180.983L95.6597 181.899ZM96.1344 184.335V193H98.1344V184.335H96.1344ZM97.1344 192H95.0392V194H97.1344V192ZM96.0392 193V184.477H94.0392V193H96.0392ZM96.0392 184.477C96.0392 183.224 95.7111 182.108 94.9208 181.276L93.4708 182.654C93.8051 183.005 94.0392 183.565 94.0392 184.477H96.0392ZM94.9279 181.284C94.1433 180.441 93.0817 180.068 91.8787 180.068V182.068C92.6525 182.068 93.1357 182.294 93.4638 182.646L94.9279 181.284ZM91.8787 180.068C91.047 180.068 90.267 180.245 89.562 180.621L90.5022 182.386C90.8863 182.181 91.3373 182.068 91.8787 182.068V180.068ZM89.558 180.623C88.8454 181.006 88.2849 181.568 87.8826 182.282L89.6248 183.264C89.8499 182.865 90.1417 182.58 90.5062 182.384L89.558 180.623ZM87.8787 182.289C87.4711 183.026 87.2921 183.876 87.2921 184.797H89.2921C89.2921 184.132 89.4209 183.633 89.6288 183.257L87.8787 182.289ZM103.737 174.818L104.737 174.832L104.751 173.818H103.737V174.818ZM103.56 187.886V188.886H104.546L104.56 187.9L103.56 187.886ZM101.5 187.886L100.5 187.9L100.514 188.886H101.5V187.886ZM101.323 174.818V173.818H100.309L100.323 174.832L101.323 174.818ZM101.402 192.672L102.11 191.964L101.402 192.672ZM103.657 190.417L104.365 189.709L103.657 190.417ZM103.906 192.343L103.052 191.822L103.048 191.83L103.043 191.838L103.906 192.343ZM103.329 192.929L103.843 193.786L103.85 193.783L103.329 192.929ZM102.737 174.805L102.56 187.873L104.56 187.9L104.737 174.832L102.737 174.805ZM103.56 186.886H101.5V188.886H103.56V186.886ZM102.5 187.873L102.322 174.805L100.323 174.832L100.5 187.9L102.5 187.873ZM101.323 175.818H103.737V173.818H101.323V175.818ZM102.53 192.142C102.361 192.142 102.238 192.093 102.11 191.964L100.695 193.379C101.194 193.877 101.823 194.142 102.53 194.142V192.142ZM102.11 191.964C101.981 191.836 101.932 191.713 101.932 191.544H99.9319C99.9319 192.251 100.197 192.88 100.695 193.379L102.11 191.964ZM101.932 191.544C101.932 191.375 101.981 191.253 102.11 191.124L100.695 189.709C100.197 190.208 99.9319 190.837 99.9319 191.544H101.932ZM102.11 191.124C102.238 190.995 102.361 190.946 102.53 190.946V188.946C101.823 188.946 101.194 189.211 100.695 189.709L102.11 191.124ZM102.53 190.946C102.699 190.946 102.821 190.995 102.95 191.124L104.365 189.709C103.866 189.211 103.237 188.946 102.53 188.946V190.946ZM102.95 191.124C103.079 191.253 103.128 191.375 103.128 191.544H105.128C105.128 190.837 104.863 190.208 104.365 189.709L102.95 191.124ZM103.128 191.544C103.128 191.654 103.102 191.74 103.052 191.822L104.76 192.864C105.005 192.461 105.128 192.014 105.128 191.544H103.128ZM103.043 191.838C102.985 191.936 102.911 192.012 102.808 192.075L103.85 193.783C104.232 193.55 104.542 193.235 104.769 192.848L103.043 191.838ZM102.814 192.071C102.744 192.114 102.658 192.142 102.53 192.142V194.142C102.994 194.142 103.44 194.028 103.843 193.786L102.814 192.071Z" fill="black"/>
<rect x="202" y="261" width="272" height="13.0621" fill="black"/>
<path fill-rule="evenodd" clip-rule="evenodd" d="M463.627 274.062H212.373V376.254H463.627V274.062ZM454.023 284.819H374.113V307.486H454.023V284.819ZM374.113 314.017H454.023V336.684H374.113V314.017ZM454.023 343.215H374.113V365.881H454.023V343.215Z" fill="black"/>
<rect x="219.672" y="376.254" width="7.29944" height="21.1299" fill="black"/>
<rect x="449.028" y="376.254" width="7.29944" height="21.1299" fill="black"/>
<path d="M404.079 296.153C404.079 293.819 405.971 291.927 408.305 291.927H419.831C422.164 291.927 424.057 293.819 424.057 296.153C424.057 298.486 422.164 300.379 419.831 300.379H408.305C405.971 300.379 404.079 298.486 404.079 296.153Z" fill="black"/>
<path d="M404.079 325.158C404.079 322.824 405.971 320.932 408.305 320.932H419.831C422.164 320.932 424.057 322.824 424.057 325.158C424.057 327.492 422.164 329.384 419.831 329.384H408.305C405.971 329.384 404.079 327.492 404.079 325.158Z" fill="black"/>
<path d="M404.079 353.972C404.079 351.638 405.971 349.746 408.305 349.746H419.831C422.164 349.746 424.057 351.638 424.057 353.972C424.057 356.306 422.164 358.198 419.831 358.198H408.305C405.971 358.198 404.079 356.306 404.079 353.972Z" fill="black"/>
<defs>
<filter id="filter0_d_3_80" x="312" y="0" width="172" height="135.084" filterUnits="userSpaceOnUse" color-interpolation-filters="sRGB">
<feFlood flood-opacity="0" result="BackgroundImageFix"/>
<feColorMatrix in="SourceAlpha" type="matrix" values="0 0 0 0 0 0 0 0 0 0 0 0 0 0 0 0 0 0 127 0" result="hardAlpha"/>
<feOffset dy="4"/>
<feGaussianBlur stdDeviation="2"/>
<feComposite in2="hardAlpha" operator="out"/>
<feColorMatrix type="matrix" values="0 0 0 0 0 0 0 0 0 0 0 0 0 0 0 0 0 0 0.25 0"/>
<feBlend mode="normal" in2="BackgroundImageFix" result="effect1_dropShadow_3_80"/>
<feBlend mode="normal" in="SourceGraphic" in2="effect1_dropShadow_3_80" result="shape"/>
</filter>
<filter id="filter1_d_3_80" x="0" y="140" width="153.689" height="112.9" filterUnits="userSpaceOnUse" color-interpolation-filters="sRGB">
<feFlood flood-opacity="0" result="BackgroundImageFix"/>
<feColorMatrix in="SourceAlpha" type="matrix" values="0 0 0 0 0 0 0 0 0 0 0 0 0 0 0 0 0 0 127 0" result="hardAlpha"/>
<feOffset dy="4"/>
<feGaussianBlur stdDeviation="2"/>
<feComposite in2="hardAlpha" operator="out"/>
<feColorMatrix type="matrix" values="0 0 0 0 0 0 0 0 0 0 0 0 0 0 0 0 0 0 0.25 0"/>
<feBlend mode="normal" in2="BackgroundImageFix" result="effect1_dropShadow_3_80"/>
<feBlend mode="normal" in="SourceGraphic" in2="effect1_dropShadow_3_80" result="shape"/>
</filter>
</defs>
</svg>
