<svg width="334" height="273" viewBox="0 0 334 273" fill="none" xmlns="http://www.w3.org/2000/svg">
<path d="M16.3015 165.499V203.634C16.3015 206.078 18.2779 208.059 20.7159 208.059H24.2619C26.4601 208.059 28.2421 206.273 28.2421 204.069V130.652C28.2421 125.511 32.4001 121.342 37.5292 121.342C43.3911 121.342 48.1431 126.106 48.1431 131.982V220.562C48.1431 222.618 49.8063 224.286 51.8579 224.286H55.3074C58.2383 224.286 60.6143 221.904 60.6143 218.965V154.593C60.6143 150.479 63.9407 147.145 68.044 147.145C71.7077 147.145 74.6777 150.122 74.6777 153.795V220.187C74.6777 227.267 70.2278 233.58 63.5702 235.943C62.487 236.328 61.367 236.599 60.2282 236.753L52.742 237.763C50.1084 238.119 48.1431 240.372 48.1431 243.036V266.58C48.1431 268.049 46.9551 269.24 45.4896 269.24H30.8955C29.4301 269.24 28.2421 268.049 28.2421 266.58V226.148C28.2421 223.209 25.8661 220.828 22.9352 220.828H18.6454C14.4333 220.828 8.53324 221.716 5.60102 218.685C3.09731 216.096 3.56492 210.033 3.56492 206.428V166.031C3.56492 162.358 6.5349 159.381 10.1986 159.381C13.5691 159.381 16.3015 162.12 16.3015 165.499Z" fill="#597B73"/>
<path d="M10.1986 159.381V159.381C6.5349 159.381 3.56492 162.351 3.56492 166.014V212.049L3.56492 212.336C3.56492 217.026 7.3665 220.828 12.056 220.828V220.828M10.1986 159.381C6.5349 159.381 3.56492 162.358 3.56492 166.031V206.428C3.56492 210.033 3.09731 216.096 5.60102 218.685C8.53324 221.716 14.4333 220.828 18.6454 220.828H22.9352C25.8661 220.828 28.2421 223.209 28.2421 226.148V266.58C28.2421 268.049 29.4301 269.24 30.8955 269.24H45.4896C46.9551 269.24 48.1431 268.049 48.1431 266.58V243.036C48.1431 240.372 50.1084 238.119 52.742 237.763L60.2282 236.753C61.367 236.599 62.487 236.328 63.5702 235.943C70.2278 233.58 74.6777 227.267 74.6777 220.187V153.795C74.6777 150.122 71.7077 147.145 68.044 147.145M10.1986 159.381C13.5691 159.381 16.3015 162.12 16.3015 165.499V203.634C16.3015 206.078 18.2779 208.059 20.7159 208.059H24.2619C26.4601 208.059 28.2421 206.273 28.2421 204.069V130.652C28.2421 125.511 32.4001 121.342 37.5292 121.342C43.3911 121.342 48.1431 126.106 48.1431 131.982V220.562C48.1431 222.618 49.8063 224.286 51.8579 224.286H55.3074C58.2383 224.286 60.6143 221.904 60.6143 218.965V154.593C60.6143 150.479 63.9407 147.145 68.044 147.145M68.044 147.145V147.145C71.7077 147.145 74.6777 150.115 74.6777 153.778V218.484C74.6777 226.586 69.5763 233.811 61.9411 236.522V236.522" stroke="black" stroke-width="6"/>
<path d="M24.0343 142.19L6.19435 137.751C4.92318 137.434 3.98197 136.357 3.83465 135.049L3.00939 127.725C2.912 126.861 3.5849 126.104 4.45054 126.104C5.10897 126.104 5.68478 126.549 5.85285 127.189L7.28739 132.649L23.6582 135.94L24.3195 124.613C24.2563 123.217 24.8115 121.865 25.8357 120.92L27.0833 119.769C27.5618 119.328 27.944 118.791 28.2058 118.194L31.4634 110.761C31.8597 109.857 33.0848 109.73 33.6564 110.534C33.8774 110.844 34.5453 110.96 35.3144 111.026C35.5348 111.045 35.7437 111.06 35.941 111.071C37.507 111.159 39.0989 111.156 40.6654 111.076C40.8916 111.064 41.1322 111.048 41.3864 111.026C42.1555 110.96 42.8234 110.844 43.0444 110.534C43.616 109.73 44.8411 109.857 45.2374 110.761L48.495 118.194C48.7568 118.791 49.139 119.328 49.6175 119.769L50.8651 120.92C51.8893 121.865 52.4445 123.217 52.3813 124.613L53.0426 135.94L69.4134 132.649L70.8479 127.189C71.016 126.549 71.5918 126.104 72.2503 126.104C73.1159 126.104 73.7888 126.861 73.6914 127.725L72.8661 135.049C72.7188 136.357 71.7776 137.434 70.5065 137.751L52.6665 142.19C52.5434 142.221 52.4169 142.236 52.29 142.236H24.4108C24.2839 142.236 24.1574 142.221 24.0343 142.19Z" fill="#A35030"/>
<path d="M7.28739 132.649L5.85285 127.189C5.68478 126.549 5.10897 126.104 4.45054 126.104C3.5849 126.104 2.912 126.861 3.00939 127.725L3.83465 135.049C3.98197 136.357 4.92318 137.434 6.19435 137.751L24.0343 142.19C24.1574 142.221 24.2839 142.236 24.4108 142.236H52.29C52.4169 142.236 52.5434 142.221 52.6665 142.19L70.5065 137.751C71.7776 137.434 72.7188 136.357 72.8661 135.049L73.6914 127.725C73.7888 126.861 73.1159 126.104 72.2503 126.104C71.5918 126.104 71.016 126.549 70.8479 127.189L69.4134 132.649M7.28739 132.649L6.92847 132.663L6.85 132.635L7.28739 132.649ZM7.28739 132.649L23.6582 135.94L24.3195 124.613C24.2563 123.217 24.8115 121.865 25.8357 120.92L27.0833 119.769C27.5618 119.328 27.944 118.791 28.2058 118.194L31.4634 110.761C31.8597 109.857 33.0848 109.73 33.6564 110.534C33.8774 110.844 34.5453 110.96 35.3144 111.026C35.5348 111.045 35.7437 111.06 35.941 111.071C37.507 111.159 39.0989 111.156 40.6654 111.076C40.8916 111.064 41.1322 111.048 41.3864 111.026C42.1555 110.96 42.8234 110.844 43.0444 110.534C43.616 109.73 44.8411 109.857 45.2374 110.761L48.495 118.194C48.7568 118.791 49.139 119.328 49.6175 119.769L50.8651 120.92C51.8893 121.865 52.4445 123.217 52.3813 124.613L53.0426 135.94L69.4134 132.649M69.4134 132.649L69.0469 132.663L69.1254 132.635L69.4134 132.649Z" stroke="black" stroke-width="6"/>
<path d="M271.771 165.157V203.292C271.771 205.736 273.748 207.717 276.186 207.717H279.732C281.93 207.717 283.712 205.931 283.712 203.727V130.31C283.712 125.168 287.87 121 292.999 121C298.861 121 303.613 125.764 303.613 131.64V220.219C303.613 222.276 305.276 223.943 307.328 223.943H310.777C313.708 223.943 316.084 221.561 316.084 218.623V154.25C316.084 150.137 319.41 146.802 323.514 146.802C327.177 146.802 330.147 149.78 330.147 153.452V219.845C330.147 226.925 325.698 233.237 319.04 235.601C317.957 235.986 316.837 236.257 315.698 236.411L308.212 237.421C305.578 237.776 303.613 240.029 303.613 242.693V266.238C303.613 267.707 302.425 268.898 300.959 268.898H286.365C284.9 268.898 283.712 267.707 283.712 266.238V225.805C283.712 222.867 281.336 220.485 278.405 220.485H274.115C269.903 220.485 264.003 221.374 261.071 218.343C258.567 215.754 259.035 209.691 259.035 206.085V165.689C259.035 162.016 262.005 159.038 265.668 159.038C269.039 159.038 271.771 161.778 271.771 165.157Z" fill="black"/>
<path d="M265.668 159.038V159.038C262.005 159.038 259.035 162.008 259.035 165.672V211.707L259.035 211.994C259.035 216.684 262.836 220.485 267.526 220.485V220.485M265.668 159.038C262.005 159.038 259.035 162.016 259.035 165.689V206.085C259.035 209.691 258.567 215.754 261.071 218.343C264.003 221.374 269.903 220.485 274.115 220.485H278.405C281.336 220.485 283.712 222.867 283.712 225.805V266.238C283.712 267.707 284.9 268.898 286.365 268.898H300.959C302.425 268.898 303.613 267.707 303.613 266.238V242.693C303.613 240.029 305.578 237.776 308.212 237.421L315.698 236.411C316.837 236.257 317.957 235.986 319.04 235.601C325.698 233.237 330.147 226.925 330.147 219.845V153.452C330.147 149.78 327.177 146.802 323.514 146.802M265.668 159.038C269.039 159.038 271.771 161.778 271.771 165.157V203.292C271.771 205.736 273.748 207.717 276.186 207.717H279.732C281.93 207.717 283.712 205.931 283.712 203.727V130.31C283.712 125.168 287.87 121 292.999 121C298.861 121 303.613 125.764 303.613 131.64V220.219C303.613 222.276 305.276 223.943 307.328 223.943H310.777C313.708 223.943 316.084 221.561 316.084 218.623V154.25C316.084 150.137 319.41 146.802 323.514 146.802M323.514 146.802V146.802C327.177 146.802 330.147 149.772 330.147 153.436V218.142C330.147 226.244 325.046 233.469 317.411 236.179V236.179" stroke="black" stroke-width="6"/>
<path fill-rule="evenodd" clip-rule="evenodd" d="M94.1491 127.332C95.8356 122.698 99.5582 119.394 103.939 118.062L100.158 128.449L98.3252 133.485L105.219 140.984L115.321 139.671L117.154 134.635L120.934 124.248C123.434 128.084 124.162 133.008 122.475 137.642C119.628 145.464 110.979 149.497 103.157 146.65C95.3352 143.803 91.3021 135.154 94.1491 127.332Z" fill="black"/>
<path fill-rule="evenodd" clip-rule="evenodd" d="M107.622 146.135L100.068 143.386L78.761 201.927C78.0018 204.012 79.0773 206.319 81.1632 207.078C83.2491 207.837 85.5555 206.762 86.3147 204.676L107.622 146.135ZM82.1941 204.245C83.2371 204.625 84.3903 204.087 84.7699 203.044C85.1495 202.001 84.6117 200.848 83.5688 200.469C82.5259 200.089 81.3727 200.627 80.9931 201.67C80.6135 202.713 81.1512 203.866 82.1941 204.245Z" fill="black"/>
<circle cx="38.1915" cy="50.9468" r="16.5957" fill="black"/>
<path d="M29.8936 65.4681H46.4894V74.5957C46.4894 79.1785 42.7743 82.8936 38.1915 82.8936C33.6087 82.8936 29.8936 79.1785 29.8936 74.5957V65.4681Z" fill="black"/>
<path d="M30.3085 86.0053C30.3085 85.4325 30.7729 84.9681 31.3458 84.9681H45.0373C45.6101 84.9681 46.0745 85.4325 46.0745 86.0053C46.0745 86.5782 45.6101 87.0425 45.0373 87.0425H31.3458C30.7729 87.0425 30.3085 86.5782 30.3085 86.0053Z" fill="black"/>
<path d="M30.3085 90.1542C30.3085 89.5814 30.7729 89.117 31.3458 89.117H38.1915H45.0373C45.6101 89.117 46.0745 89.5814 46.0745 90.1542C46.0745 90.7271 45.6101 91.1915 45.0373 91.1915H31.3458C30.7729 91.1915 30.3085 90.7271 30.3085 90.1542Z" fill="black"/>
<path d="M31.5532 93.266H38.1915H44.8298C44.8298 95.3282 43.158 97 41.0957 97H35.2872C33.2249 97 31.5532 95.3282 31.5532 93.266Z" fill="black"/>
<rect x="18.78" y="40.7636" width="12.4468" height="2.48936" transform="rotate(-135 18.78 40.7636)" fill="black"/>
<rect x="54.7872" y="36.9289" width="12.4468" height="2.48936" transform="rotate(-45 54.7872 36.9289)" fill="black"/>
<rect x="17.0227" y="51.1792" width="12.4468" height="2.48936" transform="rotate(-165 17.0227 51.1792)" fill="black"/>
<rect x="43.5851" y="31.0227" width="12.4468" height="2.48936" transform="rotate(-75 43.5851 31.0227)" fill="black"/>
<rect x="58.5213" y="48.3598" width="12.4468" height="2.48936" transform="rotate(-15 58.5213 48.3598)" fill="black"/>
<rect x="27.3066" y="31.667" width="12.4468" height="2.48936" transform="rotate(-105 27.3066 31.667)" fill="black"/>
<g filter="url(#filter0_d_3_146)">
<path d="M272 49C272 76.062 235.287 98 190 98C144.713 98 108 76.062 108 49C108 21.9381 144.713 4.98229e-06 190 4.98229e-06C235.287 4.98229e-06 272 21.9381 272 49Z" fill="#EBECED"/>
<path d="M264.771 118.084L214.872 79.7137L245.781 58.0714L264.771 118.084Z" fill="#EBECED"/>
</g>
<path d="M164.202 58V39.8182H166.403V47.9148H176.098V39.8182H178.3V58H176.098V49.8679H166.403V58H164.202ZM188.141 58.2841C186.827 58.2841 185.693 57.9941 184.741 57.4141C183.794 56.8281 183.063 56.0114 182.548 54.9638C182.039 53.9103 181.784 52.6851 181.784 51.2884C181.784 49.8916 182.039 48.6605 182.548 47.5952C183.063 46.5239 183.779 45.6894 184.696 45.0916C185.619 44.4879 186.697 44.1861 187.928 44.1861C188.638 44.1861 189.339 44.3045 190.032 44.5412C190.724 44.7779 191.355 45.1626 191.923 45.6953C192.491 46.2221 192.944 46.9205 193.281 47.7905C193.618 48.6605 193.787 49.7318 193.787 51.0043V51.892H183.276V50.081H191.656C191.656 49.3116 191.503 48.625 191.195 48.0213C190.893 47.4176 190.461 46.9412 189.899 46.592C189.342 46.2428 188.685 46.0682 187.928 46.0682C187.093 46.0682 186.371 46.2753 185.762 46.6896C185.158 47.098 184.693 47.6307 184.368 48.2876C184.042 48.9446 183.879 49.6489 183.879 50.4006V51.608C183.879 52.6378 184.057 53.5108 184.412 54.2269C184.773 54.9371 185.273 55.4787 185.912 55.8516C186.552 56.2185 187.294 56.402 188.141 56.402C188.691 56.402 189.188 56.325 189.632 56.1712C190.082 56.0114 190.47 55.7746 190.795 55.4609C191.121 55.1413 191.372 54.7448 191.55 54.2713L193.574 54.8395C193.361 55.526 193.003 56.1297 192.5 56.6506C191.997 57.1655 191.375 57.5679 190.635 57.858C189.896 58.142 189.064 58.2841 188.141 58.2841ZM199.069 39.8182V58H196.974V39.8182H199.069ZM202.907 63.1136V44.3636H204.931V46.5298H205.18C205.333 46.2931 205.547 45.9912 205.819 45.6243C206.097 45.2514 206.494 44.92 207.008 44.63C207.529 44.334 208.234 44.1861 209.121 44.1861C210.27 44.1861 211.282 44.4731 212.158 45.0472C213.034 45.6213 213.717 46.4351 214.208 47.4886C214.7 48.5421 214.945 49.785 214.945 51.2173C214.945 52.6615 214.7 53.9132 214.208 54.9727C213.717 56.0262 213.036 56.8429 212.166 57.4229C211.296 57.997 210.293 58.2841 209.157 58.2841C208.281 58.2841 207.58 58.1391 207.053 57.8491C206.526 57.5531 206.121 57.2187 205.837 56.8459C205.552 56.4671 205.333 56.1534 205.18 55.9048H205.002V63.1136H202.907ZM204.967 51.1818C204.967 52.2116 205.117 53.1201 205.419 53.9073C205.721 54.6886 206.162 55.3011 206.742 55.745C207.322 56.183 208.032 56.402 208.873 56.402C209.749 56.402 210.48 56.1712 211.066 55.7095C211.657 55.242 212.101 54.6146 212.397 53.8274C212.699 53.0343 212.85 52.1525 212.85 51.1818C212.85 50.223 212.702 49.3589 212.406 48.5895C212.116 47.8142 211.675 47.2016 211.083 46.7518C210.497 46.296 209.761 46.0682 208.873 46.0682C208.021 46.0682 207.304 46.2842 206.724 46.7163C206.144 47.1424 205.706 47.7402 205.41 48.5096C205.114 49.2731 204.967 50.1638 204.967 51.1818ZM220.911 39.8182L220.734 52.8864H218.674L218.496 39.8182H220.911ZM219.704 58.142C219.266 58.142 218.89 57.9852 218.576 57.6715C218.263 57.3578 218.106 56.982 218.106 56.544C218.106 56.1061 218.263 55.7302 218.576 55.4165C218.89 55.1029 219.266 54.946 219.704 54.946C220.142 54.946 220.518 55.1029 220.831 55.4165C221.145 55.7302 221.302 56.1061 221.302 56.544C221.302 56.834 221.228 57.1004 221.08 57.343C220.938 57.5857 220.745 57.781 220.503 57.929C220.266 58.071 220 58.142 219.704 58.142Z" fill="black"/>
<path d="M164.202 58H163.202V59H164.202V58ZM164.202 39.8182V38.8182H163.202V39.8182H164.202ZM166.403 39.8182H167.403V38.8182H166.403V39.8182ZM166.403 47.9148H165.403V48.9148H166.403V47.9148ZM176.098 47.9148V48.9148H177.098V47.9148H176.098ZM176.098 39.8182V38.8182H175.098V39.8182H176.098ZM178.3 39.8182H179.3V38.8182H178.3V39.8182ZM178.3 58V59H179.3V58H178.3ZM176.098 58H175.098V59H176.098V58ZM176.098 49.8679H177.098V48.8679H176.098V49.8679ZM166.403 49.8679V48.8679H165.403V49.8679H166.403ZM166.403 58V59H167.403V58H166.403ZM165.202 58V39.8182H163.202V58H165.202ZM164.202 40.8182H166.403V38.8182H164.202V40.8182ZM165.403 39.8182V47.9148H167.403V39.8182H165.403ZM166.403 48.9148H176.098V46.9148H166.403V48.9148ZM177.098 47.9148V39.8182H175.098V47.9148H177.098ZM176.098 40.8182H178.3V38.8182H176.098V40.8182ZM177.3 39.8182V58H179.3V39.8182H177.3ZM178.3 57H176.098V59H178.3V57ZM177.098 58V49.8679H175.098V58H177.098ZM176.098 48.8679H166.403V50.8679H176.098V48.8679ZM165.403 49.8679V58H167.403V49.8679H165.403ZM166.403 57H164.202V59H166.403V57ZM184.741 57.4141L184.214 58.2645L184.221 58.2683L184.741 57.4141ZM182.548 54.9638L181.647 55.3988L181.65 55.4049L182.548 54.9638ZM182.548 47.5952L181.646 47.162L181.645 47.1641L182.548 47.5952ZM184.696 45.0916L185.242 45.9294L185.243 45.9286L184.696 45.0916ZM190.032 44.5412L190.355 43.595L190.032 44.5412ZM191.923 45.6953L191.239 46.4249L191.243 46.4286L191.923 45.6953ZM193.281 47.7905L194.213 47.429L193.281 47.7905ZM193.787 51.892V52.892H194.787V51.892H193.787ZM183.276 51.892H182.276V52.892H183.276V51.892ZM183.276 50.081V49.081H182.276V50.081H183.276ZM191.656 50.081V51.081H192.656V50.081H191.656ZM191.195 48.0213L190.3 48.4685L190.304 48.4755L191.195 48.0213ZM189.899 46.592L189.367 47.439L189.371 47.4415L189.899 46.592ZM185.762 46.6896L186.322 47.5179L186.324 47.5167L185.762 46.6896ZM184.368 48.2876L183.472 47.8437H183.472L184.368 48.2876ZM184.412 54.2269L183.516 54.6712L183.521 54.6801L184.412 54.2269ZM185.912 55.8516L185.409 56.7154L185.415 56.7188L185.912 55.8516ZM189.632 56.1712L189.96 57.116L189.967 57.1135L189.632 56.1712ZM190.795 55.4609L191.489 56.181L191.496 56.1745L190.795 55.4609ZM191.55 54.2713L191.82 53.3085L190.936 53.0603L190.614 53.9202L191.55 54.2713ZM193.574 54.8395L194.529 55.1359L194.834 54.1544L193.844 53.8767L193.574 54.8395ZM192.5 56.6506L193.215 57.3494L193.219 57.3453L192.5 56.6506ZM190.635 57.858L190.994 58.7915L191 58.789L190.635 57.858ZM188.141 57.2841C186.977 57.2841 186.031 57.0287 185.261 56.5599L184.221 58.2683C185.356 58.9595 186.676 59.2841 188.141 59.2841V57.2841ZM185.267 56.5637C184.487 56.0815 183.881 55.4102 183.445 54.5227L181.65 55.4049C182.244 56.6125 183.1 57.5748 184.214 58.2644L185.267 56.5637ZM183.448 54.5287C183.016 53.6347 182.784 52.5633 182.784 51.2884H180.784C180.784 52.8069 181.061 54.1858 181.647 55.3988L183.448 54.5287ZM182.784 51.2884C182.784 50.0137 183.016 48.9345 183.45 48.0263L181.645 47.1641C181.061 48.3865 180.784 49.7694 180.784 51.2884H182.784ZM183.449 48.0284C183.892 47.1074 184.491 46.4189 185.242 45.9294L184.15 44.2538C183.067 44.9599 182.234 45.9405 181.646 47.162L183.449 48.0284ZM185.243 45.9286C185.986 45.4434 186.868 45.1861 187.928 45.1861V43.1861C186.526 43.1861 185.253 43.5325 184.149 44.2546L185.243 45.9286ZM187.928 45.1861C188.525 45.1861 189.117 45.2852 189.708 45.4874L190.355 43.595C189.562 43.3237 188.751 43.1861 187.928 43.1861V45.1861ZM189.708 45.4874C190.258 45.6754 190.767 45.9828 191.239 46.4248L192.607 44.9658C191.942 44.3425 191.19 43.8805 190.355 43.595L189.708 45.4874ZM191.243 46.4286C191.679 46.8333 192.055 47.3949 192.349 48.152L194.213 47.429C193.832 46.446 193.303 45.6109 192.603 44.962L191.243 46.4286ZM192.349 48.152C192.628 48.8732 192.787 49.8134 192.787 51.0043H194.787C194.787 49.6501 194.609 48.4479 194.213 47.429L192.349 48.152ZM192.787 51.0043V51.892H194.787V51.0043H192.787ZM193.787 50.892H183.276V52.892H193.787V50.892ZM184.276 51.892V50.081H182.276V51.892H184.276ZM183.276 51.081H191.656V49.081H183.276V51.081ZM192.656 50.081C192.656 49.1752 192.474 48.3295 192.086 47.5671L190.304 48.4755C190.531 48.9205 190.656 49.4479 190.656 50.081H192.656ZM192.089 47.5741C191.706 46.8084 191.149 46.1913 190.426 45.7425L189.371 47.4415C189.773 47.6911 190.08 48.0268 190.3 48.4685L192.089 47.5741ZM190.43 45.745C189.691 45.2812 188.844 45.0682 187.928 45.0682V47.0682C188.527 47.0682 188.993 47.2043 189.367 47.439L190.43 45.745ZM187.928 45.0682C186.92 45.0682 185.996 45.3211 185.199 45.8626L186.324 47.5167C186.746 47.2296 187.266 47.0682 187.928 47.0682V45.0682ZM185.201 45.8613C184.453 46.3672 183.874 47.0327 183.472 47.8437L185.264 48.7316C185.513 48.2287 185.862 47.8288 186.322 47.5179L185.201 45.8613ZM183.472 47.8437C183.076 48.6422 182.879 49.4989 182.879 50.4006H184.879C184.879 49.7989 185.008 49.247 185.264 48.7316L183.472 47.8437ZM182.879 50.4006V51.608H184.879V50.4006H182.879ZM182.879 51.608C182.879 52.749 183.076 53.783 183.516 54.6712L185.308 53.7827C185.038 53.2385 184.879 52.5266 184.879 51.608H182.879ZM183.521 54.6801C183.962 55.5479 184.591 56.2382 185.409 56.7153L186.416 54.9878C185.956 54.7192 185.584 54.3264 185.304 53.7738L183.521 54.6801ZM185.415 56.7188C186.227 57.185 187.146 57.402 188.141 57.402V55.402C187.443 55.402 186.877 55.2521 186.41 54.9843L185.415 56.7188ZM188.141 57.402C188.784 57.402 189.394 57.3121 189.96 57.116L189.305 55.2263C188.983 55.338 188.598 55.402 188.141 55.402V57.402ZM189.967 57.1135C190.543 56.9087 191.055 56.599 191.489 56.181L190.101 54.7409C189.884 54.9503 189.621 55.114 189.298 55.2289L189.967 57.1135ZM191.496 56.1745C191.936 55.7421 192.263 55.2175 192.486 54.6224L190.614 53.9202C190.482 54.2721 190.305 54.5406 190.095 54.7474L191.496 56.1745ZM191.28 55.2341L193.304 55.8023L193.844 53.8767L191.82 53.3085L191.28 55.2341ZM192.619 54.5431C192.453 55.0791 192.176 55.5466 191.781 55.9558L193.219 57.3453C193.83 56.7128 194.269 55.973 194.529 55.1359L192.619 54.5431ZM191.785 55.9517C191.39 56.3552 190.892 56.6832 190.271 56.9269L191 58.789C191.858 58.4527 192.603 57.9757 193.215 57.3494L191.785 55.9517ZM190.277 56.9244C189.669 57.158 188.961 57.2841 188.141 57.2841V59.2841C189.167 59.2841 190.123 59.1261 190.994 58.7915L190.277 56.9244ZM199.069 39.8182H200.069V38.8182H199.069V39.8182ZM199.069 58V59H200.069V58H199.069ZM196.974 58H195.974V59H196.974V58ZM196.974 39.8182V38.8182H195.974V39.8182H196.974ZM198.069 39.8182V58H200.069V39.8182H198.069ZM199.069 57H196.974V59H199.069V57ZM197.974 58V39.8182H195.974V58H197.974ZM196.974 40.8182H199.069V38.8182H196.974V40.8182ZM202.907 63.1136H201.907V64.1136H202.907V63.1136ZM202.907 44.3636V43.3636H201.907V44.3636H202.907ZM204.931 44.3636H205.931V43.3636H204.931V44.3636ZM204.931 46.5298H203.931V47.5298H204.931V46.5298ZM205.18 46.5298V47.5298H205.722L206.018 47.0748L205.18 46.5298ZM205.819 45.6243L205.017 45.0263L205.016 45.0284L205.819 45.6243ZM207.008 44.63L207.499 45.5013L207.502 45.4994L207.008 44.63ZM212.158 45.0472L212.706 44.2109V44.2109L212.158 45.0472ZM214.208 47.4886L215.115 47.066V47.066L214.208 47.4886ZM214.208 54.9727L215.115 55.3953L215.116 55.3933L214.208 54.9727ZM212.166 57.4229L212.717 58.2576L212.721 58.255L212.166 57.4229ZM207.053 57.8491L206.563 58.7209L206.571 58.7251L207.053 57.8491ZM205.837 56.8459L205.037 57.4459L205.041 57.4519L205.837 56.8459ZM205.18 55.9048L206.03 55.3785L205.737 54.9048H205.18V55.9048ZM205.002 55.9048V54.9048H204.002V55.9048H205.002ZM205.002 63.1136V64.1136H206.002V63.1136H205.002ZM205.419 53.9073L204.486 54.2654L204.487 54.2677L205.419 53.9073ZM206.742 55.745L206.134 56.5392L206.139 56.5431L206.742 55.745ZM211.066 55.7095L211.684 56.495L211.686 56.4942L211.066 55.7095ZM212.397 53.8274L211.463 53.4717L211.461 53.4755L212.397 53.8274ZM212.406 48.5895L211.469 48.9398L211.473 48.9485L212.406 48.5895ZM211.083 46.7518L210.469 47.5412L210.478 47.5479L211.083 46.7518ZM206.724 46.7163L207.316 47.5222L207.322 47.5182L206.724 46.7163ZM205.41 48.5096L206.343 48.871L206.344 48.8686L205.41 48.5096ZM203.907 63.1136V44.3636H201.907V63.1136H203.907ZM202.907 45.3636H204.931V43.3636H202.907V45.3636ZM203.931 44.3636V46.5298H205.931V44.3636H203.931ZM204.931 47.5298H205.18V45.5298H204.931V47.5298ZM206.018 47.0748C206.156 46.8626 206.355 46.5793 206.622 46.2201L205.016 45.0284C204.738 45.4032 204.511 45.7236 204.341 45.9848L206.018 47.0748ZM206.62 46.2223C206.796 45.987 207.074 45.7407 207.499 45.5013L206.518 43.7587C205.913 44.0993 205.398 44.5158 205.017 45.0263L206.62 46.2223ZM207.502 45.4994C207.817 45.3206 208.329 45.1861 209.121 45.1861V43.1861C208.138 43.1861 207.241 43.3475 206.514 43.7605L207.502 45.4994ZM209.121 45.1861C210.094 45.1861 210.912 45.4265 211.609 45.8836L212.706 44.2109C211.651 43.5198 210.445 43.1861 209.121 43.1861V45.1861ZM211.609 45.8836C212.313 46.3448 212.88 47.0072 213.302 47.9112L215.115 47.066C214.554 45.8631 213.754 44.8979 212.706 44.2109L211.609 45.8836ZM213.302 47.9112C213.719 48.8054 213.945 49.8979 213.945 51.2173H215.945C215.945 49.6721 215.68 48.2789 215.115 47.066L213.302 47.9112ZM213.945 51.2173C213.945 52.5497 213.719 53.6518 213.301 54.552L215.116 55.3933C215.681 54.1747 215.945 52.7732 215.945 51.2173H213.945ZM213.302 54.55C212.879 55.4565 212.313 56.1236 211.612 56.5909L212.721 58.255C213.76 57.5622 214.555 56.5958 215.115 55.3953L213.302 54.55ZM211.616 56.5883C210.924 57.0448 210.116 57.2841 209.157 57.2841V59.2841C210.471 59.2841 211.669 58.9493 212.717 58.2576L211.616 56.5883ZM209.157 57.2841C208.378 57.2841 207.862 57.153 207.535 56.9731L206.571 58.7251C207.297 59.1252 208.184 59.2841 209.157 59.2841V57.2841ZM207.543 56.9772C207.102 56.7296 206.813 56.4777 206.632 56.2398L205.041 57.4519C205.428 57.9598 205.95 58.3767 206.563 58.7209L207.543 56.9772ZM206.637 56.2459C206.361 55.8783 206.162 55.5912 206.03 55.3785L204.329 56.4312C204.505 56.7156 204.744 57.0559 205.037 57.4459L206.637 56.2459ZM205.18 54.9048H205.002V56.9048H205.18V54.9048ZM204.002 55.9048V63.1136H206.002V55.9048H204.002ZM205.002 62.1136H202.907V64.1136H205.002V62.1136ZM203.967 51.1818C203.967 52.3078 204.131 53.3417 204.486 54.2654L206.353 53.5493C206.104 52.8986 205.967 52.1155 205.967 51.1818H203.967ZM204.487 54.2677C204.845 55.195 205.388 55.9677 206.134 56.5392L207.35 54.9509C206.936 54.6345 206.598 54.1821 206.352 53.5469L204.487 54.2677ZM206.139 56.5431C206.919 57.1319 207.85 57.402 208.873 57.402V55.402C208.214 55.402 207.725 55.2341 207.345 54.947L206.139 56.5431ZM208.873 57.402C209.932 57.402 210.893 57.1189 211.684 56.495L210.447 54.924C210.067 55.2234 209.565 55.402 208.873 55.402V57.402ZM211.686 56.4942C212.436 55.9012 212.981 55.1167 213.333 54.1793L211.461 53.4755C211.222 54.1125 210.879 54.5827 210.446 54.9248L211.686 56.4942ZM213.332 54.1831C213.683 53.2613 213.85 52.2567 213.85 51.1818H211.85C211.85 52.0482 211.716 52.8073 211.463 53.4717L213.332 54.1831ZM213.85 51.1818C213.85 50.12 213.686 49.1315 213.34 48.2305L211.473 48.9485C211.718 49.5863 211.85 50.326 211.85 51.1818H213.85ZM213.343 48.2391C212.994 47.3076 212.447 46.5324 211.688 45.9556L210.478 47.5479C210.903 47.8707 211.238 48.3207 211.47 48.9398L213.343 48.2391ZM211.697 45.9624C210.903 45.3449 209.938 45.0682 208.873 45.0682V47.0682C209.583 47.0682 210.092 47.2472 210.469 47.5411L211.697 45.9624ZM208.873 45.0682C207.845 45.0682 206.909 45.3318 206.127 45.9143L207.322 47.5182C207.7 47.2366 208.196 47.0682 208.873 47.0682V45.0682ZM206.132 45.9104C205.377 46.4656 204.831 47.2293 204.477 48.1506L206.344 48.8686C206.581 48.2511 206.912 47.8192 207.316 47.5221L206.132 45.9104ZM204.478 48.1482C204.128 49.0512 203.967 50.0692 203.967 51.1818H205.967C205.967 50.2584 206.101 49.495 206.343 48.871L204.478 48.1482ZM220.911 39.8182L221.911 39.8318L221.925 38.8182H220.911V39.8182ZM220.734 52.8864V53.8864H221.72L221.733 52.8999L220.734 52.8864ZM218.674 52.8864L217.674 52.8999L217.687 53.8864H218.674V52.8864ZM218.496 39.8182V38.8182H217.483L217.496 39.8318L218.496 39.8182ZM218.576 57.6715L219.283 56.9644L218.576 57.6715ZM220.831 55.4165L221.538 54.7094L220.831 55.4165ZM221.08 57.343L220.226 56.8224L220.221 56.8301L220.217 56.8379L221.08 57.343ZM220.503 57.929L221.017 58.7865L221.023 58.7828L220.503 57.929ZM219.911 39.8046L219.734 52.8728L221.733 52.8999L221.911 39.8318L219.911 39.8046ZM220.734 51.8864H218.674V53.8864H220.734V51.8864ZM219.674 52.8728L219.496 39.8046L217.496 39.8318L217.674 52.8999L219.674 52.8728ZM218.496 40.8182H220.911V38.8182H218.496V40.8182ZM219.704 57.142C219.535 57.142 219.412 57.0933 219.283 56.9644L217.869 58.3786C218.368 58.8771 218.997 59.142 219.704 59.142V57.142ZM219.283 56.9644C219.155 56.8356 219.106 56.713 219.106 56.544H217.106C217.106 57.251 217.371 57.8801 217.869 58.3786L219.283 56.9644ZM219.106 56.544C219.106 56.3751 219.155 56.2525 219.283 56.1237L217.869 54.7094C217.371 55.2079 217.106 55.837 217.106 56.544H219.106ZM219.283 56.1237C219.412 55.9948 219.535 55.946 219.704 55.946V53.946C218.997 53.946 218.368 54.2109 217.869 54.7094L219.283 56.1237ZM219.704 55.946C219.873 55.946 219.995 55.9948 220.124 56.1237L221.538 54.7094C221.04 54.2109 220.411 53.946 219.704 53.946V55.946ZM220.124 56.1237C220.253 56.2525 220.302 56.3751 220.302 56.544H222.302C222.302 55.837 222.037 55.2079 221.538 54.7094L220.124 56.1237ZM220.302 56.544C220.302 56.6543 220.276 56.7399 220.226 56.8224L221.934 57.8636C222.179 57.4608 222.302 57.0138 222.302 56.544H220.302ZM220.217 56.8379C220.159 56.9362 220.085 57.0123 219.982 57.0752L221.023 58.7828C221.406 58.5497 221.716 58.2352 221.943 57.8482L220.217 56.8379ZM219.988 57.0715C219.918 57.1136 219.832 57.142 219.704 57.142V59.142C220.167 59.142 220.614 59.0285 221.017 58.7865L219.988 57.0715Z" fill="black"/>
<defs>
<filter id="filter0_d_3_146" x="104" y="0" width="172" height="126.084" filterUnits="userSpaceOnUse" color-interpolation-filters="sRGB">
<feFlood flood-opacity="0" result="BackgroundImageFix"/>
<feColorMatrix in="SourceAlpha" type="matrix" values="0 0 0 0 0 0 0 0 0 0 0 0 0 0 0 0 0 0 127 0" result="hardAlpha"/>
<feOffset dy="4"/>
<feGaussianBlur stdDeviation="2"/>
<feComposite in2="hardAlpha" operator="out"/>
<feColorMatrix type="matrix" values="0 0 0 0 0 0 0 0 0 0 0 0 0 0 0 0 0 0 0.25 0"/>
<feBlend mode="normal" in2="BackgroundImageFix" result="effect1_dropShadow_3_146"/>
<feBlend mode="normal" in="SourceGraphic" in2="effect1_dropShadow_3_146" result="shape"/>
</filter>
</defs>
</svg>
